SplineFontDB: 3.0
FontName: Arapey-Italic
FullName: Arapey Italic
FamilyName: Arapey
Weight: Book
Copyright: Copyright (c) 2011, Eduardo Tunni (http://www.tipo.net.ar), with Reserved Font Name "Arapey"
Version: 001.002
ItalicAngle: -12
UnderlinePosition: -50
UnderlineWidth: 50
Ascent: 800
Descent: 200
sfntRevision: 0x00010083
LayerCount: 2
Layer: 0 1 "Back"  1
Layer: 1 1 "Fore"  0
NeedsXUIDChange: 1
XUID: [1021 288 713564382 9238080]
FSType: 0
OS2Version: 2
OS2_WeightWidthSlopeOnly: 0
OS2_UseTypoMetrics: 1
CreationTime: 1319811162
ModificationTime: 1319836512
PfmFamily: 17
TTFWeight: 400
TTFWidth: 5
LineGap: 0
VLineGap: 0
Panose: 2 0 0 0 0 0 0 0 0 0
OS2TypoAscent: 68
OS2TypoAOffset: 1
OS2TypoDescent: -228
OS2TypoDOffset: 0
OS2TypoLinegap: 0
OS2WinAscent: 868
OS2WinAOffset: 0
OS2WinDescent: 228
OS2WinDOffset: 0
HheadAscent: 10
HheadAOffset: 1
HheadDescent: 0
HheadDOffset: 1
OS2SubXSize: 700
OS2SubYSize: 650
OS2SubXOff: 0
OS2SubYOff: 140
OS2SupXSize: 700
OS2SupYSize: 650
OS2SupXOff: 0
OS2SupYOff: 477
OS2StrikeYSize: 50
OS2StrikeYPos: 250
OS2Vendor: 'TIPO'
OS2CodePages: 20000001.00000000
OS2UnicodeRanges: 800000af.4000204a.00000000.00000000
Lookup: 4 0 0 "'dlig' Discretionary Ligatures in Latin lookup 0"  {"'dlig' Discretionary Ligatures in Latin lookup 0 subtable"  } ['dlig' ('latn' <'dflt' > ) ]
Lookup: 4 0 1 "'liga' Standard Ligatures in Latin lookup 1"  {"'liga' Standard Ligatures in Latin lookup 1 subtable"  } ['liga' ('latn' <'dflt' > ) ]
Lookup: 257 0 0 "'case' Case-Sensitive Forms in Latin lookup 0"  {"'case' Case-Sensitive Forms in Latin lookup 0 per glyph data 0"  "'case' Case-Sensitive Forms in Latin lookup 0 per glyph data 1"  } ['case' ('latn' <'dflt' > ) ]
Lookup: 257 0 0 "'cpsp' Capital Spacing in Latin lookup 1"  {"'cpsp' Capital Spacing in Latin lookup 1 subtable"  } ['cpsp' ('latn' <'dflt' > ) ]

StartChar: o
Encoding: 111 111 1
Width: 460
Flags: HMW
HStem: -12 22<161 244.5 161 260> 422 22<216.5 300>
VStem: 40 63<94.5 180.5 94 209.5> 357 63<253.5 338 223.5 339>
LayerCount: 2
Fore
SplineSet
40 145 m 0,0,1
 40 248.035087719 40 248.035087719 100.5 342.5 c 0,2,3
 129 387 129 387 176 415.5 c 128,-1,4
 223 444 223 444 283.5 444 c 128,-1,5
 344 444 344 444 382 403 c 128,-1,6
 420 362 420 362 420 291 c 128,-1,7
 420 220 420 220 394 153 c 128,-1,8
 368 86 368 86 312 37 c 128,-1,9
 256 -12 256 -12 186 -12 c 128,-1,10
 116 -12 116 -12 78 29 c 128,-1,11
 40 70 40 70 40 145 c 0,0,1
275 422 m 0,12,13
 221 422 221 422 179.5 368 c 128,-1,14
 138 314 138 314 120.5 250 c 128,-1,15
 103 186 103 186 103 130.5 c 128,-1,16
 103 75 103 75 125.5 42.5 c 128,-1,17
 148 10 148 10 187.5 10 c 128,-1,18
 227 10 227 10 261.5 42 c 128,-1,19
 296 74 296 74 316 121 c 0,20,21
 357 217.35 357 217.35 357 287.675 c 128,-1,22
 357 358 357 358 335 390 c 128,-1,23
 313 422 313 422 275 422 c 0,12,13
EndSplineSet
EndChar

StartChar: h
Encoding: 104 104 2
Width: 495
Flags: HMW
HStem: -12 21G<331.5 371> 411 33<338.5 349> 637 20G<258 258>
VStem: 289 54<39.5 82.5 39.5 87> 380 60<317 373>
LayerCount: 2
Fore
SplineSet
107 0 m 1,0,-1
 37 -6 l 1,1,-1
 194 620 l 1,2,-1
 130 615 l 1,3,-1
 129 632 l 1,4,5
 198 641 198 641 258 657 c 1,6,-1
 272 647 l 1,7,8
 191 411 191 411 129 172 c 1,9,-1
 137 172 l 1,10,-1
 153 216 l 1,11,12
 206.704175304 367.167308262 206.704175304 367.167308262 270.5 411.5 c 0,13,14
 300 432 300 432 319.5 438 c 128,-1,15
 339 444 339 444 368.5 444 c 128,-1,16
 398 444 398 444 419 420 c 128,-1,17
 440 396 440 396 440 353 c 128,-1,18
 440 310 440 310 391.5 195 c 128,-1,19
 343 80 343 80 343 48 c 128,-1,20
 343 16 343 16 368 16 c 0,21,22
 387 16 387 16 409 41.5 c 128,-1,23
 431 67 431 67 447 114 c 1,24,-1
 463 110 l 1,25,26
 420 -12 420 -12 351 -12 c 0,27,28
 289 -12 289 -12 289 56 c 0,29,30
 289 85 289 85 334.5 200 c 128,-1,31
 380 315 380 315 380 348.5 c 0,32,33
 380 411 380 411 334 411 c 0,34,35
 283.643678161 411 283.643678161 411 226.5 329.5 c 0,36,37
 158.749333333 232.872 158.749333333 232.872 107 0 c 1,0,-1
EndSplineSet
EndChar

StartChar: c
Encoding: 99 99 3
Width: 397
Flags: HMW
HStem: -12 24<161 214> 420 24<217.5 292>
VStem: 40 66<96 179 93 211> 320 62<355.5 377 335.5 383>
LayerCount: 2
Fore
SplineSet
276 420 m 0,0,1
 235 420 235 420 200.5 389 c 128,-1,2
 166 358 166 358 146.5 311.5 c 0,3,4
 106 214.923076923 106 214.923076923 106 144.461538462 c 0,5,6
 106 12 106 12 186 12 c 0,7,8
 285 12 285 12 331 120 c 1,9,-1
 347 116 l 1,10,11
 323 55 323 55 277.5 21.5 c 128,-1,12
 232 -12 232 -12 175 -12 c 128,-1,13
 118 -12 118 -12 79 30 c 128,-1,14
 40 72 40 72 40 143 c 128,-1,15
 40 214 40 214 67 280.5 c 128,-1,16
 94 347 94 347 151 395.5 c 128,-1,17
 208 444 208 444 281 444 c 0,18,19
 331 444 331 444 356.5 418.5 c 128,-1,20
 382 393 382 393 382 357.5 c 128,-1,21
 382 322 382 322 369.5 294 c 128,-1,22
 357 266 357 266 330.5 266 c 128,-1,23
 304 266 304 266 291 282 c 1,24,25
 320 326 320 326 320 368 c 0,26,27
 320 420 320 420 276 420 c 0,0,1
EndSplineSet
EndChar

StartChar: i
Encoding: 105 105 4
Width: 276
Flags: HMW
HStem: -12 21G<111 152> 601 20G<202.5 227.5>
VStem: 70 54<39.5 71.5 39.5 89>
LayerCount: 2
Fore
SplineSet
170 576 m 128,-1,1
 170 595 170 595 183 608 c 128,-1,2
 196 621 196 621 215 621 c 128,-1,3
 234 621 234 621 247 608 c 128,-1,4
 260 595 260 595 260 576 c 128,-1,5
 260 557 260 557 247 544 c 128,-1,6
 234 531 234 531 215 531 c 128,-1,7
 196 531 196 531 183 544 c 128,-1,0
 170 557 170 557 170 576 c 128,-1,1
70 63 m 0,8,9
 70 116 70 116 143 398 c 1,10,-1
 79 393 l 1,11,-1
 78 410 l 1,12,13
 147 419 147 419 207 435 c 1,14,-1
 221 425 l 1,15,16
 186 321 186 321 155 202 c 128,-1,17
 124 83 124 83 124 49.5 c 0,18,19
 124 16 124 16 149 16 c 0,20,21
 168 16 168 16 190 41.5 c 128,-1,22
 212 67 212 67 228 114 c 1,23,-1
 244 110 l 1,24,25
 201 -12 201 -12 132 -12 c 0,26,27
 70 -12 70 -12 70 63 c 0,8,9
EndSplineSet
EndChar

StartChar: l
Encoding: 108 108 5
Width: 266
Flags: HMW
HStem: -12 21G<101 142> 637 20G<255 255>
VStem: 60 54<39.5 88.5 39.5 99>
LayerCount: 2
Fore
SplineSet
114 49 m 0,0,1
 114 16 114 16 139 16 c 0,2,3
 158 16 158 16 180 41.5 c 128,-1,4
 202 67 202 67 218 114 c 1,5,-1
 234 110 l 1,6,7
 191 -12 191 -12 122 -12 c 0,8,9
 60 -12 60 -12 60 66.5 c 0,10,11
 60 145 60 145 191 620 c 1,12,-1
 127 615 l 1,13,-1
 126 632 l 1,14,15
 195 641 195 641 255 657 c 1,16,-1
 269 647 l 1,17,18
 227 524 227 524 170.5 313.5 c 128,-1,19
 114 103 114 103 114 49 c 0,0,1
EndSplineSet
EndChar

StartChar: m
Encoding: 109 109 6
Width: 736
Flags: HMW
HStem: -12 21G<572.5 612> 411 33<336.5 348 590.5 597.5>
VStem: 378 52<342.5 371.5> 530 54<39.5 82.5 39.5 87> 621 60<317 373>
LayerCount: 2
Fore
SplineSet
359 0 m 1,0,-1
 288 -6 l 1,1,-1
 324 131 l 2,2,3
 330 154 330 154 342.5 199 c 128,-1,4
 355 244 355 244 361 267.5 c 0,5,6
 378 334.083333333 378 334.083333333 378 357 c 128,-1,7
 378 380 378 380 366.5 395.5 c 128,-1,8
 355 411 355 411 332 411 c 0,9,10
 282 411 282 411 223 310 c 128,-1,11
 164 209 164 209 115 0 c 1,12,-1
 45 -6 l 1,13,-1
 143 398 l 1,14,-1
 79 393 l 1,15,-1
 78 410 l 1,16,17
 147 419 147 419 207 435 c 1,18,-1
 221 425 l 1,19,20
 173 315 173 315 137 172 c 1,21,-1
 145 172 l 1,22,-1
 161 216 l 2,23,24
 208 344 208 344 261 394 c 128,-1,25
 314 444 314 444 360 444 c 0,26,27
 430 444 430 444 430 365 c 0,28,29
 430 319 430 319 401 235 c 2,30,-1
 380 172 l 1,31,-1
 389 172 l 1,32,-1
 405 216 l 1,33,34
 458.704175304 367.167308262 458.704175304 367.167308262 522.5 411.5 c 0,35,36
 552 432 552 432 571.5 438 c 128,-1,37
 591 444 591 444 618 444 c 128,-1,38
 645 444 645 444 663 420 c 128,-1,39
 681 396 681 396 681 353 c 128,-1,40
 681 310 681 310 632.5 195 c 128,-1,41
 584 80 584 80 584 48 c 128,-1,42
 584 16 584 16 609 16 c 0,43,44
 628 16 628 16 650 41.5 c 128,-1,45
 672 67 672 67 688 114 c 1,46,-1
 704 110 l 1,47,48
 661 -12 661 -12 592 -12 c 0,49,50
 530 -12 530 -12 530 56 c 0,51,52
 530 85 530 85 575.5 200 c 128,-1,53
 621 315 621 315 621 357 c 0,54,55
 621 411 621 411 586 411 c 0,56,57
 535.643678161 411 535.643678161 411 478.5 329.5 c 0,58,59
 410.749333333 232.872 410.749333333 232.872 359 0 c 1,0,-1
EndSplineSet
EndChar

StartChar: r
Encoding: 114 114 7
Width: 371
Flags: HMW
HStem: -6 21G<45 45> 405 39<318.5 323>
VStem: 338 63<362 384>
LayerCount: 2
Fore
SplineSet
207 435 m 1,0,-1
 221 425 l 1,1,2
 173 315 173 315 137 172 c 1,3,-1
 145 172 l 1,4,-1
 161 216 l 2,5,6
 208 344 208 344 254 394 c 128,-1,7
 300 444 300 444 334 444 c 128,-1,8
 368 444 368 444 384.5 422 c 128,-1,9
 401 400 401 400 401 365 c 128,-1,10
 401 330 401 330 388 304 c 128,-1,11
 375 278 375 278 350.5 278 c 128,-1,12
 326 278 326 278 310 294 c 1,13,14
 320 307 320 307 329 332 c 128,-1,15
 338 357 338 357 338 376 c 0,16,17
 338 405 338 405 314 405 c 0,18,19
 289.172413793 405 289.172413793 405 252 356 c 0,20,21
 171.394572025 249.747390397 171.394572025 249.747390397 115 0 c 1,22,-1
 45 -6 l 1,23,-1
 143 398 l 1,24,-1
 79 393 l 1,25,-1
 78 410 l 1,26,27
 147 419 147 419 207 435 c 1,0,-1
EndSplineSet
EndChar

StartChar: a
Encoding: 97 97 8
Width: 500
Flags: HMW
HStem: -12 28<364.5 376> 420 24<219.5 297>
VStem: 40 66<93.5 178.5 91.5 207> 294 54<39.5 68.5 39.5 111>
LayerCount: 2
Fore
SplineSet
379 202 m 128,-1,1
 348 83 348 83 348 49.5 c 128,-1,2
 348 16 348 16 373 16 c 0,3,4
 392 16 392 16 414 41.5 c 128,-1,5
 436 67 436 67 452 114 c 1,6,-1
 468 110 l 1,7,8
 425 -12 425 -12 356 -12 c 0,9,10
 294 -12 294 -12 294 63 c 0,11,12
 294 78 294 78 299 111 c 1,13,-1
 294 111 l 1,14,15
 232 -12 232 -12 150 -12 c 0,16,17
 103 -12 103 -12 71.5 29.5 c 128,-1,18
 40 71 40 71 40 131.5 c 128,-1,19
 40 192 40 192 56 244 c 128,-1,20
 72 296 72 296 101 341.5 c 128,-1,21
 130 387 130 387 178 415.5 c 128,-1,22
 226 444 226 444 283 444 c 0,23,24
 357 444 357 444 400 381 c 1,25,-1
 431 435 l 1,26,-1
 445 425 l 1,27,0
 410 321 410 321 379 202 c 128,-1,1
174 18 m 0,28,29
 216 18 216 18 259 83 c 0,30,31
 308.424144311 157.710915819 308.424144311 157.710915819 349.5 328.5 c 0,32,33
 359 368 359 368 364 386 c 1,34,35
 329 420 329 420 283.5 420 c 128,-1,36
 238 420 238 420 202.5 389 c 128,-1,37
 167 358 167 358 147 311 c 0,38,39
 106 214.65 106 214.65 106 130 c 0,40,41
 106 74 106 74 124.5 46 c 128,-1,42
 143 18 143 18 174 18 c 0,28,29
EndSplineSet
EndChar

StartChar: u
Encoding: 117 117 9
Width: 517
Flags: HMW
HStem: -12 30<168 183> 415 20G<201 201 448 448>
VStem: 73 58<63.5 124.5 63.5 126.5> 311 54<39.5 68.5 39.5 111>
LayerCount: 2
Fore
SplineSet
311 63 m 0,0,1
 311 78 311 78 316 111 c 1,2,-1
 311 111 l 1,3,4
 247 -12 247 -12 163 -12 c 0,5,6
 73 -12 73 -12 73 88 c 0,7,8
 73 152.666666667 73 152.666666667 119 329 c 2,9,-1
 137 398 l 1,10,-1
 73 393 l 1,11,-1
 72 410 l 1,12,13
 141 419 141 419 201 435 c 1,14,-1
 215 425 l 1,15,16
 131 164 131 164 131 91 c 128,-1,17
 131 18 131 18 186 18 c 0,18,19
 232 18 232 18 276.5 85.5 c 128,-1,20
 321 153 321 153 350 267 c 2,21,-1
 384 398 l 1,22,-1
 320 393 l 1,23,-1
 319 410 l 1,24,25
 388 419 388 419 448 435 c 1,26,-1
 462 425 l 1,27,28
 427 321 427 321 396 202 c 128,-1,29
 365 83 365 83 365 49.5 c 128,-1,30
 365 16 365 16 390 16 c 0,31,32
 409 16 409 16 431 41.5 c 128,-1,33
 453 67 453 67 469 114 c 1,34,-1
 485 110 l 1,35,36
 442 -12 442 -12 373 -12 c 0,37,38
 311 -12 311 -12 311 63 c 0,0,1
EndSplineSet
EndChar

StartChar: p
Encoding: 112 112 10
Width: 476
Flags: HMW
HStem: -222 21G<-7 -7> -8 21<190.5 277 190.5 295.5> 406 38<328 348.5>
VStem: 386 70<248 333.5>
LayerCount: 2
Fore
SplineSet
208 435 m 1,0,-1
 222 425 l 1,1,2
 174 315 174 315 138 172 c 1,3,-1
 146 172 l 1,4,-1
 162 216 l 2,5,6
 245 444 245 444 352 444 c 0,7,8
 395 444 395 444 425.5 402 c 128,-1,9
 456 360 456 360 456 300 c 128,-1,10
 456 240 456 240 440.5 188.5 c 128,-1,11
 425 137 425 137 396 92.5 c 128,-1,12
 367 48 367 48 320 20 c 128,-1,13
 273 -8 273 -8 216 -8 c 0,14,15
 129 -8 129 -8 80 69 c 1,16,-1
 87 86 l 1,17,18
 135 13 135 13 213 13 c 0,19,20
 258 13 258 13 293.5 43 c 128,-1,21
 329 73 329 73 348 118.5 c 0,22,23
 386 209.5 386 209.5 386 298 c 0,24,25
 386 349 386 349 371.5 377.5 c 128,-1,26
 357 406 357 406 334 406 c 0,27,28
 287 406 287 406 228.5 315 c 128,-1,29
 170 224 170 224 123 31 c 2,30,-1
 63 -216 l 1,31,-1
 -7 -222 l 1,32,-1
 144 398 l 1,33,-1
 80 393 l 1,34,-1
 79 410 l 1,35,36
 148 419 148 419 208 435 c 1,0,-1
EndSplineSet
EndChar

StartChar: b
Encoding: 98 98 11
Width: 467
Flags: HMW
HStem: -12 22<180 262 180 284> 406 38<312 332> 637 20G<258 258>
VStem: 377 70<247.5 333.5>
LayerCount: 2
Fore
SplineSet
129 172 m 1,0,-1
 137 172 l 1,1,-1
 153 216 l 1,2,3
 237 444 237 444 337 444 c 0,4,5
 384 444 384 444 415.5 402.5 c 128,-1,6
 447 361 447 361 447 300.5 c 128,-1,7
 447 240 447 240 431 188 c 128,-1,8
 415 136 415 136 386 90.5 c 128,-1,9
 357 45 357 45 309 16.5 c 128,-1,10
 261 -12 261 -12 211 -12 c 128,-1,11
 161 -12 161 -12 125 7.5 c 128,-1,12
 89 27 89 27 69 59 c 1,13,-1
 78 86 l 1,14,15
 126 10 126 10 201 10 c 0,16,17
 258 10 258 10 300 62.5 c 128,-1,18
 342 115 342 115 359.5 178.5 c 128,-1,19
 377 242 377 242 377 295.5 c 128,-1,20
 377 349 377 349 359.5 377.5 c 128,-1,21
 342 406 342 406 319 406 c 128,-1,22
 296 406 296 406 273 386.5 c 128,-1,23
 250 367 250 367 223 325.5 c 0,24,25
 164.725066588 235.929269015 164.725066588 235.929269015 114 31 c 1,26,-1
 84 63 l 1,27,-1
 54 -12 l 1,28,-1
 37 -6 l 1,29,-1
 194 620 l 1,30,-1
 130 615 l 1,31,-1
 129 632 l 1,32,33
 198 641 198 641 258 657 c 1,34,-1
 272 647 l 1,35,36
 191 411 191 411 129 172 c 1,0,-1
EndSplineSet
EndChar

StartChar: q
Encoding: 113 113 12
Width: 461
Flags: HMW
HStem: -225 21G<217 217> -12 30<154 175> 419 25<223.5 307>
VStem: 40 66<96 184 96 207>
LayerCount: 2
Fore
SplineSet
373 401 m 1,0,-1
 403 369 l 1,1,-1
 433 444 l 1,2,-1
 450 438 l 1,3,-1
 281 -188 l 1,4,-1
 345 -183 l 1,5,-1
 346 -200 l 1,6,7
 277 -209 277 -209 217 -225 c 1,8,-1
 203 -215 l 1,9,-1
 299 111 l 1,10,-1
 294 111 l 1,11,12
 230 -12 230 -12 150 -12 c 0,13,14
 103 -12 103 -12 71.5 29.5 c 128,-1,15
 40 71 40 71 40 131.5 c 128,-1,16
 40 192 40 192 56 244 c 128,-1,17
 72 296 72 296 101 341.5 c 128,-1,18
 130 387 130 387 178 415.5 c 128,-1,19
 226 444 226 444 276 444 c 128,-1,20
 326 444 326 444 362 424.5 c 128,-1,21
 398 405 398 405 418 373 c 1,22,-1
 409 346 l 1,23,24
 361 419 361 419 286 419 c 0,25,26
 242 419 242 419 205.5 389 c 128,-1,27
 169 359 169 359 148.5 313.5 c 0,28,29
 106 219.170731707 106 219.170731707 106 134 c 0,30,31
 106 79 106 79 125 48.5 c 128,-1,32
 144 18 144 18 172 18 c 0,33,34
 220 18 220 18 272.5 108.5 c 128,-1,35
 325 199 325 199 373 401 c 1,0,-1
EndSplineSet
EndChar

StartChar: t
Encoding: 116 116 13
Width: 276
Flags: HMW
HStem: -12 21G<111 152> 518 20G<226 226>
VStem: 70 54<39.5 86>
LayerCount: 2
Fore
SplineSet
67 396 m 1,0,-1
 72 415 l 1,1,-1
 294 415 l 1,2,-1
 289 396 l 1,3,-1
 67 396 l 1,0,-1
226 538 m 1,4,-1
 240 528 l 1,5,6
 216.774193548 458.322580645 216.774193548 458.322580645 178.387096774 308.161290323 c 128,-1,7
 140 158 140 158 132 114.5 c 128,-1,8
 124 71 124 71 124 49 c 0,9,10
 124 16 124 16 149 16 c 0,11,12
 168 16 168 16 190 41.5 c 128,-1,13
 212 67 212 67 228 114 c 1,14,-1
 244 110 l 1,15,16
 201 -12 201 -12 132 -12 c 0,17,18
 70 -12 70 -12 70 63 c 0,19,20
 70 125 70 125 144 409 c 1,21,-1
 72 415 l 1,22,23
 127 415 127 415 161 441.5 c 128,-1,24
 195 468 195 468 226 538 c 1,4,-1
EndSplineSet
EndChar

StartChar: e
Encoding: 101 101 15
Width: 397
Flags: HMW
HStem: -12 24<161 214> 203 20<151 211.5> 420 24<217.5 294>
VStem: 40 66<96 179 93 211> 331 56<328.5 374.5>
LayerCount: 2
Fore
SplineSet
360.5 418.5 m 128,-1,1
 387 393 387 393 387 345.5 c 128,-1,2
 387 298 387 298 350 263 c 0,3,4
 286.571428571 203 286.571428571 203 163 203 c 0,5,6
 126 203 126 203 99 209 c 1,7,-1
 99 228 l 1,8,9
 134 223 134 223 157 223 c 0,10,11
 240 223 240 223 285.5 265 c 128,-1,12
 331 307 331 307 331 357 c 0,13,14
 331 384 331 384 316.5 402 c 128,-1,15
 302 420 302 420 268.5 420 c 128,-1,16
 235 420 235 420 200.5 389 c 128,-1,17
 166 358 166 358 146.5 311.5 c 0,18,19
 106 214.923076923 106 214.923076923 106 144.461538462 c 0,20,21
 106 12 106 12 186 12 c 0,22,23
 285 12 285 12 331 120 c 1,24,-1
 347 116 l 1,25,26
 323 55 323 55 277.5 21.5 c 128,-1,27
 232 -12 232 -12 175 -12 c 128,-1,28
 118 -12 118 -12 79 30 c 128,-1,29
 40 72 40 72 40 143 c 128,-1,30
 40 214 40 214 67 280.5 c 128,-1,31
 94 347 94 347 151 395.5 c 128,-1,32
 208 444 208 444 281 444 c 0,33,0
 334 444 334 444 360.5 418.5 c 128,-1,1
EndSplineSet
EndChar

StartChar: f
Encoding: 102 102 16
Width: 290
Flags: HMW
HStem: -228 23<-48 -6 -48 -4.5> 637 23<303 350>
VStem: -125 54<-169.5 -149.5 -174 -136> 378 62<580 600.5 564 604>
LayerCount: 2
Fore
SplineSet
52 396 m 1,0,-1
 57 415 l 1,1,-1
 309 415 l 1,2,-1
 304 396 l 1,3,-1
 52 396 l 1,0,-1
222 471 m 2,4,-1
 128 32 l 2,5,6
 99 -100 99 -100 57 -164 c 128,-1,7
 15 -228 15 -228 -45 -228 c 0,8,9
 -83 -228 -83 -228 -104 -205 c 128,-1,10
 -125 -182 -125 -182 -125 -153.5 c 0,11,12
 -125 -125 -125 -125 -113.5 -102.5 c 128,-1,13
 -102 -80 -102 -80 -77 -80 c 0,14,15
 -52 -80 -52 -80 -41 -93 c 1,16,17
 -54 -103 -54 -103 -62.5 -123 c 128,-1,18
 -71 -143 -71 -143 -71 -162 c 0,19,20
 -71 -205 -71 -205 -35 -205 c 0,21,22
 5 -205 5 -205 26 -143 c 128,-1,23
 47 -81 47 -81 84 106 c 2,24,-1
 142 402 l 2,25,26
 163 508 163 508 216 584 c 128,-1,27
 269 660 269 660 339 660 c 0,28,29
 389 660 389 660 414.5 637 c 128,-1,30
 440 614 440 614 440 583 c 0,31,32
 440 552 440 552 427.5 527 c 128,-1,33
 415 502 415 502 388 502 c 0,34,35
 361 502 361 502 349 516 c 1,36,37
 378 553 378 553 378 591 c 0,38,39
 378 637 378 637 334.5 637 c 0,40,41
 291 637 291 637 265 593.5 c 128,-1,42
 239 550 239 550 222 471 c 2,4,-1
EndSplineSet
EndChar

StartChar: d
Encoding: 100 100 17
Width: 500
Flags: HMW
HStem: -12 30<154.5 169.5> 420 24<219.5 304.5> 637 20G<489 489>
VStem: 40 66<93.5 178.5 91.5 207> 294 54<39.5 88.5 39.5 99 39.5 111>
LayerCount: 2
Fore
SplineSet
348 49 m 0,0,1
 348 16 348 16 373 16 c 0,2,3
 392 16 392 16 414 41.5 c 128,-1,4
 436 67 436 67 452 114 c 1,5,-1
 468 110 l 1,6,7
 425 -12 425 -12 356 -12 c 0,8,9
 294 -12 294 -12 294 66.5 c 128,-1,10
 294 145 294 145 425 620 c 1,11,-1
 361 615 l 1,12,-1
 360 632 l 1,13,14
 429 641 429 641 489 657 c 1,15,-1
 503 647 l 1,16,17
 461 524 461 524 404.5 313.5 c 128,-1,18
 348 103 348 103 348 49 c 0,0,1
304 111 m 1,19,-1
 294 111 l 1,20,21
 232 -12 232 -12 150 -12 c 0,22,23
 103 -12 103 -12 71.5 29.5 c 128,-1,24
 40 71 40 71 40 131.5 c 128,-1,25
 40 192 40 192 56 244 c 128,-1,26
 72 296 72 296 101 341.5 c 128,-1,27
 130 387 130 387 178 415.5 c 128,-1,28
 226 444 226 444 275.5 444 c 0,29,30
 372.1 444 372.1 444 412 360 c 1,31,-1
 398 342 l 1,32,33
 351 420 351 420 281 420 c 0,34,35
 238 420 238 420 202.5 389 c 128,-1,36
 167 358 167 358 147 311 c 0,37,38
 106 214.65 106 214.65 106 130 c 0,39,40
 106 74 106 74 124.5 46 c 128,-1,41
 143 18 143 18 174 18 c 0,42,43
 217 18 217 18 262 90.5 c 128,-1,44
 307 163 307 163 342 298 c 1,45,-1
 304 111 l 1,19,-1
EndSplineSet
EndChar

StartChar: j
Encoding: 106 106 18
Width: 250
Flags: HMW
HStem: -228 23<-48 -6 -48 -4.5> 601 20G<202.5 227.5>
VStem: -125 54<-169.5 -149.5 -174 -136>
LayerCount: 2
Fore
SplineSet
170 576 m 128,-1,1
 170 595 170 595 183 608 c 128,-1,2
 196 621 196 621 215 621 c 128,-1,3
 234 621 234 621 247 608 c 128,-1,4
 260 595 260 595 260 576 c 128,-1,5
 260 557 260 557 247 544 c 128,-1,6
 234 531 234 531 215 531 c 128,-1,7
 196 531 196 531 183 544 c 128,-1,0
 170 557 170 557 170 576 c 128,-1,1
143 398 m 1,8,-1
 79 393 l 1,9,-1
 78 410 l 1,10,11
 147 419 147 419 207 435 c 1,12,-1
 221 425 l 1,13,-1
 126 32 l 2,14,15
 93 -102 93 -102 53.5 -165 c 128,-1,16
 14 -228 14 -228 -45 -228 c 0,17,18
 -83 -228 -83 -228 -104 -205 c 128,-1,19
 -125 -182 -125 -182 -125 -153.5 c 0,20,21
 -125 -125 -125 -125 -113.5 -102.5 c 128,-1,22
 -102 -80 -102 -80 -77 -80 c 0,23,24
 -52 -80 -52 -80 -41 -93 c 1,25,26
 -54 -103 -54 -103 -62.5 -123 c 128,-1,27
 -71 -143 -71 -143 -71 -162 c 0,28,29
 -71 -205 -71 -205 -35 -205 c 0,30,31
 5 -205 5 -205 26 -143 c 128,-1,32
 47 -81 47 -81 84 106 c 2,33,-1
 143 398 l 1,8,-1
EndSplineSet
EndChar

StartChar: v
Encoding: 118 118 19
Width: 447
Flags: HMW
HStem: -12 33<183.5 244.5 183.5 252> 424 20G<126 167 377 399>
VStem: 89 60<63.5 121.5 63.5 125> 156 55<344.5 389> 386 36<294 321.5>
LayerCount: 2
Fore
SplineSet
200 21 m 0,0,1
 264 21 264 21 325 114 c 128,-1,2
 386 207 386 207 386 285 c 0,3,4
 386 363 386 363 339 423 c 1,5,6
 364 444 364 444 384 444 c 0,7,8
 404 444 404 444 413 419 c 128,-1,9
 422 394 422 394 422 351.5 c 0,10,11
 422 309 422 309 405 246 c 128,-1,12
 388 183 388 183 358 124.5 c 128,-1,13
 328 66 328 66 278 27 c 128,-1,14
 228 -12 228 -12 171 -12 c 0,15,16
 134 -12 134 -12 111.5 13.5 c 128,-1,17
 89 39 89 39 89 83 c 128,-1,18
 89 127 89 127 122.5 237 c 128,-1,19
 156 347 156 347 156 381.5 c 0,20,21
 156 416 156 416 130 416 c 0,22,23
 111 416 111 416 90 390.5 c 128,-1,24
 69 365 69 365 56 318 c 1,25,-1
 39 322 l 1,26,27
 76 444 76 444 146 444 c 0,28,29
 211 444 211 444 211 374 c 0,30,31
 211 346 211 346 180 235 c 128,-1,32
 149 124 149 124 149 89 c 0,33,34
 149 21 149 21 200 21 c 0,0,1
EndSplineSet
EndChar

StartChar: w
Encoding: 119 119 20
Width: 667
Flags: HMW
HStem: -12 33<182 222 411 469.5> 424 20G<126 167 395 417 597 619>
VStem: 89 60<63.5 121.5 63.5 125> 156 55<344.5 389> 319 60<63.5 120.5> 380 60<314.5 357> 606 36<294 321.5>
LayerCount: 2
Fore
SplineSet
358 198 m 1,0,-1
 373 199 l 1,1,2
 301 -12 301 -12 171 -12 c 0,3,4
 134 -12 134 -12 111.5 13.5 c 128,-1,5
 89 39 89 39 89 83 c 128,-1,6
 89 127 89 127 122.5 237 c 128,-1,7
 156 347 156 347 156 381.5 c 128,-1,8
 156 416 156 416 130 416 c 0,9,10
 111 416 111 416 90 390.5 c 128,-1,11
 69 365 69 365 56 318 c 1,12,-1
 39 322 l 1,13,14
 76 444 76 444 146 444 c 0,15,16
 211 444 211 444 211 374 c 0,17,18
 211 346 211 346 180 235 c 128,-1,19
 149 124 149 124 149 89 c 0,20,21
 149 21 149 21 198 21 c 0,22,23
 243 21 243 21 288 74 c 128,-1,24
 333 127 333 127 358 198 c 1,0,-1
342 13.5 m 128,-1,26
 319 39 319 39 319 79 c 128,-1,27
 319 119 319 119 349.5 208.5 c 128,-1,28
 380 298 380 298 380 343.5 c 128,-1,29
 380 389 380 389 357 423 c 1,30,31
 382 444 382 444 402 444 c 128,-1,32
 422 444 422 444 431 419 c 128,-1,33
 440 394 440 394 440 353.5 c 128,-1,34
 440 313 440 313 409.5 216.5 c 128,-1,35
 379 120 379 120 379 87 c 0,36,37
 379 21 379 21 427 21 c 0,38,39
 488 21 488 21 547 114 c 128,-1,40
 606 207 606 207 606 285 c 128,-1,41
 606 363 606 363 559 423 c 1,42,43
 584 444 584 444 604 444 c 128,-1,44
 624 444 624 444 633 419 c 128,-1,45
 642 394 642 394 642 351 c 128,-1,46
 642 308 642 308 626.5 245.5 c 128,-1,47
 611 183 611 183 582.5 124.5 c 128,-1,48
 554 66 554 66 506.5 27 c 128,-1,49
 459 -12 459 -12 403 -12 c 0,50,25
 365 -12 365 -12 342 13.5 c 128,-1,26
EndSplineSet
EndChar

StartChar: k
Encoding: 107 107 21
Width: 468
Flags: HMW
HStem: -12 21G<305 346> 415 29<333 355.5> 637 20G<258 258>
VStem: 258 60<39.5 101.5> 386 53<341.5 380.5>
LayerCount: 2
Fore
SplineSet
162 220 m 1,0,-1
 166 233 l 1,1,-1
 206 233 l 2,2,3
 289 233 289 233 337.5 276.5 c 128,-1,4
 386 320 386 320 386 367 c 0,5,6
 386 388 386 388 374 401.5 c 128,-1,7
 362 415 362 415 338.5 415 c 128,-1,8
 315 415 315 415 287.5 395.5 c 128,-1,9
 260 376 260 376 229 331.5 c 0,10,11
 160.961038961 233.831168831 160.961038961 233.831168831 107 0 c 1,12,-1
 37 -6 l 1,13,-1
 194 620 l 1,14,-1
 130 615 l 1,15,-1
 129 632 l 1,16,17
 198 641 198 641 258 657 c 1,18,-1
 272 647 l 1,19,20
 191 411 191 411 129 172 c 1,21,-1
 137 172 l 1,22,-1
 154 216 l 2,23,24
 205 348 205 348 256.5 396 c 128,-1,25
 308 444 308 444 365 444 c 0,26,27
 400 444 400 444 419.5 424.5 c 128,-1,28
 439 405 439 405 439 375 c 0,29,30
 439 317 439 317 378.5 267 c 128,-1,31
 318 217 318 217 212 217 c 0,32,33
 184 217 184 217 162 220 c 1,0,-1
162 217 m 1,34,-1
 184 228 l 1,35,36
 266 228 266 228 292 193 c 128,-1,37
 318 158 318 158 318 49 c 0,38,39
 318 16 318 16 343 16 c 0,40,41
 362 16 362 16 384 41.5 c 128,-1,42
 406 67 406 67 422 114 c 1,43,-1
 438 110 l 1,44,45
 395 -12 395 -12 326 -12 c 0,46,47
 294 -12 294 -12 276 6 c 128,-1,48
 258 24 258 24 258 66 c 128,-1,49
 258 108 258 108 253.5 139.5 c 128,-1,50
 249 171 249 171 230.5 194.5 c 128,-1,51
 212 218 212 218 178 218 c 0,52,53
 167 218 167 218 162 217 c 1,34,-1
245 205 m 1,54,-1
 245 227 l 1,55,-1
 263 227 l 1,56,-1
 259 205 l 1,57,-1
 245 205 l 1,54,-1
EndSplineSet
EndChar

StartChar: x
Encoding: 120 120 22
Width: 461
Flags: HMW
HStem: -12 28<292.5 338> 416 28<143 188.5>
LayerCount: 2
Fore
SplineSet
163 444 m 0,0,1
 203 444 203 444 228 400 c 128,-1,2
 253 356 253 356 262.5 293 c 128,-1,3
 272 230 272 230 279 167 c 0,4,5
 295.777777778 16 295.777777778 16 335 16 c 0,6,7
 354 16 354 16 376 41.5 c 128,-1,8
 398 67 398 67 414 114 c 1,9,-1
 430 110 l 1,10,11
 387 -12 387 -12 318 -12 c 0,12,13
 278 -12 278 -12 253 32 c 128,-1,14
 228 76 228 76 218.5 139 c 128,-1,15
 209 202 209 202 202 265 c 0,16,17
 185.222222222 416 185.222222222 416 146 416 c 0,18,19
 127 416 127 416 105 390.5 c 128,-1,20
 83 365 83 365 67 318 c 1,21,-1
 51 322 l 1,22,23
 94 444 94 444 163 444 c 0,0,1
182 153 m 2,24,-1
 219 217 l 1,25,-1
 244 219 l 1,26,-1
 196 135 l 2,27,28
 113 -12 113 -12 50 -12 c 0,29,30
 20 -12 20 -12 20 42 c 1,31,32
 123 51 123 51 182 153 c 2,24,-1
289 279 m 2,33,-1
 252 215 l 1,34,-1
 227 213 l 1,35,-1
 275 297 l 2,36,37
 358 444 358 444 421 444 c 0,38,39
 451 444 451 444 451 390 c 1,40,41
 348 381 348 381 289 279 c 2,33,-1
EndSplineSet
EndChar

StartChar: y
Encoding: 121 121 23
Width: 472
Flags: HMW
HStem: -228 26<55 115.5 55 131> -12 33<183.5 222.5> 424 20G<126 167 377 399>
VStem: -44 62<-168.5 -141 -168.5 -132> 89 60<63.5 121.5 63.5 125> 156 55<344.5 389> 391 33<237 321.5>
LayerCount: 2
Fore
SplineSet
327.5 114.5 m 128,-1,1
 391 208 391 208 391 289.5 c 128,-1,2
 391 371 391 371 339 423 c 1,3,4
 364 444 364 444 385 444 c 0,5,6
 424 444 424 444 424 334 c 128,-1,7
 424 224 424 224 400 132.5 c 128,-1,8
 376 41 376 41 337.5 -23 c 128,-1,9
 299 -87 299 -87 250.5 -134.5 c 0,10,11
 155.031578947 -228 155.031578947 -228 57 -228 c 0,12,13
 7 -228 7 -228 -18.5 -205 c 128,-1,14
 -44 -182 -44 -182 -44 -151 c 128,-1,15
 -44 -120 -44 -120 -31.5 -95 c 128,-1,16
 -19 -70 -19 -70 6 -70 c 128,-1,17
 31 -70 31 -70 47 -84 c 1,18,19
 18 -121 18 -121 18 -152 c 0,20,21
 18 -202 18 -202 71 -202 c 0,22,23
 106 -202 106 -202 152 -176.5 c 128,-1,24
 198 -151 198 -151 245 -104.5 c 128,-1,25
 292 -58 292 -58 331.5 20 c 128,-1,26
 371 98 371 98 387 189 c 1,27,28
 354 102 354 102 298.5 45 c 128,-1,29
 243 -12 243 -12 171 -12 c 0,30,31
 134 -12 134 -12 111.5 13.5 c 128,-1,32
 89 39 89 39 89 83 c 128,-1,33
 89 127 89 127 122.5 237 c 128,-1,34
 156 347 156 347 156 381.5 c 128,-1,35
 156 416 156 416 130 416 c 0,36,37
 111 416 111 416 90 390.5 c 128,-1,38
 69 365 69 365 56 318 c 1,39,-1
 39 322 l 1,40,41
 76 444 76 444 146 444 c 0,42,43
 211 444 211 444 211 374 c 0,44,45
 211 346 211 346 180 235 c 128,-1,46
 149 124 149 124 149 89 c 0,47,48
 149 21 149 21 200 21 c 0,49,0
 264 21 264 21 327.5 114.5 c 128,-1,1
EndSplineSet
EndChar

StartChar: z
Encoding: 122 122 24
Width: 371
Flags: HMW
HStem: -12 58<208 252 208 263> 52 37<83 83 83 91> 387 57<136 178.5>
LayerCount: 2
Fore
SplineSet
350 438 m 1,0,-1
 366 434 l 1,1,2
 358 388 358 388 337 365 c 2,3,-1
 83 89 l 1,4,5
 103 88 103 88 154.5 67 c 128,-1,6
 206 46 206 46 235 46 c 0,7,8
 293 46 293 46 307 126 c 1,9,-1
 326 123 l 1,10,11
 312 -12 312 -12 243 -12 c 0,12,13
 201 -12 201 -12 144.5 20 c 128,-1,14
 88 52 88 52 65 52 c 0,15,16
 30 52 30 52 11 -12 c 1,17,-1
 -4 -7 l 1,18,19
 13 47 13 47 34 71 c 2,20,-1
 290 350 l 1,21,22
 273 351 273 351 227 369 c 128,-1,23
 181 387 181 387 153 387 c 0,24,25
 95 387 95 387 81 311 c 1,26,-1
 62 314 l 1,27,28
 76 444 76 444 145 444 c 0,29,30
 188 444 188 444 238.5 416 c 128,-1,31
 289 388 289 388 303 388 c 0,32,33
 336 388 336 388 350 438 c 1,0,-1
EndSplineSet
EndChar

StartChar: g
Encoding: 103 103 25
Width: 426
Flags: HMW
HStem: -228 21G<102 213> 424 20G<225.5 313.5 278 297> 549 20G<344 367>
VStem: -24 51<-135.5 -81> 96 56<222 279 222 305> 317 49<-104 -77.5> 340 55<288.5 369>
LayerCount: 2
Fore
SplineSet
111 58 m 2,0,-1
 270 22 l 2,1,2
 322 10 322 10 344 -10.5 c 128,-1,3
 366 -31 366 -31 366 -67 c 0,4,5
 366 -125 366 -125 302.5 -176.5 c 128,-1,6
 239 -228 239 -228 158 -228 c 0,7,8
 77 -228 77 -228 26.5 -191 c 128,-1,9
 -24 -154 -24 -154 -24 -103 c 0,10,11
 -24 -68 -24 -68 -0.5 -36 c 128,-1,12
 23 -4 23 -4 69 18 c 1,13,-1
 89 12 l 1,14,15
 59 -3 59 -3 43 -33.5 c 128,-1,16
 27 -64 27 -64 27 -98 c 0,17,18
 27 -154 27 -154 64 -181.5 c 128,-1,19
 101 -209 101 -209 159.5 -209 c 0,20,21
 218 -209 218 -209 267.5 -175.5 c 128,-1,22
 317 -142 317 -142 317 -95 c 0,23,24
 317 -48 317 -48 256 -34 c 2,25,-1
 84 4 l 2,26,27
 55 10 55 10 39 31 c 128,-1,28
 23 52 23 52 23 82 c 0,29,30
 23 112 23 112 48 137 c 128,-1,31
 73 162 73 162 117 162 c 2,32,-1
 218 162 l 1,33,-1
 215 148 l 1,34,-1
 117 148 l 2,35,36
 96 148 96 148 83.5 135 c 128,-1,37
 71 122 71 122 71 104 c 0,38,39
 71 67 71 67 111 58 c 2,0,-1
279 430 m 1,40,-1
 278 444 l 1,41,42
 306 444 306 444 325 457.5 c 128,-1,43
 344 471 344 471 344 493 c 0,44,45
 344 515 344 515 312 535 c 1,46,47
 328 569 328 569 350.5 569 c 0,48,49
 373 569 373 569 384.5 556 c 128,-1,50
 396 543 396 543 396 523 c 0,51,52
 396 488 396 488 364.5 459 c 128,-1,53
 333 430 333 430 279 430 c 1,40,-1
96 257 m 0,54,55
 96 331 96 331 148.5 387.5 c 128,-1,56
 201 444 201 444 278 444 c 0,57,58
 332 444 332 444 363.5 415.5 c 128,-1,59
 395 387 395 387 395 335 c 0,60,61
 395 251 395 251 341 199.5 c 128,-1,62
 287 148 287 148 215 148 c 0,63,64
 160 148 160 148 128 176.5 c 128,-1,65
 96 205 96 205 96 257 c 0,54,55
277 425 m 0,66,67
 222 425 222 425 187 364.5 c 128,-1,68
 152 304 152 304 152 257 c 0,69,70
 152 210 152 210 169.5 188.5 c 128,-1,71
 187 167 187 167 216 167 c 0,72,73
 260 167 260 167 300 217 c 128,-1,74
 340 267 340 267 340 343 c 0,75,76
 340 381 340 381 322.5 403 c 128,-1,77
 305 425 305 425 277 425 c 0,66,67
EndSplineSet
EndChar

StartChar: period
Encoding: 46 46 26
Width: 192
Flags: HMW
HStem: -12 21G<81.5 110.5> 74 20G<81.5 110.5>
VStem: 43 106<26.5 55.5>
LayerCount: 2
Fore
SplineSet
43 41 m 128,-1,1
 43 63 43 63 58.5 78.5 c 128,-1,2
 74 94 74 94 96 94 c 128,-1,3
 118 94 118 94 133.5 78.5 c 128,-1,4
 149 63 149 63 149 41 c 128,-1,5
 149 19 149 19 133.5 3.5 c 128,-1,6
 118 -12 118 -12 96 -12 c 128,-1,7
 74 -12 74 -12 58.5 3.5 c 128,-1,0
 43 19 43 19 43 41 c 128,-1,1
EndSplineSet
EndChar

StartChar: s
Encoding: 115 115 27
Width: 379
Flags: HMW
HStem: -12 21<126 181 124 191> 420 24<207.5 258>
VStem: 87 52<292 349.5> 256 61<76 144.5>
LayerCount: 2
Fore
SplineSet
166 398 m 128,-1,1
 139 376 139 376 139 342 c 128,-1,2
 139 308 139 308 167 280 c 128,-1,3
 195 252 195 252 228 233.5 c 128,-1,4
 261 215 261 215 289 185 c 128,-1,5
 317 155 317 155 317 121 c 0,6,7
 317 57 317 57 267.5 22.5 c 128,-1,8
 218 -12 218 -12 148 -12 c 128,-1,9
 78 -12 78 -12 25 21 c 1,10,11
 42 55 42 55 57 139 c 1,12,-1
 74 136 l 1,13,14
 67 95 67 95 67 71.5 c 128,-1,15
 67 48 67 48 89.5 28.5 c 128,-1,16
 112 9 112 9 154.5 9 c 128,-1,17
 197 9 197 9 226.5 35 c 128,-1,18
 256 61 256 61 256 103 c 0,19,20
 256 130 256 130 229.5 155.5 c 128,-1,21
 203 181 203 181 171.5 198 c 128,-1,22
 140 215 140 215 113.5 246 c 128,-1,23
 87 277 87 277 87 314 c 0,24,25
 87 369 87 369 130.5 406.5 c 128,-1,26
 174 444 174 444 245 444 c 0,27,28
 300 444 300 444 354 417 c 1,29,30
 349 406 349 406 337.5 367 c 128,-1,31
 326 328 326 328 320 293 c 1,32,-1
 303 296 l 1,33,34
 309 328 309 328 309 357.5 c 128,-1,35
 309 387 309 387 289.5 403.5 c 128,-1,36
 270 420 270 420 231.5 420 c 128,-1,0
 193 420 193 420 166 398 c 128,-1,1
EndSplineSet
EndChar

StartChar: hyphen
Encoding: 45 45 28
Width: 279
Flags: HMW
HStem: 211 40<30 279 39 270>
LayerCount: 2
Fore
SplineSet
30 211 m 1,0,-1
 39 251 l 1,1,-1
 279 251 l 1,2,-1
 270 211 l 1,3,-1
 30 211 l 1,0,-1
EndSplineSet
Position2: "'case' Case-Sensitive Forms in Latin lookup 0 per glyph data 0" dx=0 dy=35 dh=0 dv=0
EndChar

StartChar: comma
Encoding: 44 44 29
Width: 182
Flags: HMW
HStem: -125 21G<13 13> 80 20G<98 126.5>
VStem: 70 83<-28.5 71>
LayerCount: 2
Fore
SplineSet
5 -111 m 1,0,1
 70 -61 70 -61 70 -6 c 0,2,3
 70 24 70 24 49 43 c 1,4,5
 54 66 54 66 72.5 83 c 128,-1,6
 91 100 91 100 112 100 c 0,7,8
 153 100 153 100 153 59 c 128,-1,9
 153 18 153 18 112.5 -38.5 c 128,-1,10
 72 -95 72 -95 13 -125 c 1,11,-1
 5 -111 l 1,0,1
EndSplineSet
EndChar

StartChar: H
Encoding: 72 72 30
Width: 673
Flags: HMW
HStem: 0 21G<10 194 10 10 376 560 376 376> 301 28<204 498 198 503> 610 20G<143 327 327 327 509 693 693 693>
LayerCount: 2
Fore
SplineSet
628 598 m 1,0,-1
 508 28 l 1,1,2
 508 18 508 18 519 18 c 2,3,-1
 563 18 l 1,4,-1
 560 0 l 1,5,-1
 376 0 l 1,6,-1
 379 18 l 1,7,-1
 425 18 l 2,8,9
 438 18 438 18 441 33 c 2,10,-1
 498 301 l 1,11,-1
 198 301 l 1,12,13
 142 36 142 36 142 27 c 0,14,15
 142 18 142 18 153 18 c 2,16,-1
 197 18 l 1,17,-1
 194 0 l 1,18,-1
 10 0 l 1,19,-1
 13 18 l 1,20,-1
 59 18 l 2,21,22
 72 18 72 18 75 33 c 0,23,24
 195 601 195 601 195 606.5 c 0,25,26
 195 612 195 612 184 612 c 2,27,-1
 140 612 l 1,28,-1
 143 630 l 1,29,-1
 327 630 l 1,30,-1
 324 612 l 1,31,-1
 279 612 l 2,32,33
 266 612 266 612 262 598 c 2,34,-1
 204 329 l 1,35,-1
 503 329 l 1,36,37
 561 602 561 602 561 607 c 0,38,39
 561 612 561 612 550 612 c 2,40,-1
 506 612 l 1,41,-1
 509 630 l 1,42,-1
 693 630 l 1,43,-1
 690 612 l 1,44,-1
 645 612 l 2,45,46
 632 612 632 612 628 598 c 1,0,-1
EndSplineSet
Position2: "'cpsp' Capital Spacing in Latin lookup 1 subtable" dx=0 dy=0 dh=40 dv=0
EndChar

StartChar: I
Encoding: 73 73 31
Width: 307
Flags: HMW
HStem: 0 21G<10 194 10 10> 610 20G<143 327 327 327>
LayerCount: 2
Fore
SplineSet
262 598 m 1,0,-1
 142 28 l 1,1,2
 142 18 142 18 153 18 c 2,3,-1
 197 18 l 1,4,-1
 194 0 l 1,5,-1
 10 0 l 1,6,-1
 13 18 l 1,7,-1
 59 18 l 2,8,9
 72 18 72 18 75 33 c 0,10,11
 195 601 195 601 195 606.5 c 0,12,13
 195 612 195 612 184 612 c 2,14,-1
 140 612 l 1,15,-1
 143 630 l 1,16,-1
 327 630 l 1,17,-1
 324 612 l 1,18,-1
 279 612 l 2,19,20
 266 612 266 612 262 598 c 1,0,-1
EndSplineSet
Position2: "'cpsp' Capital Spacing in Latin lookup 1 subtable" dx=0 dy=0 dh=40 dv=0
EndChar

StartChar: N
Encoding: 78 78 32
Width: 639
Flags: HMW
HStem: 0 21G<0 149 0 0 448 478 448 448> 610 20G<133 273 273 273 521 669 669 669>
LayerCount: 2
Fore
SplineSet
273 630 m 1,0,-1
 472 125 l 1,1,2
 573 603 573 603 573 607.5 c 0,3,4
 573 612 573 612 562 612 c 2,5,-1
 518 612 l 1,6,-1
 521 630 l 1,7,-1
 669 630 l 1,8,-1
 666 612 l 1,9,-1
 621 612 l 2,10,11
 608 612 608 612 604 598 c 1,12,-1
 478 0 l 1,13,-1
 448 0 l 1,14,-1
 214 587 l 1,15,16
 97 31 97 31 97 24.5 c 0,17,18
 97 18 97 18 108 18 c 2,19,-1
 152 18 l 1,20,-1
 149 0 l 1,21,-1
 0 0 l 1,22,-1
 3 18 l 1,23,-1
 49 18 l 2,24,25
 62 18 62 18 65 33 c 0,26,27
 185 601 185 601 185 606.5 c 0,28,29
 185 612 185 612 174 612 c 2,30,-1
 130 612 l 1,31,-1
 133 630 l 1,32,-1
 273 630 l 1,0,-1
EndSplineSet
Position2: "'cpsp' Capital Spacing in Latin lookup 1 subtable" dx=0 dy=0 dh=40 dv=0
EndChar

StartChar: E
Encoding: 69 69 33
Width: 542
Flags: HMW
HStem: -9 21G 0 23<141 325> 301 28<205 400 200 407> 607 23<264 444 444 471 264 264> 619 20G
LayerCount: 2
Fore
SplineSet
143 630 m 1,0,-1
 444 630 l 2,1,2
 520 630 520 630 552 639 c 1,3,4
 537 604 537 604 516 510 c 2,5,-1
 506 463 l 1,6,-1
 484 463 l 1,7,-1
 497 590 l 1,8,9
 497 607 497 607 475 607 c 2,10,-1
 264 607 l 1,11,-1
 205 329 l 1,12,-1
 407 329 l 1,13,14
 417 330 417 330 421 343 c 2,15,-1
 441 405 l 1,16,-1
 458 405 l 1,17,-1
 419 225 l 1,18,-1
 402 225 l 1,19,-1
 411 287 l 1,20,21
 411 301 411 301 400 301 c 2,22,-1
 200 301 l 1,23,-1
 141 23 l 1,24,-1
 362 23 l 2,25,26
 386 23 386 23 393 45 c 2,27,-1
 435 167 l 1,28,-1
 457 167 l 1,29,-1
 447 120 l 2,30,31
 428 31 428 31 428 -9 c 1,32,33
 399 0 399 0 325 0 c 2,34,-1
 10 0 l 1,35,-1
 13 18 l 1,36,-1
 59 18 l 2,37,38
 72 18 72 18 75 33 c 0,39,40
 195 601 195 601 195 606.5 c 0,41,42
 195 612 195 612 184 612 c 2,43,-1
 140 612 l 1,44,-1
 143 630 l 1,0,-1
EndSplineSet
Position2: "'cpsp' Capital Spacing in Latin lookup 1 subtable" dx=0 dy=0 dh=40 dv=0
EndChar

StartChar: L
Encoding: 76 76 34
Width: 453
Flags: HMW
HStem: -9 21G 0 23<141 301> 610 20G<143 327 327 327>
LayerCount: 2
Fore
SplineSet
262 598 m 1,0,-1
 141 23 l 1,1,-1
 338 23 l 2,2,3
 363 23 363 23 370 45 c 2,4,-1
 411 167 l 1,5,-1
 433 167 l 1,6,-1
 423 120 l 2,7,8
 404 33 404 33 404 -9 c 1,9,10
 375 0 375 0 301 0 c 2,11,-1
 10 0 l 1,12,-1
 13 18 l 1,13,-1
 59 18 l 2,14,15
 72 18 72 18 75 33 c 0,16,17
 195 601 195 601 195 606.5 c 0,18,19
 195 612 195 612 184 612 c 2,20,-1
 140 612 l 1,21,-1
 143 630 l 1,22,-1
 327 630 l 1,23,-1
 324 612 l 1,24,-1
 279 612 l 2,25,26
 266 612 266 612 262 598 c 1,0,-1
EndSplineSet
Position2: "'cpsp' Capital Spacing in Latin lookup 1 subtable" dx=0 dy=0 dh=40 dv=0
EndChar

StartChar: F
Encoding: 70 70 35
Width: 501
Flags: HMW
HStem: 0 21G<10 232 10 10> 301 28<205 394 199 402> 602 28<263 439 439 465.5 143 467 263 263> 619 20G
LayerCount: 2
Fore
SplineSet
143 630 m 1,0,-1
 439 630 l 2,1,2
 514 630 514 630 546 639 c 1,3,4
 533 609 533 609 511 510 c 2,5,-1
 501 463 l 1,6,-1
 479 463 l 1,7,-1
 489 586 l 1,8,9
 489 602 489 602 467 602 c 2,10,-1
 263 602 l 1,11,-1
 205 329 l 1,12,-1
 402 329 l 1,13,14
 414 331 414 331 417 343 c 2,15,-1
 435 405 l 1,16,-1
 452 405 l 1,17,-1
 413 225 l 1,18,-1
 396 225 l 1,19,-1
 406 287 l 1,20,21
 406 301 406 301 394 301 c 2,22,-1
 199 301 l 1,23,-1
 142 28 l 1,24,25
 142 18 142 18 152 18 c 2,26,-1
 235 18 l 1,27,-1
 232 0 l 1,28,-1
 10 0 l 1,29,-1
 13 18 l 1,30,-1
 59 18 l 2,31,32
 72 18 72 18 75 33 c 0,33,34
 195 601 195 601 195 606.5 c 0,35,36
 195 612 195 612 184 612 c 2,37,-1
 140 612 l 1,38,-1
 143 630 l 1,0,-1
EndSplineSet
Position2: "'cpsp' Capital Spacing in Latin lookup 1 subtable" dx=0 dy=0 dh=40 dv=0
EndChar

StartChar: T
Encoding: 84 84 36
Width: 472
Flags: HMW
HStem: 0 21G<50 318 50 50> 602 28<190 277 345 445 445 471.5 190 473 345 345> 619 20G
LayerCount: 2
Fore
SplineSet
190 630 m 2,0,-1
 445 630 l 2,1,2
 520 630 520 630 552 639 c 1,3,4
 539 609 539 609 517 510 c 2,5,-1
 507 463 l 1,6,-1
 485 463 l 1,7,-1
 496 584 l 1,8,9
 496 602 496 602 473 602 c 2,10,-1
 345 602 l 1,11,12
 224 31 224 31 224 24.5 c 0,13,14
 224 18 224 18 235 18 c 2,15,-1
 321 18 l 1,16,-1
 318 0 l 1,17,-1
 50 0 l 1,18,-1
 53 18 l 1,19,-1
 141 18 l 2,20,21
 154 18 154 18 157 33 c 2,22,-1
 277 602 l 1,23,-1
 150 602 l 2,24,25
 126 602 126 602 119 580 c 2,26,-1
 80 463 l 1,27,-1
 58 463 l 1,28,-1
 68 510 l 2,29,30
 87 597 87 597 87 639 c 1,31,32
 116 630 116 630 190 630 c 2,0,-1
EndSplineSet
Position2: "'cpsp' Capital Spacing in Latin lookup 1 subtable" dx=0 dy=0 dh=40 dv=0
EndChar

StartChar: O
Encoding: 79 79 37
Width: 627
Flags: HMW
HStem: -12 26<222.5 359.5 222.5 377.5> 616 26<306.5 443>
VStem: 50 70<144 281 144 310.5> 547 70<348.5 485>
LayerCount: 2
Fore
SplineSet
280.5 616 m 0,0,1
 338 642 338 642 403 642 c 0,2,3
 502 642 502 642 559.5 582.5 c 128,-1,4
 617 523 617 523 617 415 c 0,5,6
 617 342 617 342 593 267.5 c 128,-1,7
 569 193 569 193 526 130 c 128,-1,8
 483 67 483 67 414 27.5 c 128,-1,9
 345 -12 345 -12 255 -12 c 128,-1,10
 165 -12 165 -12 107.5 48 c 128,-1,11
 50 108 50 108 50 222.25 c 128,-1,12
 50 336.5 50 336.5 112.695178849 452.486080871 c 128,-1,13
 175.390357698 568.472161742 175.390357698 568.472161742 280.5 616 c 0,0,1
400 616 m 128,-1,15
 334 616 334 616 278 573.5 c 128,-1,16
 222 531 222 531 189 466.5 c 0,17,18
 120 331.636363636 120 331.636363636 120 206 c 0,19,20
 120 115 120 115 159.5 64.5 c 128,-1,21
 199 14 199 14 265.5 14 c 128,-1,22
 332 14 332 14 388 56.5 c 128,-1,23
 444 99 444 99 477.5 163 c 0,24,25
 547 295.776119403 547 295.776119403 547 423 c 0,26,27
 547 514 547 514 506.5 565 c 128,-1,14
 466 616 466 616 400 616 c 128,-1,15
EndSplineSet
Position2: "'cpsp' Capital Spacing in Latin lookup 1 subtable" dx=0 dy=0 dh=40 dv=0
EndChar

StartChar: A
Encoding: 65 65 38
Width: 510
Flags: HMW
HStem: 0 21G<-80 64 -80 -80 296 296 296 477> 211 28<128 330 128 334 113 330> 610 20G<316 348 348 348>
LayerCount: 2
Fore
SplineSet
361 18 m 1,0,-1
 334 211 l 1,1,-1
 113 211 l 1,2,-1
 5 18 l 1,3,-1
 67 18 l 1,4,-1
 64 0 l 1,5,-1
 -80 0 l 1,6,-1
 -76 18 l 1,7,-1
 -41 18 l 2,8,9
 -27 18 -27 18 -20 32 c 2,10,-1
 316 630 l 1,11,-1
 348 630 l 1,12,-1
 430 32 l 2,13,14
 432 18 432 18 445 18 c 2,15,-1
 480 18 l 1,16,-1
 477 0 l 1,17,-1
 296 0 l 1,18,-1
 299 18 l 1,19,-1
 361 18 l 1,0,-1
291 528 m 1,20,-1
 128 239 l 1,21,-1
 330 239 l 1,22,-1
 291 528 l 1,20,-1
EndSplineSet
Position2: "'cpsp' Capital Spacing in Latin lookup 1 subtable" dx=0 dy=0 dh=40 dv=0
EndChar

StartChar: V
Encoding: 86 86 39
Width: 501
Flags: HMW
HStem: 0 21G<188 220 188 188> 610 20G<73 239 239 239 472 601 601 601>
LayerCount: 2
Fore
SplineSet
73 630 m 1,0,-1
 239 630 l 1,1,-1
 236 612 l 1,2,-1
 189 612 l 1,3,-1
 246 109 l 1,4,-1
 516 612 l 1,5,-1
 469 612 l 1,6,-1
 472 630 l 1,7,-1
 601 630 l 1,8,-1
 598 612 l 1,9,-1
 563 612 l 2,10,11
 549 612 549 612 542 598 c 2,12,-1
 220 0 l 1,13,-1
 188 0 l 1,14,-1
 120 598 l 2,15,16
 118 612 118 612 105 612 c 2,17,-1
 70 612 l 1,18,-1
 73 630 l 1,0,-1
EndSplineSet
Position2: "'cpsp' Capital Spacing in Latin lookup 1 subtable" dx=0 dy=0 dh=40 dv=0
EndChar

StartChar: W
Encoding: 87 87 40
Width: 814
Flags: HMW
HStem: 0 21G<179 211 179 179 520 552 520 520> 610 20G<83 249 249 249 414 581 581 581 785 914 914 914>
LayerCount: 2
Fore
SplineSet
785 630 m 1,0,-1
 914 630 l 1,1,-1
 911 612 l 1,2,-1
 876 612 l 2,3,4
 862 612 862 612 855 598 c 2,5,-1
 552 0 l 1,6,-1
 520 0 l 1,7,-1
 470 498 l 1,8,-1
 211 0 l 1,9,-1
 179 0 l 1,10,-1
 130 598 l 2,11,12
 128 612 128 612 115 612 c 2,13,-1
 80 612 l 1,14,-1
 83 630 l 1,15,-1
 249 630 l 1,16,-1
 246 612 l 1,17,-1
 199 612 l 1,18,-1
 240 117 l 1,19,-1
 466 551 l 1,20,-1
 461 598 l 2,21,22
 459 612 459 612 446 612 c 2,23,-1
 411 612 l 1,24,-1
 414 630 l 1,25,-1
 581 630 l 1,26,-1
 578 612 l 1,27,-1
 530 612 l 1,28,-1
 580 120 l 1,29,-1
 829 612 l 1,30,-1
 782 612 l 1,31,-1
 785 630 l 1,0,-1
EndSplineSet
Position2: "'cpsp' Capital Spacing in Latin lookup 1 subtable" dx=0 dy=0 dh=40 dv=0
EndChar

StartChar: U
Encoding: 85 85 41
Width: 609
Flags: HMW
HStem: -12 33<240.5 311 240.5 317> 610 20G<123 307 307 307 510 659 659 659>
VStem: 82 67<96 144>
LayerCount: 2
Fore
SplineSet
89 195 m 2,0,-1
 176 604 l 1,1,2
 176 612 176 612 165 612 c 2,3,-1
 120 612 l 1,4,-1
 123 630 l 1,5,-1
 307 630 l 1,6,-1
 304 612 l 1,7,-1
 259 612 l 2,8,9
 246 612 246 612 242 598 c 1,10,-1
 155 188 l 2,11,12
 149 159.5 149 159.5 149 137 c 0,13,14
 149 78 149 78 184 49.5 c 128,-1,15
 219 21 219 21 277 21 c 0,16,17
 332.5 21 332.5 21 391.5 59 c 0,18,19
 455.631533847 100.305055698 455.631533847 100.305055698 476 194 c 2,20,-1
 562 601 l 1,21,22
 562 612 562 612 552 612 c 2,23,-1
 507 612 l 1,24,-1
 510 630 l 1,25,-1
 659 630 l 1,26,-1
 656 612 l 1,27,-1
 611 612 l 2,28,29
 598 612 598 612 594 598 c 1,30,-1
 509 195 l 2,31,32
 487 91 487 91 419.5 39.5 c 128,-1,33
 352 -12 352 -12 263 -12 c 0,34,35
 82 -12 82 -12 82 135 c 0,36,37
 82 164 82 164 89 195 c 2,0,-1
EndSplineSet
Position2: "'cpsp' Capital Spacing in Latin lookup 1 subtable" dx=0 dy=0 dh=40 dv=0
EndChar

StartChar: P
Encoding: 80 80 42
Width: 492
Flags: HMW
HStem: 0 21G<10 223 10 10> 251 23<193 286 188 287> 607 23<264 355 264 264>
VStem: 456 66<444 522>
LayerCount: 2
Fore
SplineSet
286 251 m 2,0,-1
 188 251 l 1,1,2
 142 39 142 39 142 28.5 c 0,3,4
 142 18 142 18 153 18 c 2,5,-1
 226 18 l 1,6,-1
 223 0 l 1,7,-1
 10 0 l 1,8,-1
 13 18 l 1,9,-1
 59 18 l 2,10,11
 72 18 72 18 75 33 c 0,12,13
 195 601 195 601 195 606.5 c 0,14,15
 195 612 195 612 184 612 c 2,16,-1
 140 612 l 1,17,-1
 143 630 l 1,18,-1
 366 630 l 2,19,20
 434 630 434 630 478 592 c 128,-1,21
 522 554 522 554 522 487 c 0,22,23
 522 381 522 381 449 316 c 128,-1,24
 376 251 376 251 286 251 c 2,0,-1
355 607 m 2,25,-1
 264 607 l 1,26,-1
 193 274 l 1,27,-1
 287 274 l 2,28,29
 359 274 359 274 407.5 344 c 128,-1,30
 456 414 456 414 456 491 c 0,31,32
 456 541 456 541 430.5 574 c 128,-1,33
 405 607 405 607 355 607 c 2,25,-1
EndSplineSet
Position2: "'cpsp' Capital Spacing in Latin lookup 1 subtable" dx=0 dy=0 dh=40 dv=0
EndChar

StartChar: quotedblleft
Encoding: 8220 8220 43
Width: 223
Flags: HMW
HStem: 443 21G<26.5 55 171.5 200> 648 20G<140 140 285 285>
VStem: 0 83<472 571.5> 145 83<472 571.5>
LayerCount: 2
Fore
SplineSet
148 654 m 1,0,1
 83 604 83 604 83 549 c 0,2,3
 83 519 83 519 104 500 c 1,4,5
 99 477 99 477 80.5 460 c 128,-1,6
 62 443 62 443 41 443 c 0,7,8
 0 443 0 443 0 484 c 128,-1,9
 0 525 0 525 40.5 581.5 c 128,-1,10
 81 638 81 638 140 668 c 1,11,-1
 148 654 l 1,0,1
293 654 m 1,12,13
 228 604 228 604 228 549 c 0,14,15
 228 519 228 519 249 500 c 1,16,17
 244 477 244 477 225.5 460 c 128,-1,18
 207 443 207 443 186 443 c 0,19,20
 145 443 145 443 145 484 c 128,-1,21
 145 525 145 525 185.5 581.5 c 128,-1,22
 226 638 226 638 285 668 c 1,23,-1
 293 654 l 1,12,13
EndSplineSet
EndChar

StartChar: quotedblright
Encoding: 8221 8221 44
Width: 353
Flags: HMW
HStem: 443 21G<68 68 213 213> 648 20G<153 181.5 298 326.5>
VStem: 125 83<539.5 639> 270 83<539.5 639>
LayerCount: 2
Fore
SplineSet
60 457 m 1,0,1
 125 507 125 507 125 562 c 0,2,3
 125 592 125 592 104 611 c 1,4,5
 109 634 109 634 127.5 651 c 128,-1,6
 146 668 146 668 167 668 c 0,7,8
 208 668 208 668 208 627 c 128,-1,9
 208 586 208 586 167.5 529.5 c 128,-1,10
 127 473 127 473 68 443 c 1,11,-1
 60 457 l 1,0,1
205 457 m 1,12,13
 270 507 270 507 270 562 c 0,14,15
 270 592 270 592 249 611 c 1,16,17
 254 634 254 634 272.5 651 c 128,-1,18
 291 668 291 668 312 668 c 0,19,20
 353 668 353 668 353 627 c 128,-1,21
 353 586 353 586 312.5 529.5 c 128,-1,22
 272 473 272 473 213 443 c 1,23,-1
 205 457 l 1,12,13
EndSplineSet
EndChar

StartChar: M
Encoding: 77 77 45
Width: 769
Flags: HMW
HStem: 0 21G<0 149 0 0 289 321 289 289 472 472 472 656> 610 20G<133 269 269 269 653 789 789 789>
LayerCount: 2
Fore
SplineSet
649 565 m 1,0,-1
 321 0 l 1,1,-1
 289 0 l 1,2,-1
 209 565 l 1,3,4
 97 33 97 33 97 25.5 c 128,-1,5
 97 18 97 18 108 18 c 2,6,-1
 152 18 l 1,7,-1
 149 0 l 1,8,-1
 0 0 l 1,9,-1
 3 18 l 1,10,-1
 49 18 l 2,11,12
 62 18 62 18 65 33 c 0,13,14
 185 601 185 601 185 606.5 c 128,-1,15
 185 612 185 612 174 612 c 2,16,-1
 130 612 l 1,17,-1
 133 630 l 1,18,-1
 269 630 l 1,19,-1
 344 94 l 1,20,-1
 653 630 l 1,21,-1
 789 630 l 1,22,-1
 786 612 l 1,23,-1
 741 612 l 2,24,25
 728 612 728 612 724 598 c 1,26,27
 711 535 711 535 677.5 378.5 c 0,28,29
 604 35.1343283582 604 35.1343283582 604 26.5671641791 c 128,-1,30
 604 18 604 18 615 18 c 2,31,-1
 659 18 l 1,32,-1
 656 0 l 1,33,-1
 472 0 l 1,34,-1
 475 18 l 1,35,-1
 521 18 l 2,36,37
 534 18 534 18 537 33 c 2,38,-1
 649 565 l 1,0,-1
EndSplineSet
Position2: "'cpsp' Capital Spacing in Latin lookup 1 subtable" dx=0 dy=0 dh=40 dv=0
EndChar

StartChar: D
Encoding: 68 68 46
Width: 611
Flags: HMW
HStem: 0 23<141 252> 607 23<264 379 264 264>
VStem: 530 71<341 478>
LayerCount: 2
Fore
SplineSet
379 607 m 2,0,-1
 264 607 l 1,1,-1
 141 23 l 1,2,-1
 257 23 l 2,3,4
 321 23 321 23 375 63 c 128,-1,5
 429 103 429 103 461.5 163.5 c 0,6,7
 530 291.015384615 530 291.015384615 530 417 c 0,8,9
 530 507 530 507 488.5 557 c 128,-1,10
 447 607 447 607 379 607 c 2,0,-1
143 630 m 1,11,-1
 385 630 l 2,12,13
 485 630 485 630 543 571.5 c 128,-1,14
 601 513 601 513 601 408 c 0,15,16
 601 337 601 337 576.5 265.5 c 128,-1,17
 552 194 552 194 509 134.5 c 128,-1,18
 466 75 466 75 398.5 37.5 c 128,-1,19
 331 0 331 0 252 0 c 2,20,-1
 10 0 l 1,21,-1
 13 18 l 1,22,-1
 59 18 l 2,23,24
 72 18 72 18 75 33 c 0,25,26
 195 601 195 601 195 606.5 c 128,-1,27
 195 612 195 612 184 612 c 2,28,-1
 140 612 l 1,29,-1
 143 630 l 1,11,-1
EndSplineSet
Position2: "'cpsp' Capital Spacing in Latin lookup 1 subtable" dx=0 dy=0 dh=40 dv=0
EndChar

StartChar: B
Encoding: 66 66 47
Width: 530
Flags: HMW
HStem: 0 23<141 256> 321 20<208 277 277 320 204 277> 607 23<264 334 264 264>
VStem: 413 76<170 241.5> 447 42 447 63<472 533>
LayerCount: 2
Fore
SplineSet
140 612 m 1,0,-1
 143 630 l 1,1,-1
 359 630 l 2,2,3
 422 630 422 630 466 597.5 c 128,-1,4
 510 565 510 565 510 509.5 c 0,5,6
 510 454 510 454 472 406.5 c 128,-1,7
 434 359 434 359 376 336 c 1,8,9
 427 326 427 326 458 293 c 128,-1,10
 489 260 489 260 489 210 c 0,11,12
 489 118 489 118 417 59 c 128,-1,13
 345 0 345 0 256 0 c 2,14,-1
 10 0 l 1,15,-1
 13 18 l 1,16,-1
 59 18 l 2,17,18
 72 18 72 18 75 33 c 0,19,20
 195 601 195 601 195 606.5 c 0,21,22
 195 612 195 612 184 612 c 2,23,-1
 140 612 l 1,0,-1
320 321 m 2,24,-1
 204 321 l 1,25,-1
 141 23 l 1,26,-1
 257 23 l 2,27,28
 323 23 323 23 368 83.5 c 128,-1,29
 413 144 413 144 413 212 c 0,30,31
 413 260 413 260 389.5 290.5 c 128,-1,32
 366 321 366 321 320 321 c 2,24,-1
334 607 m 2,33,-1
 264 607 l 1,34,-1
 208 341 l 1,35,-1
 277 341 l 2,36,37
 351 341 351 341 399 393 c 128,-1,38
 447 445 447 445 447 506 c 0,39,40
 447 550 447 550 418.5 578.5 c 128,-1,41
 390 607 390 607 334 607 c 2,33,-1
EndSplineSet
Position2: "'cpsp' Capital Spacing in Latin lookup 1 subtable" dx=0 dy=0 dh=40 dv=0
EndChar

StartChar: K
Encoding: 75 75 48
Width: 568
Flags: HMW
HStem: -12 30 0 21G 610 20G<143 327 327 327 474 603 603 603>
VStem: 334 71<175 193>
LayerCount: 2
Fore
SplineSet
262 598 m 1,0,-1
 142 28 l 1,1,2
 142 18 142 18 153 18 c 2,3,-1
 197 18 l 1,4,-1
 194 0 l 1,5,-1
 10 0 l 1,6,-1
 13 18 l 1,7,-1
 59 18 l 2,8,9
 72 18 72 18 75 33 c 0,10,11
 195 601 195 601 195 606.5 c 0,12,13
 195 612 195 612 184 612 c 2,14,-1
 140 612 l 1,15,-1
 143 630 l 1,16,-1
 327 630 l 1,17,-1
 324 612 l 1,18,-1
 279 612 l 2,19,20
 266 612 266 612 262 598 c 1,0,-1
405 175 m 2,21,-1
 407 83 l 2,22,23
 409 21 409 21 440 21 c 0,24,25
 460 21 460 21 473.5 42 c 128,-1,26
 487 63 487 63 487 96 c 1,27,-1
 506 99 l 1,28,29
 506 48 506 48 479.5 18 c 128,-1,30
 453 -12 453 -12 413 -12 c 0,31,32
 342 -12 342 -12 338 95 c 2,33,-1
 334 193 l 2,34,35
 331 258 331 258 307 283.5 c 128,-1,36
 283 309 283 309 228 309 c 1,37,-1
 233 325 l 1,38,-1
 518 612 l 1,39,-1
 471 612 l 1,40,-1
 474 630 l 1,41,-1
 603 630 l 1,42,-1
 600 612 l 1,43,-1
 574 612 l 2,44,45
 558 612 558 612 545 598 c 2,46,-1
 274 327 l 1,47,48
 346 326 346 326 374.5 285 c 128,-1,49
 403 244 403 244 405 175 c 2,21,-1
EndSplineSet
Position2: "'cpsp' Capital Spacing in Latin lookup 1 subtable" dx=0 dy=0 dh=40 dv=0
EndChar

StartChar: Y
Encoding: 89 89 49
Width: 455
Flags: HMW
HStem: 0 21G<70 298 70 70> 610 20G<64 229 229 229 426 555 555 555>
LayerCount: 2
Fore
SplineSet
247 190 m 1,0,-1
 203 185 l 1,1,-1
 111 598 l 2,2,3
 108 612 108 612 96 612 c 2,4,-1
 61 612 l 1,5,-1
 64 630 l 1,6,-1
 229 630 l 1,7,-1
 226 612 l 1,8,-1
 179 612 l 1,9,-1
 259 257 l 1,10,-1
 470 612 l 1,11,-1
 423 612 l 1,12,-1
 426 630 l 1,13,-1
 555 630 l 1,14,-1
 552 612 l 1,15,-1
 517 612 l 2,16,17
 505 612 505 612 496 598 c 2,18,-1
 247 190 l 1,0,-1
201 242 m 1,19,-1
 265 225 l 1,20,21
 224 31 224 31 224 24.5 c 0,22,23
 224 18 224 18 235 18 c 2,24,-1
 301 18 l 1,25,-1
 298 0 l 1,26,-1
 70 0 l 1,27,-1
 73 18 l 1,28,-1
 141 18 l 2,29,30
 154 18 154 18 157 33 c 2,31,-1
 201 242 l 1,19,-1
EndSplineSet
Position2: "'cpsp' Capital Spacing in Latin lookup 1 subtable" dx=0 dy=0 dh=40 dv=0
EndChar

StartChar: acute
Encoding: 180 180 50
Width: 232
Flags: HMW
HStem: 489 21G<43 43> 619 20G<168 180.5>
LayerCount: 2
Fore
SplineSet
174 566 m 2,0,-1
 43 489 l 1,1,-1
 30 505 l 1,2,-1
 141 625 l 2,3,4
 154 639 154 639 169.5 639 c 0,5,6
 185 639 185 639 193 629.5 c 128,-1,7
 201 620 201 620 201 606 c 0,8,9
 201 581 201 581 174 566 c 2,0,-1
EndSplineSet
EndChar

StartChar: eacute
Encoding: 233 233 52
Width: 397
Flags: HMW
HStem: -12 24<161 214> 203 20<151 211.5> 420 24<217.5 294> 489 21G<223 223> 619 20G<348 360.5>
VStem: 40 66<96 179 93 211> 331 56<328.5 374.5>
LayerCount: 2
Fore
SplineSet
360.5 418.5 m 128,-1,1
 387 393 387 393 387 345.5 c 128,-1,2
 387 298 387 298 350 263 c 0,3,4
 286.571428571 203 286.571428571 203 163 203 c 0,5,6
 126 203 126 203 99 209 c 1,7,-1
 99 228 l 1,8,9
 134 223 134 223 157 223 c 0,10,11
 240 223 240 223 285.5 265 c 128,-1,12
 331 307 331 307 331 357 c 0,13,14
 331 384 331 384 316.5 402 c 128,-1,15
 302 420 302 420 268.5 420 c 128,-1,16
 235 420 235 420 200.5 389 c 128,-1,17
 166 358 166 358 146.5 311.5 c 0,18,19
 106 214.923076923 106 214.923076923 106 144.461538462 c 0,20,21
 106 12 106 12 186 12 c 0,22,23
 285 12 285 12 331 120 c 1,24,-1
 347 116 l 1,25,26
 323 55 323 55 277.5 21.5 c 128,-1,27
 232 -12 232 -12 175 -12 c 128,-1,28
 118 -12 118 -12 79 30 c 128,-1,29
 40 72 40 72 40 143 c 128,-1,30
 40 214 40 214 67 280.5 c 128,-1,31
 94 347 94 347 151 395.5 c 128,-1,32
 208 444 208 444 281 444 c 0,33,0
 334 444 334 444 360.5 418.5 c 128,-1,1
354 566 m 2,34,-1
 223 489 l 1,35,-1
 210 505 l 1,36,-1
 321 625 l 2,37,38
 334 639 334 639 349.5 639 c 128,-1,39
 365 639 365 639 373 629.5 c 128,-1,40
 381 620 381 620 381 606 c 0,41,42
 381 581 381 581 354 566 c 2,34,-1
EndSplineSet
EndChar

StartChar: uacute
Encoding: 250 250 54
Width: 517
Flags: HMW
HStem: -12 30<168 183> 415 20G<201 201 448 448> 489 21G<257 257> 619 20G<382 394.5>
VStem: 73 58<63.5 124.5 63.5 126.5> 311 54<39.5 68.5 39.5 111>
LayerCount: 2
Fore
SplineSet
311 63 m 0,0,1
 311 78 311 78 316 111 c 1,2,-1
 311 111 l 1,3,4
 247 -12 247 -12 163 -12 c 0,5,6
 73 -12 73 -12 73 88 c 0,7,8
 73 152.666666667 73 152.666666667 119 329 c 2,9,-1
 137 398 l 1,10,-1
 73 393 l 1,11,-1
 72 410 l 1,12,13
 141 419 141 419 201 435 c 1,14,-1
 215 425 l 1,15,16
 131 164 131 164 131 91 c 128,-1,17
 131 18 131 18 186 18 c 0,18,19
 232 18 232 18 276.5 85.5 c 128,-1,20
 321 153 321 153 350 267 c 2,21,-1
 384 398 l 1,22,-1
 320 393 l 1,23,-1
 319 410 l 1,24,25
 388 419 388 419 448 435 c 1,26,-1
 462 425 l 1,27,28
 427 321 427 321 396 202 c 128,-1,29
 365 83 365 83 365 49.5 c 128,-1,30
 365 16 365 16 390 16 c 0,31,32
 409 16 409 16 431 41.5 c 128,-1,33
 453 67 453 67 469 114 c 1,34,-1
 485 110 l 1,35,36
 442 -12 442 -12 373 -12 c 0,37,38
 311 -12 311 -12 311 63 c 0,0,1
388 566 m 2,39,-1
 257 489 l 1,40,-1
 244 505 l 1,41,-1
 355 625 l 2,42,43
 368 639 368 639 383.5 639 c 128,-1,44
 399 639 399 639 407 629.5 c 128,-1,45
 415 620 415 620 415 606 c 0,46,47
 415 581 415 581 388 566 c 2,39,-1
EndSplineSet
EndChar

StartChar: dotlessi
Encoding: 305 305 55
Width: 276
Flags: HMW
HStem: -12 21G<111 152> 415 20G<207 207>
VStem: 70 54<39.5 71.5 39.5 89>
LayerCount: 2
Fore
SplineSet
70 63 m 0,0,1
 70 116 70 116 143 398 c 1,2,-1
 79 393 l 1,3,-1
 78 410 l 1,4,5
 147 419 147 419 207 435 c 1,6,-1
 221 425 l 1,7,8
 186 321 186 321 155 202 c 128,-1,9
 124 83 124 83 124 49.5 c 0,10,11
 124 16 124 16 149 16 c 0,12,13
 168 16 168 16 190 41.5 c 128,-1,14
 212 67 212 67 228 114 c 1,15,-1
 244 110 l 1,16,17
 201 -12 201 -12 132 -12 c 0,18,19
 70 -12 70 -12 70 63 c 0,0,1
EndSplineSet
EndChar

StartChar: dieresis
Encoding: 168 168 57
Width: 310
Flags: HMW
HStem: 531 21G<62.5 87.5 222.5 247.5> 601 20G<62.5 87.5 222.5 247.5>
LayerCount: 2
Fore
SplineSet
30 576 m 128,-1,1
 30 595 30 595 43 608 c 128,-1,2
 56 621 56 621 75 621 c 128,-1,3
 94 621 94 621 107 608 c 128,-1,4
 120 595 120 595 120 576 c 128,-1,5
 120 557 120 557 107 544 c 128,-1,6
 94 531 94 531 75 531 c 128,-1,7
 56 531 56 531 43 544 c 128,-1,0
 30 557 30 557 30 576 c 128,-1,1
190 576 m 128,-1,9
 190 595 190 595 203 608 c 128,-1,10
 216 621 216 621 235 621 c 128,-1,11
 254 621 254 621 267 608 c 128,-1,12
 280 595 280 595 280 576 c 128,-1,13
 280 557 280 557 267 544 c 128,-1,14
 254 531 254 531 235 531 c 128,-1,15
 216 531 216 531 203 544 c 128,-1,8
 190 557 190 557 190 576 c 128,-1,9
EndSplineSet
EndChar

StartChar: udieresis
Encoding: 252 252 59
Width: 517
Flags: HMW
HStem: -12 30<168 183> 415 20G<201 201 448 448> 531 21G<239.5 264.5 399.5 424.5> 601 20G<239.5 264.5 399.5 424.5>
VStem: 73 58<63.5 124.5 63.5 126.5> 311 54<39.5 68.5 39.5 111>
LayerCount: 2
Fore
SplineSet
311 63 m 0,0,1
 311 78 311 78 316 111 c 1,2,-1
 311 111 l 1,3,4
 247 -12 247 -12 163 -12 c 0,5,6
 73 -12 73 -12 73 88 c 0,7,8
 73 152.666666667 73 152.666666667 119 329 c 2,9,-1
 137 398 l 1,10,-1
 73 393 l 1,11,-1
 72 410 l 1,12,13
 141 419 141 419 201 435 c 1,14,-1
 215 425 l 1,15,16
 131 164 131 164 131 91 c 128,-1,17
 131 18 131 18 186 18 c 0,18,19
 232 18 232 18 276.5 85.5 c 128,-1,20
 321 153 321 153 350 267 c 2,21,-1
 384 398 l 1,22,-1
 320 393 l 1,23,-1
 319 410 l 1,24,25
 388 419 388 419 448 435 c 1,26,-1
 462 425 l 1,27,28
 427 321 427 321 396 202 c 128,-1,29
 365 83 365 83 365 49.5 c 128,-1,30
 365 16 365 16 390 16 c 0,31,32
 409 16 409 16 431 41.5 c 128,-1,33
 453 67 453 67 469 114 c 1,34,-1
 485 110 l 1,35,36
 442 -12 442 -12 373 -12 c 0,37,38
 311 -12 311 -12 311 63 c 0,0,1
207 576 m 128,-1,40
 207 595 207 595 220 608 c 128,-1,41
 233 621 233 621 252 621 c 128,-1,42
 271 621 271 621 284 608 c 128,-1,43
 297 595 297 595 297 576 c 128,-1,44
 297 557 297 557 284 544 c 128,-1,45
 271 531 271 531 252 531 c 128,-1,46
 233 531 233 531 220 544 c 128,-1,39
 207 557 207 557 207 576 c 128,-1,40
367 576 m 128,-1,48
 367 595 367 595 380 608 c 128,-1,49
 393 621 393 621 412 621 c 128,-1,50
 431 621 431 621 444 608 c 128,-1,51
 457 595 457 595 457 576 c 128,-1,52
 457 557 457 557 444 544 c 128,-1,53
 431 531 431 531 412 531 c 128,-1,54
 393 531 393 531 380 544 c 128,-1,47
 367 557 367 557 367 576 c 128,-1,48
EndSplineSet
EndChar

StartChar: edieresis
Encoding: 235 235 61
Width: 397
Flags: HMW
HStem: -12 24<161 214> 203 20<151 211.5> 420 24<217.5 294> 531 21G<205.5 230.5 365.5 390.5> 601 20G<205.5 230.5 365.5 390.5>
VStem: 40 66<96 179 93 211> 331 56<328.5 374.5>
LayerCount: 2
Fore
SplineSet
360.5 418.5 m 128,-1,1
 387 393 387 393 387 345.5 c 128,-1,2
 387 298 387 298 350 263 c 0,3,4
 286.571428571 203 286.571428571 203 163 203 c 0,5,6
 126 203 126 203 99 209 c 1,7,-1
 99 228 l 1,8,9
 134 223 134 223 157 223 c 0,10,11
 240 223 240 223 285.5 265 c 128,-1,12
 331 307 331 307 331 357 c 0,13,14
 331 384 331 384 316.5 402 c 128,-1,15
 302 420 302 420 268.5 420 c 128,-1,16
 235 420 235 420 200.5 389 c 128,-1,17
 166 358 166 358 146.5 311.5 c 0,18,19
 106 214.923076923 106 214.923076923 106 144.461538462 c 0,20,21
 106 12 106 12 186 12 c 0,22,23
 285 12 285 12 331 120 c 1,24,-1
 347 116 l 1,25,26
 323 55 323 55 277.5 21.5 c 128,-1,27
 232 -12 232 -12 175 -12 c 128,-1,28
 118 -12 118 -12 79 30 c 128,-1,29
 40 72 40 72 40 143 c 128,-1,30
 40 214 40 214 67 280.5 c 128,-1,31
 94 347 94 347 151 395.5 c 128,-1,32
 208 444 208 444 281 444 c 0,33,0
 334 444 334 444 360.5 418.5 c 128,-1,1
173 576 m 128,-1,35
 173 595 173 595 186 608 c 128,-1,36
 199 621 199 621 218 621 c 128,-1,37
 237 621 237 621 250 608 c 128,-1,38
 263 595 263 595 263 576 c 128,-1,39
 263 557 263 557 250 544 c 128,-1,40
 237 531 237 531 218 531 c 128,-1,41
 199 531 199 531 186 544 c 128,-1,34
 173 557 173 557 173 576 c 128,-1,35
333 576 m 128,-1,43
 333 595 333 595 346 608 c 128,-1,44
 359 621 359 621 378 621 c 128,-1,45
 397 621 397 621 410 608 c 128,-1,46
 423 595 423 595 423 576 c 128,-1,47
 423 557 423 557 410 544 c 128,-1,48
 397 531 397 531 378 531 c 128,-1,49
 359 531 359 531 346 544 c 128,-1,42
 333 557 333 557 333 576 c 128,-1,43
EndSplineSet
EndChar

StartChar: grave
Encoding: 96 96 63
Width: 232
Flags: HMW
HStem: 489 21G<189 189> 619 20G<51.5 64>
LayerCount: 2
Fore
SplineSet
189 489 m 1,0,-1
 58 566 l 2,1,2
 31 581 31 581 31 606 c 0,3,4
 31 620 31 620 39 629.5 c 128,-1,5
 47 639 47 639 62.5 639 c 0,6,7
 78 639 78 639 91 625 c 2,8,-1
 202 505 l 1,9,-1
 189 489 l 1,0,-1
EndSplineSet
EndChar

StartChar: agrave
Encoding: 224 224 64
Width: 500
Flags: HMW
HStem: -12 28<364.5 376> 420 24<219.5 297> 489 21G<371 371> 619 20G<233.5 246>
VStem: 40 66<93.5 178.5 91.5 207> 294 54<39.5 68.5 39.5 111>
LayerCount: 2
Fore
SplineSet
379 202 m 128,-1,1
 348 83 348 83 348 49.5 c 128,-1,2
 348 16 348 16 373 16 c 0,3,4
 392 16 392 16 414 41.5 c 128,-1,5
 436 67 436 67 452 114 c 1,6,-1
 468 110 l 1,7,8
 425 -12 425 -12 356 -12 c 0,9,10
 294 -12 294 -12 294 63 c 0,11,12
 294 78 294 78 299 111 c 1,13,-1
 294 111 l 1,14,15
 232 -12 232 -12 150 -12 c 0,16,17
 103 -12 103 -12 71.5 29.5 c 128,-1,18
 40 71 40 71 40 131.5 c 128,-1,19
 40 192 40 192 56 244 c 128,-1,20
 72 296 72 296 101 341.5 c 128,-1,21
 130 387 130 387 178 415.5 c 128,-1,22
 226 444 226 444 283 444 c 0,23,24
 357 444 357 444 400 381 c 1,25,-1
 431 435 l 1,26,-1
 445 425 l 1,27,0
 410 321 410 321 379 202 c 128,-1,1
174 18 m 0,28,29
 216 18 216 18 259 83 c 0,30,31
 308.424144311 157.710915819 308.424144311 157.710915819 349.5 328.5 c 0,32,33
 359 368 359 368 364 386 c 1,34,35
 329 420 329 420 283.5 420 c 128,-1,36
 238 420 238 420 202.5 389 c 128,-1,37
 167 358 167 358 147 311 c 0,38,39
 106 214.65 106 214.65 106 130 c 0,40,41
 106 74 106 74 124.5 46 c 128,-1,42
 143 18 143 18 174 18 c 0,28,29
371 489 m 1,43,-1
 240 566 l 2,44,45
 213 581 213 581 213 606 c 0,46,47
 213 620 213 620 221 629.5 c 128,-1,48
 229 639 229 639 244.5 639 c 128,-1,49
 260 639 260 639 273 625 c 2,50,-1
 384 505 l 1,51,-1
 371 489 l 1,43,-1
EndSplineSet
EndChar

StartChar: igrave
Encoding: 236 236 66
Width: 276
Flags: HMW
HStem: -12 21G<111 152> 415 20G<207 207> 489 21G<263 263> 619 20G<125.5 138>
VStem: 70 54<39.5 71.5 39.5 89>
LayerCount: 2
Fore
SplineSet
70 63 m 0,0,1
 70 116 70 116 143 398 c 1,2,-1
 79 393 l 1,3,-1
 78 410 l 1,4,5
 147 419 147 419 207 435 c 1,6,-1
 221 425 l 1,7,8
 186 321 186 321 155 202 c 128,-1,9
 124 83 124 83 124 49.5 c 0,10,11
 124 16 124 16 149 16 c 0,12,13
 168 16 168 16 190 41.5 c 128,-1,14
 212 67 212 67 228 114 c 1,15,-1
 244 110 l 1,16,17
 201 -12 201 -12 132 -12 c 0,18,19
 70 -12 70 -12 70 63 c 0,0,1
263 489 m 1,20,-1
 132 566 l 2,21,22
 105 581 105 581 105 606 c 0,23,24
 105 620 105 620 113 629.5 c 128,-1,25
 121 639 121 639 136.5 639 c 0,26,27
 152 639 152 639 165 625 c 2,28,-1
 276 505 l 1,29,-1
 263 489 l 1,20,-1
EndSplineSet
EndChar

StartChar: ugrave
Encoding: 249 249 68
Width: 517
Flags: HMW
HStem: -12 30<168 183> 415 20G<201 201 448 448> 489 21G<376 376> 619 20G<238.5 251>
VStem: 73 58<63.5 124.5 63.5 126.5> 311 54<39.5 68.5 39.5 111>
LayerCount: 2
Fore
SplineSet
311 63 m 0,0,1
 311 78 311 78 316 111 c 1,2,-1
 311 111 l 1,3,4
 247 -12 247 -12 163 -12 c 0,5,6
 73 -12 73 -12 73 88 c 0,7,8
 73 152.666666667 73 152.666666667 119 329 c 2,9,-1
 137 398 l 1,10,-1
 73 393 l 1,11,-1
 72 410 l 1,12,13
 141 419 141 419 201 435 c 1,14,-1
 215 425 l 1,15,16
 131 164 131 164 131 91 c 128,-1,17
 131 18 131 18 186 18 c 0,18,19
 232 18 232 18 276.5 85.5 c 128,-1,20
 321 153 321 153 350 267 c 2,21,-1
 384 398 l 1,22,-1
 320 393 l 1,23,-1
 319 410 l 1,24,25
 388 419 388 419 448 435 c 1,26,-1
 462 425 l 1,27,28
 427 321 427 321 396 202 c 128,-1,29
 365 83 365 83 365 49.5 c 128,-1,30
 365 16 365 16 390 16 c 0,31,32
 409 16 409 16 431 41.5 c 128,-1,33
 453 67 453 67 469 114 c 1,34,-1
 485 110 l 1,35,36
 442 -12 442 -12 373 -12 c 0,37,38
 311 -12 311 -12 311 63 c 0,0,1
376 489 m 1,39,-1
 245 566 l 2,40,41
 218 581 218 581 218 606 c 0,42,43
 218 620 218 620 226 629.5 c 128,-1,44
 234 639 234 639 249.5 639 c 128,-1,45
 265 639 265 639 278 625 c 2,46,-1
 389 505 l 1,47,-1
 376 489 l 1,39,-1
EndSplineSet
EndChar

StartChar: X
Encoding: 88 88 69
Width: 488
Flags: HMW
HStem: 0 21G<-55 75 -55 -55 287 287 287 453> 610 20G<87 254 254 254 448 578 578 578>
LayerCount: 2
Fore
SplineSet
337 18 m 1,0,-1
 245 280 l 1,1,-1
 31 18 l 1,2,-1
 78 18 l 1,3,-1
 75 0 l 1,4,-1
 -55 0 l 1,5,-1
 -52 18 l 1,6,-1
 -17 18 l 2,7,8
 -8 18 -8 18 4 32 c 2,9,-1
 234 312 l 1,10,-1
 135 598 l 2,11,12
 130 612 130 612 120 612 c 2,13,-1
 84 612 l 1,14,-1
 87 630 l 1,15,-1
 254 630 l 1,16,-1
 251 612 l 1,17,-1
 203 612 l 1,18,-1
 289 365 l 1,19,-1
 492 612 l 1,20,-1
 445 612 l 1,21,-1
 448 630 l 1,22,-1
 578 630 l 1,23,-1
 575 612 l 1,24,-1
 540 612 l 2,25,26
 529 612 529 612 519 600 c 2,27,-1
 300 334 l 1,28,-1
 406 32 l 2,29,30
 411 18 411 18 421 18 c 2,31,-1
 456 18 l 1,32,-1
 453 0 l 1,33,-1
 287 0 l 1,34,-1
 290 18 l 1,35,-1
 337 18 l 1,0,-1
EndSplineSet
Position2: "'cpsp' Capital Spacing in Latin lookup 1 subtable" dx=0 dy=0 dh=40 dv=0
EndChar

StartChar: Z
Encoding: 90 90 70
Width: 546
Flags: HMW
HStem: -9 21G 0 28<0 5 5 5 96 327> 602 28<259 470 560 560> 619 20G
LayerCount: 2
Fore
SplineSet
0 0 m 1,0,-1
 5 28 l 1,1,-1
 470 602 l 1,2,-1
 219 602 l 2,3,4
 195 602 195 602 188 580 c 2,5,-1
 149 463 l 1,6,-1
 127 463 l 1,7,-1
 137 510 l 2,8,9
 155 592 155 592 155 639 c 1,10,11
 186 630 186 630 259 630 c 2,12,-1
 566 630 l 1,13,-1
 560 602 l 1,14,-1
 96 28 l 1,15,-1
 366 28 l 2,16,17
 391 28 391 28 398 50 c 2,18,-1
 437 167 l 1,19,-1
 459 167 l 1,20,-1
 449 120 l 2,21,22
 431 38 431 38 431 -9 c 1,23,24
 402 0 402 0 327 0 c 2,25,-1
 0 0 l 1,0,-1
EndSplineSet
Position2: "'cpsp' Capital Spacing in Latin lookup 1 subtable" dx=0 dy=0 dh=40 dv=0
EndChar

StartChar: slash
Encoding: 47 47 71
Width: 319
Flags: HMW
HStem: -74 21G<18 51 18 18> 628 20G<267 301 301 301>
LayerCount: 2
Fore
SplineSet
51 -74 m 1,0,-1
 18 -74 l 1,1,-1
 267 648 l 1,2,-1
 301 648 l 1,3,-1
 51 -74 l 1,0,-1
EndSplineSet
EndChar

StartChar: Oslash
Encoding: 216 216 73
Width: 627
Flags: HMW
HStem: -80 23 -12 26<222.5 359.5 222.5 377.5> 616 26<306.5 443> 692 22
VStem: 50 70<144 281 144 310.5> 547 70<348.5 485>
LayerCount: 2
Fore
SplineSet
280.5 616 m 0,0,1
 338 642 338 642 403 642 c 0,2,3
 502 642 502 642 559.5 582.5 c 128,-1,4
 617 523 617 523 617 415 c 0,5,6
 617 342 617 342 593 267.5 c 128,-1,7
 569 193 569 193 526 130 c 128,-1,8
 483 67 483 67 414 27.5 c 128,-1,9
 345 -12 345 -12 255 -12 c 128,-1,10
 165 -12 165 -12 107.5 48 c 128,-1,11
 50 108 50 108 50 222.25 c 128,-1,12
 50 336.5 50 336.5 112.695178849 452.486080871 c 128,-1,13
 175.390357698 568.472161742 175.390357698 568.472161742 280.5 616 c 0,0,1
400 616 m 128,-1,15
 334 616 334 616 278 573.5 c 128,-1,16
 222 531 222 531 189 466.5 c 0,17,18
 120 331.636363636 120 331.636363636 120 206 c 0,19,20
 120 115 120 115 159.5 64.5 c 128,-1,21
 199 14 199 14 265.5 14 c 128,-1,22
 332 14 332 14 388 56.5 c 128,-1,23
 444 99 444 99 477.5 163 c 0,24,25
 547 295.776119403 547 295.776119403 547 423 c 0,26,27
 547 514 547 514 506.5 565 c 128,-1,14
 466 616 466 616 400 616 c 128,-1,15
225 -80 m 1,28,-1
 192 -80 l 1,29,-1
 441 714 l 1,30,-1
 475 714 l 1,31,-1
 225 -80 l 1,28,-1
EndSplineSet
EndChar

StartChar: circumflex
Encoding: 710 710 74
Width: 258
Flags: HMW
HStem: 489 21G<43 43 215 215> 619 20G<147.5 161>
LayerCount: 2
Fore
SplineSet
215 489 m 1,0,-1
 145 574 l 1,1,-1
 43 489 l 1,2,-1
 30 505 l 1,3,-1
 115 617 l 1,4,5
 133 639 133 639 155.5 639 c 0,6,7
 178 639 178 639 187 616 c 2,8,-1
 231 498 l 1,9,-1
 215 489 l 1,0,-1
EndSplineSet
EndChar

StartChar: ecircumflex
Encoding: 234 234 76
Width: 397
Flags: HMW
HStem: -12 24<161 214> 203 20<151 211.5> 420 24<217.5 294> 489 21G<195 195 367 367> 619 20G<299.5 313>
VStem: 40 66<96 179 93 211> 331 56<328.5 374.5>
LayerCount: 2
Fore
SplineSet
360.5 418.5 m 128,-1,1
 387 393 387 393 387 345.5 c 128,-1,2
 387 298 387 298 350 263 c 0,3,4
 286.571428571 203 286.571428571 203 163 203 c 0,5,6
 126 203 126 203 99 209 c 1,7,-1
 99 228 l 1,8,9
 134 223 134 223 157 223 c 0,10,11
 240 223 240 223 285.5 265 c 128,-1,12
 331 307 331 307 331 357 c 0,13,14
 331 384 331 384 316.5 402 c 128,-1,15
 302 420 302 420 268.5 420 c 128,-1,16
 235 420 235 420 200.5 389 c 128,-1,17
 166 358 166 358 146.5 311.5 c 0,18,19
 106 214.923076923 106 214.923076923 106 144.461538462 c 0,20,21
 106 12 106 12 186 12 c 0,22,23
 285 12 285 12 331 120 c 1,24,-1
 347 116 l 1,25,26
 323 55 323 55 277.5 21.5 c 128,-1,27
 232 -12 232 -12 175 -12 c 128,-1,28
 118 -12 118 -12 79 30 c 128,-1,29
 40 72 40 72 40 143 c 128,-1,30
 40 214 40 214 67 280.5 c 128,-1,31
 94 347 94 347 151 395.5 c 128,-1,32
 208 444 208 444 281 444 c 0,33,0
 334 444 334 444 360.5 418.5 c 128,-1,1
367 489 m 1,34,-1
 297 574 l 1,35,-1
 195 489 l 1,36,-1
 182 505 l 1,37,-1
 267 617 l 1,38,39
 285 639 285 639 307.5 639 c 128,-1,40
 330 639 330 639 339 616 c 2,41,-1
 383 498 l 1,42,-1
 367 489 l 1,34,-1
EndSplineSet
EndChar

StartChar: ocircumflex
Encoding: 244 244 78
Width: 460
Flags: HMW
HStem: -12 22<161 244.5 161 260> 422 22<216.5 300> 489 21G<216 216 388 388> 619 20G<320.5 334>
VStem: 40 63<94.5 180.5 94 209.5> 357 63<253.5 338 223.5 339>
LayerCount: 2
Fore
SplineSet
40 145 m 0,0,1
 40 248.035087719 40 248.035087719 100.5 342.5 c 0,2,3
 129 387 129 387 176 415.5 c 128,-1,4
 223 444 223 444 283.5 444 c 128,-1,5
 344 444 344 444 382 403 c 128,-1,6
 420 362 420 362 420 291 c 128,-1,7
 420 220 420 220 394 153 c 128,-1,8
 368 86 368 86 312 37 c 128,-1,9
 256 -12 256 -12 186 -12 c 128,-1,10
 116 -12 116 -12 78 29 c 128,-1,11
 40 70 40 70 40 145 c 0,0,1
275 422 m 0,12,13
 221 422 221 422 179.5 368 c 128,-1,14
 138 314 138 314 120.5 250 c 128,-1,15
 103 186 103 186 103 130.5 c 128,-1,16
 103 75 103 75 125.5 42.5 c 128,-1,17
 148 10 148 10 187.5 10 c 128,-1,18
 227 10 227 10 261.5 42 c 128,-1,19
 296 74 296 74 316 121 c 0,20,21
 357 217.35 357 217.35 357 287.675 c 128,-1,22
 357 358 357 358 335 390 c 128,-1,23
 313 422 313 422 275 422 c 0,12,13
388 489 m 1,24,-1
 318 574 l 1,25,-1
 216 489 l 1,26,-1
 203 505 l 1,27,-1
 288 617 l 1,28,29
 306 639 306 639 328.5 639 c 128,-1,30
 351 639 351 639 360 616 c 2,31,-1
 404 498 l 1,32,-1
 388 489 l 1,24,-1
EndSplineSet
EndChar

StartChar: tilde
Encoding: 732 732 80
Width: 320
Flags: HMW
HStem: 508 21G<47 47> 530 58<195.5 216> 553 35 553 58<103 123> 614 20G<272 272>
LayerCount: 2
Fore
SplineSet
272 634 m 1,0,-1
 290 627 l 1,1,2
 268 572 268 572 246.5 551 c 128,-1,3
 225 530 225 530 206 530 c 0,4,5
 187 530 187 530 155 541.5 c 128,-1,6
 123 553 123 553 105.5 553 c 0,7,8
 88 553 88 553 76 544 c 128,-1,9
 64 535 64 535 47 508 c 1,10,-1
 30 515 l 1,11,12
 67 611 67 611 117 611 c 0,13,14
 131 611 131 611 163 599.5 c 128,-1,15
 195 588 195 588 213 588 c 128,-1,16
 231 588 231 588 243 597.5 c 128,-1,17
 255 607 255 607 272 634 c 1,0,-1
EndSplineSet
EndChar

StartChar: Q
Encoding: 81 81 82
Width: 627
Flags: HMW
HStem: -198 59<308 341> -116 26<180 181.5> -11 25<209.5 257.5> 616 26<306.5 443>
VStem: 50 70<158 281 158 310.5> 547 70<247.5 485>
LayerCount: 2
Fore
SplineSet
338 27 m 1,0,-1
 344 9 l 1,1,2
 290 -11 290 -11 242 -11 c 0,3,4
 152 -11 152 -11 101 54 c 128,-1,5
 50 119 50 119 50 216 c 0,6,7
 50 336.5 50 336.5 110 447.5 c 0,8,9
 175.390357698 568.472161742 175.390357698 568.472161742 280.5 616 c 0,10,11
 338 642 338 642 403 642 c 0,12,13
 502 642 502 642 559.5 582.5 c 128,-1,14
 617 523 617 523 617 421 c 128,-1,15
 617 319 617 319 588.5 235 c 128,-1,16
 560 151 560 151 513.5 93.5 c 128,-1,17
 467 36 467 36 409 -5 c 0,18,19
 295.829268293 -85 295.829268293 -85 180 -85 c 1,20,-1
 180 -90 l 1,21,22
 209 -90 209 -90 258.5 -114.5 c 128,-1,23
 308 -139 308 -139 338 -139 c 0,24,25
 403 -139 403 -139 462 -43 c 1,26,-1
 474 -49 l 1,27,28
 395 -198 395 -198 319 -198 c 0,29,30
 281 -198 281 -198 230.5 -157 c 128,-1,31
 180 -116 180 -116 153.5 -116 c 128,-1,32
 127 -116 127 -116 108.5 -131.5 c 128,-1,33
 90 -147 90 -147 70 -184 c 1,34,-1
 58 -179 l 1,35,36
 86.1528525296 -97.6695371367 86.1528525296 -97.6695371367 129.5 -76.5 c 0,37,38
 151 -66 151 -66 186.5 -62.5 c 128,-1,39
 222 -59 222 -59 262 -47.5 c 128,-1,40
 302 -36 302 -36 356.5 -3 c 128,-1,41
 411 30 411 30 450.5 79.5 c 128,-1,42
 490 129 490 129 518.5 218.5 c 128,-1,43
 547 308 547 308 547 411 c 128,-1,44
 547 514 547 514 506.5 565 c 128,-1,45
 466 616 466 616 400 616 c 128,-1,46
 334 616 334 616 278 573.5 c 128,-1,47
 222 531 222 531 189 466.5 c 0,48,49
 120 331.636363636 120 331.636363636 120 206 c 0,50,51
 120 124 120 124 154.5 69 c 128,-1,52
 189 14 189 14 263 14 c 0,53,54
 298 14 298 14 338 27 c 1,0,-1
EndSplineSet
Position2: "'cpsp' Capital Spacing in Latin lookup 1 subtable" dx=0 dy=0 dh=40 dv=0
EndChar

StartChar: J
Encoding: 74 74 83
Width: 297
Flags: HMW
HStem: -159 24<-31 -4.5 -31 13.5> -12 21G<-81 -57.5> 610 20G<143 327 327 327>
LayerCount: 2
Fore
SplineSet
58 -45 m 2,0,-1
 195 604 l 1,1,2
 195 612 195 612 184 612 c 2,3,-1
 140 612 l 1,4,-1
 143 630 l 1,5,-1
 327 630 l 1,6,-1
 324 612 l 1,7,-1
 279 612 l 2,8,9
 266 612 266 612 262 598 c 1,10,-1
 162 127 l 2,11,12
 101 -159 101 -159 -33 -159 c 0,13,14
 -77 -159 -77 -159 -96.5 -139.5 c 128,-1,15
 -116 -120 -116 -120 -116 -90.5 c 0,16,17
 -116 -61 -116 -61 -101.5 -36.5 c 128,-1,18
 -87 -12 -87 -12 -61.5 -12 c 0,19,20
 -36 -12 -36 -12 -24 -27 c 1,21,22
 -53 -69 -53 -69 -53 -102 c 0,23,24
 -53 -116 -53 -116 -44.5 -125.5 c 128,-1,25
 -36 -135 -36 -135 -15.5 -135 c 0,26,27
 5 -135 5 -135 26.5 -113 c 128,-1,28
 48 -91 48 -91 58 -45 c 2,0,-1
EndSplineSet
Position2: "'cpsp' Capital Spacing in Latin lookup 1 subtable" dx=0 dy=0 dh=40 dv=0
EndChar

StartChar: atilde
Encoding: 227 227 84
Width: 500
Flags: HMW
HStem: -12 28<364.5 376> 420 24<219.5 297> 508 21G<207 207> 530 58<355.5 376> 553 35 553 58<263 283> 614 20G<432 432>
VStem: 40 66<93.5 178.5 91.5 207> 294 54<39.5 68.5 39.5 111>
LayerCount: 2
Fore
SplineSet
379 202 m 128,-1,1
 348 83 348 83 348 49.5 c 128,-1,2
 348 16 348 16 373 16 c 0,3,4
 392 16 392 16 414 41.5 c 128,-1,5
 436 67 436 67 452 114 c 1,6,-1
 468 110 l 1,7,8
 425 -12 425 -12 356 -12 c 0,9,10
 294 -12 294 -12 294 63 c 0,11,12
 294 78 294 78 299 111 c 1,13,-1
 294 111 l 1,14,15
 232 -12 232 -12 150 -12 c 0,16,17
 103 -12 103 -12 71.5 29.5 c 128,-1,18
 40 71 40 71 40 131.5 c 128,-1,19
 40 192 40 192 56 244 c 128,-1,20
 72 296 72 296 101 341.5 c 128,-1,21
 130 387 130 387 178 415.5 c 128,-1,22
 226 444 226 444 283 444 c 0,23,24
 357 444 357 444 400 381 c 1,25,-1
 431 435 l 1,26,-1
 445 425 l 1,27,0
 410 321 410 321 379 202 c 128,-1,1
174 18 m 0,28,29
 216 18 216 18 259 83 c 0,30,31
 308.424144311 157.710915819 308.424144311 157.710915819 349.5 328.5 c 0,32,33
 359 368 359 368 364 386 c 1,34,35
 329 420 329 420 283.5 420 c 128,-1,36
 238 420 238 420 202.5 389 c 128,-1,37
 167 358 167 358 147 311 c 0,38,39
 106 214.65 106 214.65 106 130 c 0,40,41
 106 74 106 74 124.5 46 c 128,-1,42
 143 18 143 18 174 18 c 0,28,29
432 634 m 1,43,-1
 450 627 l 1,44,45
 428 572 428 572 406.5 551 c 128,-1,46
 385 530 385 530 366 530 c 128,-1,47
 347 530 347 530 315 541.5 c 128,-1,48
 283 553 283 553 265.5 553 c 128,-1,49
 248 553 248 553 236 544 c 128,-1,50
 224 535 224 535 207 508 c 1,51,-1
 190 515 l 1,52,53
 227 611 227 611 277 611 c 0,54,55
 291 611 291 611 323 599.5 c 128,-1,56
 355 588 355 588 373 588 c 128,-1,57
 391 588 391 588 403 597.5 c 128,-1,58
 415 607 415 607 432 634 c 1,43,-1
EndSplineSet
EndChar

StartChar: one
Encoding: 49 49 86
Width: 307
Flags: HMW
HStem: 0 21G<-50 249 -50 -50 74 74 74 145> 559 20G
LayerCount: 2
Fore
SplineSet
178 491 m 1,0,-1
 179 500 l 1,1,2
 179 516 179 516 155 516 c 1,3,-1
 48 510 l 1,4,-1
 51 534 l 1,5,-1
 141 547 l 2,6,7
 226 560 226 560 277 579 c 1,8,9
 259 541 259 541 243 465 c 2,10,-1
 145 0 l 1,11,-1
 74 0 l 1,12,-1
 178 491 l 1,0,-1
152 33 m 1,13,-1
 151 29 l 1,14,15
 151 19 151 19 163 19 c 2,16,-1
 253 19 l 1,17,-1
 249 0 l 1,18,-1
 -50 0 l 1,19,-1
 -46 19 l 1,20,-1
 65 19 l 2,21,22
 78 19 78 19 81 33 c 1,23,-1
 152 33 l 1,13,-1
EndSplineSet
EndChar

StartChar: zero
Encoding: 48 48 87
Width: 499
Flags: HMW
HStem: -12 21<186 259.5 186 298.5> 557 22<278 351.5>
VStem: 60 71<114 236 108 245.5> 409 70<326 451 318 456>
LayerCount: 2
Fore
SplineSet
60 174 m 0,0,1
 60 293.333333333 60 293.333333333 126.5 429.5 c 0,2,3
 158 494 158 494 212.5 536.5 c 128,-1,4
 267 579 267 579 333.5 579 c 128,-1,5
 400 579 400 579 439.5 529.5 c 128,-1,6
 479 480 479 480 479 390 c 0,7,8
 479 291.866666667 479 291.866666667 435.5 186.5 c 0,9,10
 385.285562067 64.8694725626 385.285562067 64.8694725626 305 16 c 0,11,12
 259 -12 259 -12 198.5 -12 c 128,-1,13
 138 -12 138 -12 99 36.5 c 128,-1,14
 60 85 60 85 60 174 c 0,0,1
327 557 m 0,15,16
 280 557 280 557 233.5 490.5 c 128,-1,17
 187 424 187 424 159 330 c 128,-1,18
 131 236 131 236 131 160.5 c 128,-1,19
 131 85 131 85 152 47 c 128,-1,20
 173 9 173 9 210 9 c 0,21,22
 257 9 257 9 304.5 74.5 c 128,-1,23
 352 140 352 140 380.5 233 c 128,-1,24
 409 326 409 326 409 402.5 c 128,-1,25
 409 479 409 479 386.5 518 c 128,-1,26
 364 557 364 557 327 557 c 0,15,16
EndSplineSet
EndChar

StartChar: exclam
Encoding: 33 33 88
Width: 260
Flags: HMW
HStem: -12 21G<80 106> 622 20G<209 234>
LayerCount: 2
Fore
SplineSet
130 170 m 1,0,-1
 106 170 l 1,1,2
 149 465 149 465 165 583 c 0,3,4
 169 610 169 610 185.5 626 c 128,-1,5
 202 642 202 642 223 642 c 0,6,7
 257 642 257 642 257 605 c 0,8,9
 257 584 257 584 235 513.5 c 128,-1,10
 213 443 213 443 180 340.5 c 128,-1,11
 147 238 147 238 130 170 c 1,0,-1
45 36 m 128,-1,13
 45 56 45 56 59.5 70 c 128,-1,14
 74 84 74 84 93 84 c 128,-1,15
 112 84 112 84 126.5 70 c 128,-1,16
 141 56 141 56 141 36 c 128,-1,17
 141 16 141 16 126.5 2 c 128,-1,18
 112 -12 112 -12 93 -12 c 128,-1,19
 74 -12 74 -12 59.5 2 c 128,-1,12
 45 16 45 16 45 36 c 128,-1,13
EndSplineSet
EndChar

StartChar: three
Encoding: 51 51 89
Width: 457
Flags: HMW
HStem: -12 21<129 201.5 129 223> 557 22<236 289>
VStem: 20 63<57 82.5 53.5 104.5> 313 74<139.5 215> 337 70<446.5 501.5>
LayerCount: 2
Fore
SplineSet
124 282 m 1,0,-1
 124 301 l 1,1,2
 213 307 213 307 275 362 c 128,-1,3
 337 417 337 417 337 480 c 0,4,5
 337 514 337 514 318.5 535.5 c 128,-1,6
 300 557 300 557 261.5 557 c 128,-1,7
 223 557 223 557 198 528 c 128,-1,8
 173 499 173 499 173 466.5 c 128,-1,9
 173 434 173 434 178 423 c 1,10,11
 160 408 160 408 130 408 c 0,12,13
 105 408 105 408 105 443 c 0,14,15
 105 508 105 508 154.5 543.5 c 128,-1,16
 204 579 204 579 264 579 c 128,-1,17
 324 579 324 579 365.5 552 c 128,-1,18
 407 525 407 525 407 476 c 128,-1,19
 407 427 407 427 364.5 377.5 c 128,-1,20
 322 328 322 328 247 307 c 1,21,22
 314 299 314 299 350.5 266 c 128,-1,23
 387 233 387 233 387 187 c 0,24,25
 387 111 387 111 320.5 49.5 c 128,-1,26
 254 -12 254 -12 149 -12 c 0,27,28
 86 -12 86 -12 53 14.5 c 128,-1,29
 20 41 20 41 20 80 c 128,-1,30
 20 119 20 119 32 143.5 c 128,-1,31
 44 168 44 168 65 168 c 128,-1,32
 86 168 86 168 108 152 c 1,33,34
 83 111 83 111 83 77 c 0,35,36
 83 9 83 9 152.5 9 c 128,-1,37
 222 9 222 9 267.5 61.5 c 128,-1,38
 313 114 313 114 313 173 c 128,-1,39
 313 232 313 232 274.5 259 c 128,-1,40
 236 286 236 286 172 286 c 0,41,42
 145 286 145 286 124 282 c 1,0,-1
EndSplineSet
EndChar

StartChar: seven
Encoding: 55 55 90
Width: 394
Flags: HMW
HStem: -12 21G<131 150.5> 504 62<137.5 444 197 375> 556 20G
VStem: 112 73<5.5 74>
LayerCount: 2
Fore
SplineSet
444 566 m 1,0,-1
 228 188 l 2,1,2
 185 112 185 112 185 53 c 0,3,4
 185 31 185 31 190 3 c 1,5,6
 170 -12 170 -12 141 -12 c 0,7,8
 112 -12 112 -12 112 14 c 0,9,10
 112 52 112 52 198 188 c 1,11,-1
 375 504 l 1,12,-1
 146 504 l 2,13,14
 122 504 122 504 114 481 c 2,15,-1
 83 394 l 1,16,-1
 60 394 l 1,17,-1
 71 443 l 2,18,19
 88 517 88 517 91 576 c 1,20,21
 123 566 123 566 197 566 c 2,22,-1
 444 566 l 1,0,-1
EndSplineSet
EndChar

StartChar: two
Encoding: 50 50 91
Width: 461
Flags: HMW
HStem: -9 21G 0 63<89 266> 557 22<257 318.5>
VStem: 116 69<435.5 468.5> 366 75<456.5 500.5 421 502>
LayerCount: 2
Fore
SplineSet
295 557 m 0,0,1
 241 557 241 557 213 523 c 128,-1,2
 185 489 185 489 185 440 c 0,3,4
 185 426 185 426 188 414 c 1,5,6
 169 399 169 399 141 399 c 0,7,8
 116 399 116 399 116 431 c 0,9,10
 116 491 116 491 165 535 c 128,-1,11
 214 579 214 579 291 579 c 128,-1,12
 368 579 368 579 404.5 548.5 c 128,-1,13
 441 518 441 518 441 472 c 0,14,15
 441 426.4 441 426.4 423.5 397.7 c 128,-1,16
 406 369 406 369 396 354 c 128,-1,17
 386 339 386 339 365 317.5 c 128,-1,18
 344 296 344 296 333 285.5 c 128,-1,19
 322 275 322 275 297 253 c 128,-1,20
 272 231 272 231 265 224 c 2,21,-1
 89 63 l 1,22,-1
 318 63 l 2,23,24
 340 63 340 63 349 85 c 1,25,-1
 380 172 l 1,26,-1
 401 172 l 1,27,-1
 391 124 l 2,28,29
 373 37 373 37 373 -9 c 1,30,31
 342 0 342 0 266 0 c 2,32,-1
 -15 0 l 1,33,-1
 254 250 l 2,34,35
 315 306 315 306 340.5 369.5 c 128,-1,36
 366 433 366 433 366 477 c 0,37,38
 366 557 366 557 295 557 c 0,0,1
EndSplineSet
EndChar

StartChar: four
Encoding: 52 52 92
Width: 438
Flags: HMW
HStem: 0 21G<119 348 119 119> 134 29<22 226 303 344> 559 20G<364 395 395 395>
LayerCount: 2
Fore
SplineSet
344 134 m 2,0,-1
 296 134 l 1,1,-1
 274 29 l 1,2,3
 274 19 274 19 285 19 c 2,4,-1
 351 19 l 1,5,-1
 348 0 l 1,6,-1
 119 0 l 1,7,-1
 122 19 l 1,8,-1
 187 19 l 2,9,10
 200 19 200 19 205 33 c 1,11,-1
 226 134 l 1,12,-1
 -35 134 l 1,13,-1
 364 579 l 1,14,-1
 395 579 l 1,15,-1
 303 163 l 1,16,-1
 351 163 l 2,17,18
 366 163 366 163 368 177 c 1,19,-1
 381 226 l 1,20,-1
 398 226 l 1,21,-1
 363 71 l 1,22,-1
 346 71 l 1,23,24
 356 120 356 120 356 123 c 0,25,26
 356 134 356 134 344 134 c 2,0,-1
22 163 m 1,27,-1
 233 163 l 1,28,-1
 301 471 l 1,29,-1
 22 163 l 1,27,-1
EndSplineSet
EndChar

StartChar: five
Encoding: 53 53 93
Width: 463
Flags: HMW
HStem: -12 21<152.5 227.5 152.5 247> 302 29<223.5 242> 504 62<197 357 197 197> 589 20G<432 458>
VStem: 45 63<57 83 54 103.5> 338 74<144 225>
LayerCount: 2
Fore
SplineSet
113 288 m 1,0,-1
 183 566 l 1,1,-1
 401 566 l 2,2,3
 426 566 426 566 432 589 c 2,4,-1
 438 609 l 1,5,-1
 458 609 l 1,6,-1
 449 575 l 2,7,8
 436 526 436 526 419.5 515 c 128,-1,9
 403 504 403 504 357 504 c 2,10,-1
 197 504 l 1,11,-1
 150 321 l 1,12,13
 205 331 205 331 236 331 c 0,14,15
 322 331 322 331 367 290 c 128,-1,16
 412 249 412 249 412 189 c 0,17,18
 412 111 412 111 345.5 49.5 c 128,-1,19
 279 -12 279 -12 172 -12 c 0,20,21
 109 -12 109 -12 77 14.5 c 128,-1,22
 45 41 45 41 45 79 c 0,23,24
 45 117 45 117 57 142.5 c 128,-1,25
 69 168 69 168 94 168 c 0,26,27
 119 168 119 168 133 152 c 1,28,29
 108 115 108 115 108 72 c 0,30,31
 108 9 108 9 178.5 9 c 0,32,33
 249 9 249 9 293.5 63.5 c 128,-1,34
 338 118 338 118 338 180.5 c 0,35,36
 338 243 338 243 301 272.5 c 128,-1,37
 264 302 264 302 211 302 c 0,38,39
 158 302 158 302 113 288 c 1,0,-1
EndSplineSet
EndChar

StartChar: eight
Encoding: 56 56 94
Width: 490
Flags: HMW
HStem: -12 21<171 227 171 249> 289 22<240.5 283> 557 22<275.5 336>
VStem: 40 74<73 143 73 153> 126 66<374.5 425 365.5 447.5> 342 72<136 216 124 224.5> 385 65<427 502>
LayerCount: 2
Fore
SplineSet
191 300 m 1,0,1
 126 325 126 325 126 398.5 c 128,-1,2
 126 472 126 472 183 525.5 c 128,-1,3
 240 579 240 579 320 579 c 0,4,5
 381 579 381 579 415.5 550.5 c 128,-1,6
 450 522 450 522 450 465 c 128,-1,7
 450 408 450 408 415.5 363 c 128,-1,8
 381 318 381 318 327 301 c 1,9,10
 414 275 414 275 414 186 c 128,-1,11
 414 97 414 97 348 42.5 c 128,-1,12
 282 -12 282 -12 192 -12 c 0,13,14
 122 -12 122 -12 81 19.5 c 128,-1,15
 40 51 40 51 40 112.5 c 128,-1,16
 40 174 40 174 82 227 c 128,-1,17
 124 280 124 280 191 300 c 1,0,1
259 289 m 0,18,19
 194 289 194 289 154 229.5 c 128,-1,20
 114 170 114 170 114 103 c 0,21,22
 114 59 114 59 136 34 c 128,-1,23
 158 9 158 9 195 9 c 0,24,25
 248 9 248 9 295 61 c 128,-1,26
 342 113 342 113 342 194 c 0,27,28
 342 239 342 239 319 264 c 128,-1,29
 296 289 296 289 259 289 c 0,18,19
316 557 m 0,30,31
 260 557 260 557 226 503 c 128,-1,32
 192 449 192 449 192 401 c 128,-1,33
 192 353 192 353 211 332 c 128,-1,34
 230 311 230 311 260 311 c 0,35,36
 305 311 305 311 345 357 c 128,-1,37
 385 403 385 403 385 476 c 0,38,39
 385 514 385 514 366 535.5 c 128,-1,40
 347 557 347 557 316 557 c 0,30,31
EndSplineSet
EndChar

StartChar: six
Encoding: 54 54 95
Width: 453
Flags: HMW
HStem: -12 21<179.5 235 179.5 256> 315 29<253.5 280> 568 20G<420 420>
VStem: 45 75<98.5 167.5 89 219> 344 72<138.5 236>
LayerCount: 2
Fore
SplineSet
156 302 m 1,0,-1
 159 300 l 1,1,2
 207 344 207 344 270 344 c 0,3,4
 333 344 333 344 374.5 303 c 128,-1,5
 416 262 416 262 416 194 c 0,6,7
 416 101 416 101 352 44.5 c 128,-1,8
 288 -12 288 -12 206 -12 c 0,9,10
 124 -12 124 -12 84.5 30.5 c 128,-1,11
 45 73 45 73 45 147 c 0,12,13
 45 221 45 221 88.5 309 c 128,-1,14
 132 397 132 397 220.5 475.5 c 128,-1,15
 309 554 309 554 420 588 c 1,16,-1
 428 565 l 1,17,18
 365 546 365 546 284.5 477.5 c 128,-1,19
 204 409 204 409 156 302 c 1,0,-1
255 315 m 0,20,21
 189 315 189 315 154.5 256.5 c 128,-1,22
 120 198 120 198 120 134.5 c 0,23,24
 120 71 120 71 143 40 c 128,-1,25
 166 9 166 9 204 9 c 0,26,27
 255 9 255 9 299.5 62 c 128,-1,28
 344 115 344 115 344 197 c 0,29,30
 344 253 344 253 319 284 c 128,-1,31
 294 315 294 315 255 315 c 0,20,21
EndSplineSet
EndChar

StartChar: nine
Encoding: 57 57 96
Width: 454
Flags: HMW
HStem: -12 21G<73 73> 217 29<213.5 232.5> 557 22<259.5 314>
VStem: 79 73<325.5 425 325.5 434> 370 74<396 470 351 474.5>
LayerCount: 2
Fore
SplineSet
330 255 m 1,0,-1
 324 259 l 1,1,2
 276 217 276 217 216.5 217 c 0,3,4
 157 217 157 217 118 258.5 c 128,-1,5
 79 300 79 300 79 368 c 0,6,7
 79 463 79 463 139.5 521 c 128,-1,8
 200 579 200 579 281 579 c 0,9,10
 362 579 362 579 403 537 c 128,-1,11
 444 495 444 495 444 421.5 c 0,12,13
 444 348 444 348 401.5 262.5 c 128,-1,14
 359 177 359 177 272 99.5 c 128,-1,15
 185 22 185 22 73 -12 c 1,16,-1
 65 11 l 1,17,18
 129 32 129 32 209.5 96 c 128,-1,19
 290 160 290 160 330 255 c 1,0,-1
237 246 m 0,20,21
 302 246 302 246 336 305.5 c 128,-1,22
 370 365 370 365 370 429 c 0,23,24
 370 493 370 493 348.5 525 c 128,-1,25
 327 557 327 557 283.5 557 c 0,26,27
 240 557 240 557 196 503 c 128,-1,28
 152 449 152 449 152 365 c 0,29,30
 152 308 152 308 176 277 c 128,-1,31
 200 246 200 246 237 246 c 0,20,21
EndSplineSet
EndChar

StartChar: C
Encoding: 67 67 97
Width: 549
Flags: HMW
HStem: -12 29<220.5 308 220.5 309.5> 0 21G<436 436 436 454> 613 29<302 434.5> 616 20G<565 589>
VStem: 50 69<143.5 281 143.5 311>
LayerCount: 2
Fore
SplineSet
437 14 m 1,0,-1
 438 22 l 1,1,2
 438 35 438 35 427 35 c 0,3,4
 419 35 419 35 396.5 23.5 c 0,5,6
 327.043478261 -12 327.043478261 -12 265 -12 c 0,7,8
 166 -12 166 -12 108 48 c 128,-1,9
 50 108 50 108 50 216 c 0,10,11
 50 289 50 289 74 363 c 128,-1,12
 98 437 98 437 141.5 500 c 128,-1,13
 185 563 185 563 254 602.5 c 128,-1,14
 323 642 323 642 404 642 c 0,15,16
 466.47826087 642 466.47826087 642 520.5 606.5 c 0,17,18
 538 595 538 595 546 595 c 0,19,20
 558 595 558 595 565 616 c 2,21,-1
 571 636 l 1,22,-1
 589 636 l 1,23,-1
 552 463 l 1,24,-1
 535 463 l 1,25,26
 536 471 536 471 536 486 c 0,27,28
 536 551 536 551 497.5 582 c 128,-1,29
 459 613 459 613 394 613 c 128,-1,30
 329 613 329 613 274 571 c 128,-1,31
 219 529 219 529 186.5 465.5 c 0,32,33
 119 333.615384615 119 333.615384615 119 204 c 0,34,35
 119 115 119 115 158 66 c 128,-1,36
 197 17 197 17 266 17 c 128,-1,37
 335 17 335 17 391 53.5 c 128,-1,38
 447 90 447 90 472 167 c 1,39,-1
 489 167 l 1,40,-1
 454 0 l 1,41,-1
 436 0 l 1,42,-1
 437 14 l 1,0,-1
EndSplineSet
Position2: "'cpsp' Capital Spacing in Latin lookup 1 subtable" dx=0 dy=0 dh=40 dv=0
EndChar

StartChar: G
Encoding: 71 71 98
Width: 579
Flags: HMW
HStem: -12 29<223.5 327 223.5 328> 613 29<302 434.5> 616 20G<565 589>
VStem: 50 69<143.5 281 143.5 311>
LayerCount: 2
Fore
SplineSet
531 226 m 2,0,-1
 524 192 l 2,1,2
 505 103 505 103 432.5 45.5 c 128,-1,3
 360 -12 360 -12 263 -12 c 128,-1,4
 166 -12 166 -12 108 48 c 128,-1,5
 50 108 50 108 50 216 c 0,6,7
 50 289 50 289 74 363 c 128,-1,8
 98 437 98 437 141.5 500 c 128,-1,9
 185 563 185 563 254 602.5 c 128,-1,10
 323 642 323 642 404 642 c 0,11,12
 466.47826087 642 466.47826087 642 520.5 606.5 c 0,13,14
 538 595 538 595 546 595 c 0,15,16
 558 595 558 595 565 616 c 2,17,-1
 571 636 l 1,18,-1
 589 636 l 1,19,-1
 552 463 l 1,20,-1
 535 463 l 1,21,22
 536 471 536 471 536 486 c 0,23,24
 536 551 536 551 497.5 582 c 128,-1,25
 459 613 459 613 394 613 c 128,-1,26
 329 613 329 613 274 571 c 128,-1,27
 219 529 219 529 186.5 465.5 c 0,28,29
 119 333.615384615 119 333.615384615 119 204 c 0,30,31
 119 114 119 114 159 65.5 c 128,-1,32
 199 17 199 17 276.5 17 c 128,-1,33
 354 17 354 17 400 68 c 128,-1,34
 446 119 446 119 464 229 c 1,35,36
 464 240 464 240 454 240 c 2,37,-1
 391 240 l 1,38,-1
 394 258 l 1,39,-1
 577 258 l 1,40,-1
 574 240 l 1,41,-1
 549 240 l 2,42,43
 534 240 534 240 531 226 c 2,0,-1
EndSplineSet
Position2: "'cpsp' Capital Spacing in Latin lookup 1 subtable" dx=0 dy=0 dh=40 dv=0
EndChar

StartChar: S
Encoding: 83 83 99
Width: 457
Flags: HMW
HStem: -12 29<136 223 136 238.5> 0 21G<-15 4 -15 -15> 613 29<259 337.5> 616 20G<454 472 472 472>
LayerCount: 2
Fore
SplineSet
177 -12 m 0,0,1
 105.52173913 -12 105.52173913 -12 51.5 23.5 c 0,2,3
 34 35 34 35 27 35 c 0,4,5
 9 35 9 35 4 0 c 1,6,-1
 -15 0 l 1,7,-1
 20 167 l 1,8,-1
 38 167 l 1,9,10
 37 159 37 159 37 143 c 0,11,12
 37 78 37 78 74.5 47.5 c 128,-1,13
 112 17 112 17 177.5 17 c 128,-1,14
 243 17 243 17 287.5 63.5 c 128,-1,15
 332 110 332 110 332 170.5 c 128,-1,16
 332 231 332 231 270 261 c 1,17,-1
 190 302 l 1,18,19
 96 348 96 348 96 445 c 0,20,21
 96 521 96 521 155 581.5 c 128,-1,22
 214 642 214 642 303 642 c 0,23,24
 362 642 362 642 410 609 c 0,25,26
 426 598 426 598 432 598 c 0,27,28
 442 598 442 598 449 619 c 2,29,-1
 454 636 l 1,30,-1
 472 636 l 1,31,-1
 435 463 l 1,32,-1
 418 463 l 1,33,34
 420 483 420 483 420 492 c 0,35,36
 420 554 420 554 388.5 583.5 c 128,-1,37
 357 613 357 613 298 613 c 128,-1,38
 239 613 239 613 197.5 569 c 128,-1,39
 156 525 156 525 156 470 c 0,40,41
 156 402 156 402 217 370 c 2,42,-1
 320 317 l 2,43,44
 403 274 403 274 403 195.5 c 128,-1,45
 403 117 403 117 335 52.5 c 128,-1,46
 267 -12 267 -12 177 -12 c 0,0,1
EndSplineSet
Position2: "'cpsp' Capital Spacing in Latin lookup 1 subtable" dx=0 dy=0 dh=40 dv=0
EndChar

StartChar: Adieresis
Encoding: 196 196 101
Width: 510
Flags: HMW
HStem: 0 21G<-80 64 -80 -80 296 296 296 477> 211 28<128 330 128 334 113 330> 610 20G<316 348 348 348> 729 21G<259.5 284.5 419.5 444.5> 799 20G<259.5 284.5 419.5 444.5>
LayerCount: 2
Fore
SplineSet
361 18 m 1,0,-1
 334 211 l 1,1,-1
 113 211 l 1,2,-1
 5 18 l 1,3,-1
 67 18 l 1,4,-1
 64 0 l 1,5,-1
 -80 0 l 1,6,-1
 -76 18 l 1,7,-1
 -41 18 l 2,8,9
 -27 18 -27 18 -20 32 c 2,10,-1
 316 630 l 1,11,-1
 348 630 l 1,12,-1
 430 32 l 2,13,14
 432 18 432 18 445 18 c 2,15,-1
 480 18 l 1,16,-1
 477 0 l 1,17,-1
 296 0 l 1,18,-1
 299 18 l 1,19,-1
 361 18 l 1,0,-1
291 528 m 1,20,-1
 128 239 l 1,21,-1
 330 239 l 1,22,-1
 291 528 l 1,20,-1
227 774 m 128,-1,24
 227 793 227 793 240 806 c 128,-1,25
 253 819 253 819 272 819 c 128,-1,26
 291 819 291 819 304 806 c 128,-1,27
 317 793 317 793 317 774 c 128,-1,28
 317 755 317 755 304 742 c 128,-1,29
 291 729 291 729 272 729 c 128,-1,30
 253 729 253 729 240 742 c 128,-1,23
 227 755 227 755 227 774 c 128,-1,24
387 774 m 128,-1,32
 387 793 387 793 400 806 c 128,-1,33
 413 819 413 819 432 819 c 128,-1,34
 451 819 451 819 464 806 c 128,-1,35
 477 793 477 793 477 774 c 128,-1,36
 477 755 477 755 464 742 c 128,-1,37
 451 729 451 729 432 729 c 128,-1,38
 413 729 413 729 400 742 c 128,-1,31
 387 755 387 755 387 774 c 128,-1,32
EndSplineSet
Position2: "'cpsp' Capital Spacing in Latin lookup 1 subtable" dx=0 dy=0 dh=40 dv=0
EndChar

StartChar: Atilde
Encoding: 195 195 103
Width: 510
Flags: HMW
HStem: 0 21G<-80 64 -80 -80 296 296 296 477> 211 28<128 330 128 334 113 330> 610 20G<316 348 348 348> 706 21G<246 246> 728 58<394.5 415> 751 35 751 58<302 322> 812 20G<471 471>
LayerCount: 2
Fore
SplineSet
361 18 m 1,0,-1
 334 211 l 1,1,-1
 113 211 l 1,2,-1
 5 18 l 1,3,-1
 67 18 l 1,4,-1
 64 0 l 1,5,-1
 -80 0 l 1,6,-1
 -76 18 l 1,7,-1
 -41 18 l 2,8,9
 -27 18 -27 18 -20 32 c 2,10,-1
 316 630 l 1,11,-1
 348 630 l 1,12,-1
 430 32 l 2,13,14
 432 18 432 18 445 18 c 2,15,-1
 480 18 l 1,16,-1
 477 0 l 1,17,-1
 296 0 l 1,18,-1
 299 18 l 1,19,-1
 361 18 l 1,0,-1
291 528 m 1,20,-1
 128 239 l 1,21,-1
 330 239 l 1,22,-1
 291 528 l 1,20,-1
471 832 m 1,23,-1
 489 825 l 1,24,25
 467 770 467 770 445.5 749 c 128,-1,26
 424 728 424 728 405 728 c 0,27,28
 386 728 386 728 354 739.5 c 128,-1,29
 322 751 322 751 305 751 c 128,-1,30
 288 751 288 751 275.5 742 c 128,-1,31
 263 733 263 733 246 706 c 1,32,-1
 229 713 l 1,33,34
 266 809 266 809 316 809 c 0,35,36
 330 809 330 809 362 797.5 c 128,-1,37
 394 786 394 786 412 786 c 128,-1,38
 430 786 430 786 442 795.5 c 128,-1,39
 454 805 454 805 471 832 c 1,23,-1
EndSplineSet
Position2: "'cpsp' Capital Spacing in Latin lookup 1 subtable" dx=0 dy=0 dh=40 dv=0
EndChar

StartChar: Ecircumflex
Encoding: 202 202 105
Width: 542
Flags: HMW
HStem: -9 21G 0 23<141 325> 301 28<205 400 200 407> 607 23<264 444 444 471 264 264> 619 20G 687 21G<300 300 472 472> 817 20G<404.5 418>
LayerCount: 2
Fore
SplineSet
143 630 m 1,0,-1
 444 630 l 2,1,2
 520 630 520 630 552 639 c 1,3,4
 537 604 537 604 516 510 c 2,5,-1
 506 463 l 1,6,-1
 484 463 l 1,7,-1
 497 590 l 1,8,9
 497 607 497 607 475 607 c 2,10,-1
 264 607 l 1,11,-1
 205 329 l 1,12,-1
 407 329 l 1,13,14
 417 330 417 330 421 343 c 2,15,-1
 441 405 l 1,16,-1
 458 405 l 1,17,-1
 419 225 l 1,18,-1
 402 225 l 1,19,-1
 411 287 l 1,20,21
 411 301 411 301 400 301 c 2,22,-1
 200 301 l 1,23,-1
 141 23 l 1,24,-1
 362 23 l 2,25,26
 386 23 386 23 393 45 c 2,27,-1
 435 167 l 1,28,-1
 457 167 l 1,29,-1
 447 120 l 2,30,31
 428 31 428 31 428 -9 c 1,32,33
 399 0 399 0 325 0 c 2,34,-1
 10 0 l 1,35,-1
 13 18 l 1,36,-1
 59 18 l 2,37,38
 72 18 72 18 75 33 c 0,39,40
 195 601 195 601 195 606.5 c 0,41,42
 195 612 195 612 184 612 c 2,43,-1
 140 612 l 1,44,-1
 143 630 l 1,0,-1
472 687 m 1,45,-1
 402 772 l 1,46,-1
 300 687 l 1,47,-1
 287 703 l 1,48,-1
 372 815 l 1,49,50
 390 837 390 837 412.5 837 c 0,51,52
 435 837 435 837 444 814 c 2,53,-1
 488 696 l 1,54,-1
 472 687 l 1,45,-1
EndSplineSet
Position2: "'cpsp' Capital Spacing in Latin lookup 1 subtable" dx=0 dy=0 dh=40 dv=0
EndChar

StartChar: Egrave
Encoding: 200 200 107
Width: 542
Flags: HMW
HStem: -9 21G 0 23<141 325> 301 28<205 400 200 407> 607 23<264 444 444 471 264 264> 619 20G 687 21G<449 449> 817 20G<311.5 324>
LayerCount: 2
Fore
SplineSet
143 630 m 1,0,-1
 444 630 l 2,1,2
 520 630 520 630 552 639 c 1,3,4
 537 604 537 604 516 510 c 2,5,-1
 506 463 l 1,6,-1
 484 463 l 1,7,-1
 497 590 l 1,8,9
 497 607 497 607 475 607 c 2,10,-1
 264 607 l 1,11,-1
 205 329 l 1,12,-1
 407 329 l 1,13,14
 417 330 417 330 421 343 c 2,15,-1
 441 405 l 1,16,-1
 458 405 l 1,17,-1
 419 225 l 1,18,-1
 402 225 l 1,19,-1
 411 287 l 1,20,21
 411 301 411 301 400 301 c 2,22,-1
 200 301 l 1,23,-1
 141 23 l 1,24,-1
 362 23 l 2,25,26
 386 23 386 23 393 45 c 2,27,-1
 435 167 l 1,28,-1
 457 167 l 1,29,-1
 447 120 l 2,30,31
 428 31 428 31 428 -9 c 1,32,33
 399 0 399 0 325 0 c 2,34,-1
 10 0 l 1,35,-1
 13 18 l 1,36,-1
 59 18 l 2,37,38
 72 18 72 18 75 33 c 0,39,40
 195 601 195 601 195 606.5 c 0,41,42
 195 612 195 612 184 612 c 2,43,-1
 140 612 l 1,44,-1
 143 630 l 1,0,-1
449 687 m 1,45,-1
 318 764 l 2,46,47
 291 779 291 779 291 804 c 0,48,49
 291 818 291 818 299 827.5 c 128,-1,50
 307 837 307 837 322.5 837 c 0,51,52
 338 837 338 837 351 823 c 2,53,-1
 462 703 l 1,54,-1
 449 687 l 1,45,-1
EndSplineSet
Position2: "'cpsp' Capital Spacing in Latin lookup 1 subtable" dx=0 dy=0 dh=40 dv=0
EndChar

StartChar: Icircumflex
Encoding: 206 206 109
Width: 307
Flags: HMW
HStem: 0 21G<10 194 10 10> 610 20G<143 327 327 327> 687 21G<158 158 330 330> 817 20G<262.5 276>
LayerCount: 2
Fore
SplineSet
262 598 m 1,0,-1
 142 28 l 1,1,2
 142 18 142 18 153 18 c 2,3,-1
 197 18 l 1,4,-1
 194 0 l 1,5,-1
 10 0 l 1,6,-1
 13 18 l 1,7,-1
 59 18 l 2,8,9
 72 18 72 18 75 33 c 0,10,11
 195 601 195 601 195 606.5 c 0,12,13
 195 612 195 612 184 612 c 2,14,-1
 140 612 l 1,15,-1
 143 630 l 1,16,-1
 327 630 l 1,17,-1
 324 612 l 1,18,-1
 279 612 l 2,19,20
 266 612 266 612 262 598 c 1,0,-1
330 687 m 1,21,-1
 260 772 l 1,22,-1
 158 687 l 1,23,-1
 145 703 l 1,24,-1
 230 815 l 1,25,26
 248 837 248 837 270.5 837 c 0,27,28
 293 837 293 837 302 814 c 2,29,-1
 346 696 l 1,30,-1
 330 687 l 1,21,-1
EndSplineSet
Position2: "'cpsp' Capital Spacing in Latin lookup 1 subtable" dx=0 dy=0 dh=40 dv=0
EndChar

StartChar: Igrave
Encoding: 204 204 111
Width: 307
Flags: HMW
HStem: 0 21G<10 194 10 10> 610 20G<143 327 327 327> 687 21G<333 333> 817 20G<195.5 208>
LayerCount: 2
Fore
SplineSet
262 598 m 1,0,-1
 142 28 l 1,1,2
 142 18 142 18 153 18 c 2,3,-1
 197 18 l 1,4,-1
 194 0 l 1,5,-1
 10 0 l 1,6,-1
 13 18 l 1,7,-1
 59 18 l 2,8,9
 72 18 72 18 75 33 c 0,10,11
 195 601 195 601 195 606.5 c 0,12,13
 195 612 195 612 184 612 c 2,14,-1
 140 612 l 1,15,-1
 143 630 l 1,16,-1
 327 630 l 1,17,-1
 324 612 l 1,18,-1
 279 612 l 2,19,20
 266 612 266 612 262 598 c 1,0,-1
333 687 m 1,21,-1
 202 764 l 2,22,23
 175 779 175 779 175 804 c 0,24,25
 175 818 175 818 183 827.5 c 128,-1,26
 191 837 191 837 206.5 837 c 0,27,28
 222 837 222 837 235 823 c 2,29,-1
 346 703 l 1,30,-1
 333 687 l 1,21,-1
EndSplineSet
Position2: "'cpsp' Capital Spacing in Latin lookup 1 subtable" dx=0 dy=0 dh=40 dv=0
EndChar

StartChar: Ocircumflex
Encoding: 212 212 114
Width: 627
Flags: HMW
HStem: -12 26<222.5 359.5 222.5 377.5> 616 26<306.5 443> 687 21G<322 322 494 494> 817 20G<426.5 440>
VStem: 50 70<144 281 144 310.5> 547 70<348.5 485>
LayerCount: 2
Fore
SplineSet
280.5 616 m 0,0,1
 338 642 338 642 403 642 c 0,2,3
 502 642 502 642 559.5 582.5 c 128,-1,4
 617 523 617 523 617 415 c 0,5,6
 617 342 617 342 593 267.5 c 128,-1,7
 569 193 569 193 526 130 c 128,-1,8
 483 67 483 67 414 27.5 c 128,-1,9
 345 -12 345 -12 255 -12 c 128,-1,10
 165 -12 165 -12 107.5 48 c 128,-1,11
 50 108 50 108 50 222.25 c 128,-1,12
 50 336.5 50 336.5 112.695178849 452.486080871 c 128,-1,13
 175.390357698 568.472161742 175.390357698 568.472161742 280.5 616 c 0,0,1
400 616 m 128,-1,15
 334 616 334 616 278 573.5 c 128,-1,16
 222 531 222 531 189 466.5 c 0,17,18
 120 331.636363636 120 331.636363636 120 206 c 0,19,20
 120 115 120 115 159.5 64.5 c 128,-1,21
 199 14 199 14 265.5 14 c 128,-1,22
 332 14 332 14 388 56.5 c 128,-1,23
 444 99 444 99 477.5 163 c 0,24,25
 547 295.776119403 547 295.776119403 547 423 c 0,26,27
 547 514 547 514 506.5 565 c 128,-1,14
 466 616 466 616 400 616 c 128,-1,15
494 687 m 1,28,-1
 424 772 l 1,29,-1
 322 687 l 1,30,-1
 309 703 l 1,31,-1
 394 815 l 1,32,33
 412 837 412 837 434.5 837 c 128,-1,34
 457 837 457 837 466 814 c 2,35,-1
 510 696 l 1,36,-1
 494 687 l 1,28,-1
EndSplineSet
Position2: "'cpsp' Capital Spacing in Latin lookup 1 subtable" dx=0 dy=0 dh=40 dv=0
EndChar

StartChar: Ograve
Encoding: 210 210 116
Width: 627
Flags: HMW
HStem: -12 26<222.5 359.5 222.5 377.5> 616 26<306.5 443> 687 21G<496 496> 817 20G<358.5 371>
VStem: 50 70<144 281 144 310.5> 547 70<348.5 485>
LayerCount: 2
Fore
SplineSet
280.5 616 m 0,0,1
 338 642 338 642 403 642 c 0,2,3
 502 642 502 642 559.5 582.5 c 128,-1,4
 617 523 617 523 617 415 c 0,5,6
 617 342 617 342 593 267.5 c 128,-1,7
 569 193 569 193 526 130 c 128,-1,8
 483 67 483 67 414 27.5 c 128,-1,9
 345 -12 345 -12 255 -12 c 128,-1,10
 165 -12 165 -12 107.5 48 c 128,-1,11
 50 108 50 108 50 222.25 c 128,-1,12
 50 336.5 50 336.5 112.695178849 452.486080871 c 128,-1,13
 175.390357698 568.472161742 175.390357698 568.472161742 280.5 616 c 0,0,1
400 616 m 128,-1,15
 334 616 334 616 278 573.5 c 128,-1,16
 222 531 222 531 189 466.5 c 0,17,18
 120 331.636363636 120 331.636363636 120 206 c 0,19,20
 120 115 120 115 159.5 64.5 c 128,-1,21
 199 14 199 14 265.5 14 c 128,-1,22
 332 14 332 14 388 56.5 c 128,-1,23
 444 99 444 99 477.5 163 c 0,24,25
 547 295.776119403 547 295.776119403 547 423 c 0,26,27
 547 514 547 514 506.5 565 c 128,-1,14
 466 616 466 616 400 616 c 128,-1,15
496 687 m 1,28,-1
 365 764 l 2,29,30
 338 779 338 779 338 804 c 0,31,32
 338 818 338 818 346 827.5 c 128,-1,33
 354 837 354 837 369.5 837 c 128,-1,34
 385 837 385 837 398 823 c 2,35,-1
 509 703 l 1,36,-1
 496 687 l 1,28,-1
EndSplineSet
Position2: "'cpsp' Capital Spacing in Latin lookup 1 subtable" dx=0 dy=0 dh=40 dv=0
EndChar

StartChar: Ucircumflex
Encoding: 219 219 119
Width: 609
Flags: HMW
HStem: -12 33<240.5 311 240.5 317> 610 20G<123 307 307 307 510 659 659 659> 687 21G<338 338 510 510> 817 20G<442.5 456>
VStem: 82 67<96 144>
LayerCount: 2
Fore
SplineSet
89 195 m 2,0,-1
 176 604 l 1,1,2
 176 612 176 612 165 612 c 2,3,-1
 120 612 l 1,4,-1
 123 630 l 1,5,-1
 307 630 l 1,6,-1
 304 612 l 1,7,-1
 259 612 l 2,8,9
 246 612 246 612 242 598 c 1,10,-1
 155 188 l 2,11,12
 149 159.5 149 159.5 149 137 c 0,13,14
 149 78 149 78 184 49.5 c 128,-1,15
 219 21 219 21 277 21 c 0,16,17
 332.5 21 332.5 21 391.5 59 c 0,18,19
 455.631533847 100.305055698 455.631533847 100.305055698 476 194 c 2,20,-1
 562 601 l 1,21,22
 562 612 562 612 552 612 c 2,23,-1
 507 612 l 1,24,-1
 510 630 l 1,25,-1
 659 630 l 1,26,-1
 656 612 l 1,27,-1
 611 612 l 2,28,29
 598 612 598 612 594 598 c 1,30,-1
 509 195 l 2,31,32
 487 91 487 91 419.5 39.5 c 128,-1,33
 352 -12 352 -12 263 -12 c 0,34,35
 82 -12 82 -12 82 135 c 0,36,37
 82 164 82 164 89 195 c 2,0,-1
510 687 m 1,38,-1
 440 772 l 1,39,-1
 338 687 l 1,40,-1
 325 703 l 1,41,-1
 410 815 l 1,42,43
 428 837 428 837 450.5 837 c 128,-1,44
 473 837 473 837 482 814 c 2,45,-1
 526 696 l 1,46,-1
 510 687 l 1,38,-1
EndSplineSet
Position2: "'cpsp' Capital Spacing in Latin lookup 1 subtable" dx=0 dy=0 dh=40 dv=0
EndChar

StartChar: Ugrave
Encoding: 217 217 121
Width: 609
Flags: HMW
HStem: -12 33<240.5 311 240.5 317> 610 20G<123 307 307 307 510 659 659 659> 687 21G<490 490> 817 20G<352.5 365>
VStem: 82 67<96 144>
LayerCount: 2
Fore
SplineSet
89 195 m 2,0,-1
 176 604 l 1,1,2
 176 612 176 612 165 612 c 2,3,-1
 120 612 l 1,4,-1
 123 630 l 1,5,-1
 307 630 l 1,6,-1
 304 612 l 1,7,-1
 259 612 l 2,8,9
 246 612 246 612 242 598 c 1,10,-1
 155 188 l 2,11,12
 149 159.5 149 159.5 149 137 c 0,13,14
 149 78 149 78 184 49.5 c 128,-1,15
 219 21 219 21 277 21 c 0,16,17
 332.5 21 332.5 21 391.5 59 c 0,18,19
 455.631533847 100.305055698 455.631533847 100.305055698 476 194 c 2,20,-1
 562 601 l 1,21,22
 562 612 562 612 552 612 c 2,23,-1
 507 612 l 1,24,-1
 510 630 l 1,25,-1
 659 630 l 1,26,-1
 656 612 l 1,27,-1
 611 612 l 2,28,29
 598 612 598 612 594 598 c 1,30,-1
 509 195 l 2,31,32
 487 91 487 91 419.5 39.5 c 128,-1,33
 352 -12 352 -12 263 -12 c 0,34,35
 82 -12 82 -12 82 135 c 0,36,37
 82 164 82 164 89 195 c 2,0,-1
490 687 m 1,38,-1
 359 764 l 2,39,40
 332 779 332 779 332 804 c 0,41,42
 332 818 332 818 340 827.5 c 128,-1,43
 348 837 348 837 363.5 837 c 128,-1,44
 379 837 379 837 392 823 c 2,45,-1
 503 703 l 1,46,-1
 490 687 l 1,38,-1
EndSplineSet
Position2: "'cpsp' Capital Spacing in Latin lookup 1 subtable" dx=0 dy=0 dh=40 dv=0
EndChar

StartChar: Ydieresis
Encoding: 376 376 123
Width: 455
Flags: HMW
HStem: 0 21G<70 298 70 70> 610 20G<64 229 229 229 426 555 555 555> 729 21G<263.5 288.5 423.5 448.5> 799 20G<263.5 288.5 423.5 448.5>
LayerCount: 2
Fore
SplineSet
247 190 m 1,0,-1
 203 185 l 1,1,-1
 111 598 l 2,2,3
 108 612 108 612 96 612 c 2,4,-1
 61 612 l 1,5,-1
 64 630 l 1,6,-1
 229 630 l 1,7,-1
 226 612 l 1,8,-1
 179 612 l 1,9,-1
 259 257 l 1,10,-1
 470 612 l 1,11,-1
 423 612 l 1,12,-1
 426 630 l 1,13,-1
 555 630 l 1,14,-1
 552 612 l 1,15,-1
 517 612 l 2,16,17
 505 612 505 612 496 598 c 2,18,-1
 247 190 l 1,0,-1
201 242 m 1,19,-1
 265 225 l 1,20,21
 224 31 224 31 224 24.5 c 0,22,23
 224 18 224 18 235 18 c 2,24,-1
 301 18 l 1,25,-1
 298 0 l 1,26,-1
 70 0 l 1,27,-1
 73 18 l 1,28,-1
 141 18 l 2,29,30
 154 18 154 18 157 33 c 2,31,-1
 201 242 l 1,19,-1
231 774 m 128,-1,33
 231 793 231 793 244 806 c 128,-1,34
 257 819 257 819 276 819 c 128,-1,35
 295 819 295 819 308 806 c 128,-1,36
 321 793 321 793 321 774 c 128,-1,37
 321 755 321 755 308 742 c 128,-1,38
 295 729 295 729 276 729 c 128,-1,39
 257 729 257 729 244 742 c 128,-1,32
 231 755 231 755 231 774 c 128,-1,33
391 774 m 128,-1,41
 391 793 391 793 404 806 c 128,-1,42
 417 819 417 819 436 819 c 128,-1,43
 455 819 455 819 468 806 c 128,-1,44
 481 793 481 793 481 774 c 128,-1,45
 481 755 481 755 468 742 c 128,-1,46
 455 729 455 729 436 729 c 128,-1,47
 417 729 417 729 404 742 c 128,-1,40
 391 755 391 755 391 774 c 128,-1,41
EndSplineSet
Position2: "'cpsp' Capital Spacing in Latin lookup 1 subtable" dx=0 dy=0 dh=40 dv=0
EndChar

StartChar: yacute
Encoding: 253 253 124
Width: 472
Flags: HMW
HStem: -228 26<55 115.5 55 131> -12 33<183.5 222.5> 424 20G<126 167 377 399> 489 21G<240 240> 619 20G<365 377.5>
VStem: -44 62<-168.5 -141 -168.5 -132> 89 60<63.5 121.5 63.5 125> 156 55<344.5 389> 391 33<237 321.5>
LayerCount: 2
Fore
SplineSet
371 566 m 2,0,-1
 240 489 l 1,1,-1
 227 505 l 1,2,-1
 338 625 l 2,3,4
 351 639 351 639 366.5 639 c 128,-1,5
 382 639 382 639 390 629.5 c 128,-1,6
 398 620 398 620 398 606 c 0,7,8
 398 581 398 581 371 566 c 2,0,-1
327.5 114.5 m 128,-1,10
 391 208 391 208 391 289.5 c 128,-1,11
 391 371 391 371 339 423 c 1,12,13
 364 444 364 444 385 444 c 0,14,15
 424 444 424 444 424 334 c 128,-1,16
 424 224 424 224 400 132.5 c 128,-1,17
 376 41 376 41 337.5 -23 c 128,-1,18
 299 -87 299 -87 250.5 -134.5 c 0,19,20
 155.031578947 -228 155.031578947 -228 57 -228 c 0,21,22
 7 -228 7 -228 -18.5 -205 c 128,-1,23
 -44 -182 -44 -182 -44 -151 c 128,-1,24
 -44 -120 -44 -120 -31.5 -95 c 128,-1,25
 -19 -70 -19 -70 6 -70 c 128,-1,26
 31 -70 31 -70 47 -84 c 1,27,28
 18 -121 18 -121 18 -152 c 0,29,30
 18 -202 18 -202 71 -202 c 0,31,32
 106 -202 106 -202 152 -176.5 c 128,-1,33
 198 -151 198 -151 245 -104.5 c 128,-1,34
 292 -58 292 -58 331.5 20 c 128,-1,35
 371 98 371 98 387 189 c 1,36,37
 354 102 354 102 298.5 45 c 128,-1,38
 243 -12 243 -12 171 -12 c 0,39,40
 134 -12 134 -12 111.5 13.5 c 128,-1,41
 89 39 89 39 89 83 c 128,-1,42
 89 127 89 127 122.5 237 c 128,-1,43
 156 347 156 347 156 381.5 c 128,-1,44
 156 416 156 416 130 416 c 0,45,46
 111 416 111 416 90 390.5 c 128,-1,47
 69 365 69 365 56 318 c 1,48,-1
 39 322 l 1,49,50
 76 444 76 444 146 444 c 0,51,52
 211 444 211 444 211 374 c 0,53,54
 211 346 211 346 180 235 c 128,-1,55
 149 124 149 124 149 89 c 0,56,57
 149 21 149 21 200 21 c 0,58,9
 264 21 264 21 327.5 114.5 c 128,-1,10
EndSplineSet
EndChar

StartChar: quotedbl
Encoding: 34 34 125
Width: 214
Flags: HMW
HStem: 444 21G<75 92 75 75 199 199 199 216> 648 20G<119.5 141 243.5 265>
LayerCount: 2
Fore
SplineSet
92 444 m 1,0,-1
 75 444 l 1,1,-1
 82 618 l 2,2,3
 83 642 83 642 97.5 655 c 128,-1,4
 112 668 112 668 132 668 c 0,5,6
 165 668 165 668 165 633 c 0,7,8
 165 622.538461538 165 622.538461538 156.5 602.269230769 c 128,-1,9
 148 582 148 582 141 565 c 0,10,11
 120 514 120 514 92 444 c 1,0,-1
216 444 m 1,12,-1
 199 444 l 1,13,-1
 206 618 l 2,14,15
 207 642 207 642 221.5 655 c 128,-1,16
 236 668 236 668 256 668 c 0,17,18
 289 668 289 668 289 633 c 0,19,20
 289 622.538461538 289 622.538461538 280.5 602.269230769 c 128,-1,21
 272 582 272 582 265 565 c 0,22,23
 244 514 244 514 216 444 c 1,12,-1
EndSplineSet
EndChar

StartChar: quotesingle
Encoding: 39 39 126
Width: 90
Flags: HMW
HStem: 444 21G<75 92 75 75> 648 20G<119.5 141>
LayerCount: 2
Fore
SplineSet
92 444 m 1,0,-1
 75 444 l 1,1,-1
 82 618 l 2,2,3
 83 642 83 642 97.5 655 c 128,-1,4
 112 668 112 668 132 668 c 0,5,6
 165 668 165 668 165 633 c 0,7,8
 165 622.538461538 165 622.538461538 156.5 602.269230769 c 128,-1,9
 148 582 148 582 141 565 c 0,10,11
 120 514 120 514 92 444 c 1,0,-1
EndSplineSet
EndChar

StartChar: colon
Encoding: 58 58 127
Width: 218
Flags: HMW
HStem: -12 21G<78.5 107.5> 74 20G<78.5 107.5> 320 21G<150.5 179.5> 406 20G<150.5 179.5>
VStem: 40 106<26.5 55.5> 112 106<358.5 387.5>
LayerCount: 2
Fore
SplineSet
40 41 m 128,-1,1
 40 63 40 63 55.5 78.5 c 128,-1,2
 71 94 71 94 93 94 c 128,-1,3
 115 94 115 94 130.5 78.5 c 128,-1,4
 146 63 146 63 146 41 c 128,-1,5
 146 19 146 19 130.5 3.5 c 128,-1,6
 115 -12 115 -12 93 -12 c 128,-1,7
 71 -12 71 -12 55.5 3.5 c 128,-1,0
 40 19 40 19 40 41 c 128,-1,1
112 373 m 128,-1,9
 112 395 112 395 127.5 410.5 c 128,-1,10
 143 426 143 426 165 426 c 128,-1,11
 187 426 187 426 202.5 410.5 c 128,-1,12
 218 395 218 395 218 373 c 128,-1,13
 218 351 218 351 202.5 335.5 c 128,-1,14
 187 320 187 320 165 320 c 128,-1,15
 143 320 143 320 127.5 335.5 c 128,-1,8
 112 351 112 351 112 373 c 128,-1,9
EndSplineSet
EndChar

StartChar: semicolon
Encoding: 59 59 128
Width: 201
Flags: HMW
HStem: -125 21G<-7 -7> 80 20G<78 106.5> 320 21G<133.5 162.5> 406 20G<133.5 162.5>
VStem: 50 83<-28.5 71> 95 106<358.5 387.5>
LayerCount: 2
Fore
SplineSet
-15 -111 m 1,0,1
 50 -61 50 -61 50 -6 c 0,2,3
 50 24 50 24 29 43 c 1,4,5
 34 66 34 66 52.5 83 c 128,-1,6
 71 100 71 100 92 100 c 0,7,8
 133 100 133 100 133 59 c 128,-1,9
 133 18 133 18 92.5 -38.5 c 128,-1,10
 52 -95 52 -95 -7 -125 c 1,11,-1
 -15 -111 l 1,0,1
95 373 m 128,-1,13
 95 395 95 395 110.5 410.5 c 128,-1,14
 126 426 126 426 148 426 c 128,-1,15
 170 426 170 426 185.5 410.5 c 128,-1,16
 201 395 201 395 201 373 c 128,-1,17
 201 351 201 351 185.5 335.5 c 128,-1,18
 170 320 170 320 148 320 c 128,-1,19
 126 320 126 320 110.5 335.5 c 128,-1,12
 95 351 95 351 95 373 c 128,-1,13
EndSplineSet
EndChar

StartChar: parenleft
Encoding: 40 40 129
Width: 273
Flags: HMW
HStem: -113 21G<169 169> 615 20G<328 328>
VStem: 41 74<99 213.5 77 247>
LayerCount: 2
Fore
SplineSet
335 620 m 1,0,1
 231 543 231 543 173 404.5 c 128,-1,2
 115 266 115 266 115 118.5 c 0,3,4
 115 -29 115 -29 183 -98 c 1,5,-1
 169 -113 l 1,6,7
 106 -74 106 -74 73.5 -3 c 128,-1,8
 41 68 41 68 41 155 c 0,9,10
 41 298 41 298 119.5 434.5 c 128,-1,11
 198 571 198 571 328 635 c 1,12,-1
 335 620 l 1,0,1
EndSplineSet
Position2: "'case' Case-Sensitive Forms in Latin lookup 0 per glyph data 0" dx=0 dy=35 dh=0 dv=0
EndChar

StartChar: parenright
Encoding: 41 41 130
Width: 273
Flags: HMW
HStem: -113 21G<-42 -42> 615 20G<117 117>
VStem: 172 74<311 423.5 275.5 445>
LayerCount: 2
Fore
SplineSet
-46 -98 m 1,0,1
 54 -22 54 -22 113 119 c 128,-1,2
 172 260 172 260 172 404.5 c 0,3,4
 172 549 172 549 105 620 c 1,5,-1
 117 635 l 1,6,7
 182 596 182 596 214 525.5 c 128,-1,8
 246 455 246 455 246 367 c 0,9,10
 246 224 246 224 167.5 87 c 128,-1,11
 89 -50 89 -50 -42 -113 c 1,12,-1
 -46 -98 l 1,0,1
EndSplineSet
Position2: "'case' Case-Sensitive Forms in Latin lookup 0 per glyph data 0" dx=0 dy=35 dh=0 dv=0
EndChar

StartChar: emdash
Encoding: 8212 8212 131
Width: 609
Flags: HMW
HStem: 211 40<30 609 39 600>
LayerCount: 2
Fore
SplineSet
30 211 m 1,0,-1
 39 251 l 1,1,-1
 609 251 l 1,2,-1
 600 211 l 1,3,-1
 30 211 l 1,0,-1
EndSplineSet
Position2: "'case' Case-Sensitive Forms in Latin lookup 0 per glyph data 0" dx=0 dy=35 dh=0 dv=0
EndChar

StartChar: endash
Encoding: 8211 8211 132
Width: 368
Flags: HMW
HStem: 211 40<30 368 39 359>
LayerCount: 2
Fore
SplineSet
30 211 m 1,0,-1
 39 251 l 1,1,-1
 368 251 l 1,2,-1
 359 211 l 1,3,-1
 30 211 l 1,0,-1
EndSplineSet
Position2: "'case' Case-Sensitive Forms in Latin lookup 0 per glyph data 0" dx=0 dy=35 dh=0 dv=0
EndChar

StartChar: underscore
Encoding: 95 95 133
Width: 406
Flags: HMW
HStem: -51 39<34 371 42 363>
LayerCount: 2
Fore
SplineSet
34 -51 m 1,0,-1
 42 -12 l 1,1,-1
 371 -12 l 1,2,-1
 363 -51 l 1,3,-1
 34 -51 l 1,0,-1
EndSplineSet
EndChar

StartChar: bracketleft
Encoding: 91 91 134
Width: 250
Flags: HMW
HStem: -113 21G<-8 -8> 610 20G<230 305 305 305> 616 20G<152 152>
LayerCount: 2
Fore
SplineSet
70 -75 m 1,0,-1
 69 -79 l 1,1,2
 69 -89 69 -89 80 -89 c 2,3,-1
 153 -89 l 1,4,-1
 149 -107 l 1,5,-1
 74 -107 l 2,6,7
 18 -107 18 -107 -8 -113 c 1,8,-1
 152 636 l 1,9,10
 174 630 174 630 230 630 c 2,11,-1
 305 630 l 1,12,-1
 302 612 l 1,13,-1
 229 612 l 2,14,15
 215 612 215 612 213 598 c 2,16,-1
 70 -75 l 1,0,-1
EndSplineSet
Position2: "'case' Case-Sensitive Forms in Latin lookup 0 per glyph data 0" dx=0 dy=35 dh=0 dv=0
EndChar

StartChar: bracketright
Encoding: 93 93 135
Width: 250
Flags: HMW
HStem: -113 21G<111 111> 610 20G<114 190 190 207> 616 20G<271 271>
LayerCount: 2
Fore
SplineSet
52 -75 m 1,0,-1
 195 598 l 1,1,-1
 195 600 l 2,2,3
 195 612 195 612 185 612 c 2,4,-1
 111 612 l 1,5,-1
 114 630 l 1,6,-1
 190 630 l 2,7,8
 247 630 247 630 271 636 c 1,9,-1
 111 -113 l 1,10,11
 91 -107 91 -107 34 -107 c 2,12,-1
 -42 -107 l 1,13,-1
 -38 -89 l 1,14,-1
 36 -89 l 2,15,16
 48 -89 48 -89 52 -75 c 1,0,-1
EndSplineSet
Position2: "'case' Case-Sensitive Forms in Latin lookup 0 per glyph data 0" dx=0 dy=35 dh=0 dv=0
EndChar

StartChar: onequarter
Encoding: 188 188 136
Width: 779
Flags: HMW
HStem: -74 21G<247 278 247 247> 0 21G<522 680 522 522> 88 24<488 593 652 669> 563 20G 628 20G<496 528 528 528>
LayerCount: 2
Fore
SplineSet
178 522 m 2,0,1
 178 523 178 523 179 527 c 1,2,3
 179 535 179 535 168 535 c 2,4,-1
 95 531 l 1,5,-1
 99 550 l 1,6,7
 217 568 217 568 253 583 c 1,8,9
 240 556 240 556 229 505 c 0,10,11
 173 244 173 244 173 237.5 c 128,-1,12
 173 231 173 231 184 231 c 2,13,-1
 230 231 l 1,14,-1
 226 213 l 1,15,-1
 28 213 l 1,16,-1
 32 231 l 1,17,-1
 102 231 l 2,18,19
 116 231 116 231 119 245 c 2,20,-1
 178 522 l 2,0,1
647 88 m 1,21,-1
 634 28 l 1,22,23
 634 18 634 18 645 18 c 2,24,-1
 684 18 l 1,25,-1
 680 0 l 1,26,-1
 522 0 l 1,27,-1
 526 18 l 1,28,-1
 564 18 l 2,29,30
 578 18 578 18 580 30 c 2,31,-1
 593 88 l 1,32,-1
 438 88 l 1,33,-1
 658 358 l 1,34,-1
 704 358 l 1,35,-1
 652 112 l 1,36,-1
 674 112 l 2,37,38
 686 112 686 112 690 126 c 2,39,-1
 694 143 l 1,40,-1
 711 143 l 1,41,-1
 692 57 l 1,42,-1
 675 57 l 1,43,44
 679 75 679 75 679 77 c 0,45,46
 679 88 679 88 669 88 c 2,47,-1
 647 88 l 1,21,-1
488 112 m 1,48,-1
 598 112 l 1,49,-1
 637 294 l 1,50,-1
 488 112 l 1,48,-1
278 -74 m 1,51,-1
 247 -74 l 1,52,-1
 496 648 l 1,53,-1
 528 648 l 1,54,-1
 278 -74 l 1,51,-1
EndSplineSet
EndChar

StartChar: fraction
Encoding: 8260 8260 137
Width: 319
Flags: HMW
HStem: -74 21G<19 50 19 19> 628 20G<268 300 300 300>
LayerCount: 2
Fore
SplineSet
50 -74 m 1,0,-1
 19 -74 l 1,1,-1
 268 648 l 1,2,-1
 300 648 l 1,3,-1
 50 -74 l 1,0,-1
EndSplineSet
EndChar

StartChar: question
Encoding: 63 63 138
Width: 337
Flags: HMW
HStem: -12 21G<100 126> 600 21<217.5 266.5>
VStem: 86 65 111 40<230.5 275.5 209.5 303> 313 60<478.5 550.5 449 556>
LayerCount: 2
Fore
SplineSet
255 621 m 0,0,1
 304 621 304 621 338.5 593 c 128,-1,2
 373 565 373 565 373 522 c 128,-1,3
 373 479 373 479 350 445.5 c 128,-1,4
 327 412 327 412 294.5 386 c 128,-1,5
 262 360 262 360 229.5 335 c 0,6,7
 151 274.615384615 151 274.615384615 151 219 c 0,8,9
 151 189 151 189 172 157 c 1,10,-1
 157 145 l 1,11,12
 111 198 111 198 111 245 c 0,13,14
 111 303.694915254 111 303.694915254 182.5 365.5 c 0,15,16
 212 391 212 391 241.5 417 c 0,17,18
 313 480.016949153 313 480.016949153 313 534 c 0,19,20
 313 565 313 565 294.5 582.5 c 128,-1,21
 276 600 276 600 251 600 c 0,22,23
 204 600 204 600 178 566.5 c 128,-1,24
 152 533 152 533 152 486 c 0,25,26
 152 473 152 473 155 461 c 1,27,28
 138 446 138 446 109 446 c 0,29,30
 86 446 86 446 86 479 c 0,31,32
 86 536 86 536 132.5 578.5 c 128,-1,33
 179 621 179 621 255 621 c 0,0,1
65 36 m 128,-1,35
 65 56 65 56 79.5 70 c 128,-1,36
 94 84 94 84 113 84 c 128,-1,37
 132 84 132 84 146.5 70 c 128,-1,38
 161 56 161 56 161 36 c 128,-1,39
 161 16 161 16 146.5 2 c 128,-1,40
 132 -12 132 -12 113 -12 c 128,-1,41
 94 -12 94 -12 79.5 2 c 128,-1,34
 65 16 65 16 65 36 c 128,-1,35
EndSplineSet
EndChar

StartChar: dotaccent
Encoding: 729 729 139
Width: 192
Flags: HMW
HStem: 500 21G<81.5 110.5> 586 20G<81.5 110.5>
VStem: 43 106<538.5 567.5>
LayerCount: 2
Fore
SplineSet
43 553 m 128,-1,1
 43 575 43 575 58.5 590.5 c 128,-1,2
 74 606 74 606 96 606 c 128,-1,3
 118 606 118 606 133.5 590.5 c 128,-1,4
 149 575 149 575 149 553 c 128,-1,5
 149 531 149 531 133.5 515.5 c 128,-1,6
 118 500 118 500 96 500 c 128,-1,7
 74 500 74 500 58.5 515.5 c 128,-1,0
 43 531 43 531 43 553 c 128,-1,1
EndSplineSet
EndChar

StartChar: ring
Encoding: 730 730 140
Width: 253
Flags: HMW
HStem: 493 21G<88.5 135.5> 621 20G<121.5 149> 640 20G<115.5 165.5>
VStem: 40 44<538 568 538 582.5> 170 43<570.5 612.5>
LayerCount: 2
Fore
SplineSet
59 509.5 m 128,-1,1
 40 526 40 526 40 561.5 c 128,-1,2
 40 597 40 597 70.5 628.5 c 128,-1,3
 101 660 101 660 138.5 660 c 0,4,5
 213 660 213 660 213 597 c 0,6,7
 213 550 213 550 182 521.5 c 128,-1,8
 151 493 151 493 114.5 493 c 128,-1,0
 78 493 78 493 59 509.5 c 128,-1,1
99 611.5 m 128,-1,10
 84 582 84 582 84 547 c 128,-1,11
 84 512 84 512 112 512 c 0,12,13
 131 512 131 512 150.5 536 c 128,-1,14
 170 560 170 560 170 589.5 c 0,15,16
 170 641 170 641 142 641 c 128,-1,9
 114 641 114 641 99 611.5 c 128,-1,10
EndSplineSet
EndChar

StartChar: questiondown
Encoding: 191 191 142
Width: 279
Flags: HMW
HStem: -189 21<41.5 90.5 41.5 106> 424 20G<182 208>
VStem: -65 60<-118.5 -46.5 -124 -17> 157 40<156.5 201.5 129 222.5> 157 65
LayerCount: 2
Fore
SplineSet
53 -189 m 0,0,1
 4 -189 4 -189 -30.5 -161 c 128,-1,2
 -65 -133 -65 -133 -65 -90 c 128,-1,3
 -65 -47 -65 -47 -42 -13.5 c 128,-1,4
 -19 20 -19 20 13.5 46 c 128,-1,5
 46 72 46 72 78.5 97 c 0,6,7
 157 157.384615385 157 157.384615385 157 213 c 0,8,9
 157 243 157 243 136 275 c 1,10,-1
 151 287 l 1,11,12
 197 234 197 234 197 187 c 0,13,14
 197 128.305084746 197 128.305084746 125.5 66.5 c 0,15,16
 96 41 96 41 66.5 15 c 0,17,18
 -5 -48.0169491525 -5 -48.0169491525 -5 -102 c 0,19,20
 -5 -133 -5 -133 13.5 -150.5 c 128,-1,21
 32 -168 32 -168 57 -168 c 0,22,23
 104 -168 104 -168 130 -134.5 c 128,-1,24
 156 -101 156 -101 156 -54 c 0,25,26
 156 -41 156 -41 153 -29 c 1,27,28
 170 -14 170 -14 199 -14 c 0,29,30
 222 -14 222 -14 222 -47 c 0,31,32
 222 -104 222 -104 175.5 -146.5 c 128,-1,33
 129 -189 129 -189 53 -189 c 0,0,1
243 396 m 128,-1,35
 243 376 243 376 228.5 362 c 128,-1,36
 214 348 214 348 195 348 c 128,-1,37
 176 348 176 348 161.5 362 c 128,-1,38
 147 376 147 376 147 396 c 128,-1,39
 147 416 147 416 161.5 430 c 128,-1,40
 176 444 176 444 195 444 c 128,-1,41
 214 444 214 444 228.5 430 c 128,-1,34
 243 416 243 416 243 396 c 128,-1,35
EndSplineSet
Position2: "'case' Case-Sensitive Forms in Latin lookup 0 per glyph data 1" dx=0 dy=200 dh=0 dv=0
EndChar

StartChar: backslash
Encoding: 92 92 143
Width: 319
Flags: HMW
HStem: -74 21G<268 301 268 268> 628 20G<18 52 52 52>
LayerCount: 2
Fore
SplineSet
301 -74 m 1,0,-1
 268 -74 l 1,1,-1
 18 648 l 1,2,-1
 52 648 l 1,3,-1
 301 -74 l 1,0,-1
EndSplineSet
EndChar

StartChar: exclamdown
Encoding: 161 161 144
Width: 260
Flags: HMW
HStem: -210 21G<26 51> 424 20G<154 180>
LayerCount: 2
Fore
SplineSet
130 262 m 1,0,-1
 154 262 l 1,1,2
 111 -33 111 -33 95 -151 c 0,3,4
 91 -178 91 -178 74.5 -194 c 128,-1,5
 58 -210 58 -210 37 -210 c 0,6,7
 3 -210 3 -210 3 -173 c 0,8,9
 3 -152 3 -152 25 -81.5 c 128,-1,10
 47 -11 47 -11 80 91.5 c 128,-1,11
 113 194 113 194 130 262 c 1,0,-1
215 396 m 128,-1,13
 215 376 215 376 200.5 362 c 128,-1,14
 186 348 186 348 167 348 c 128,-1,15
 148 348 148 348 133.5 362 c 128,-1,16
 119 376 119 376 119 396 c 128,-1,17
 119 416 119 416 133.5 430 c 128,-1,18
 148 444 148 444 167 444 c 128,-1,19
 186 444 186 444 200.5 430 c 128,-1,12
 215 416 215 416 215 396 c 128,-1,13
EndSplineSet
Position2: "'case' Case-Sensitive Forms in Latin lookup 0 per glyph data 1" dx=0 dy=200 dh=0 dv=0
EndChar

StartChar: caron
Encoding: 711 711 146
Width: 258
Flags: HMW
HStem: 494 21G<97 110.5> 624 20G<43 43 215 215>
LayerCount: 2
Fore
SplineSet
43 644 m 1,0,-1
 113 559 l 1,1,-1
 215 644 l 1,2,-1
 228 628 l 1,3,-1
 143 516 l 1,4,5
 125 494 125 494 102.5 494 c 0,6,7
 80 494 80 494 71 517 c 2,8,-1
 27 635 l 1,9,-1
 43 644 l 1,0,-1
EndSplineSet
EndChar

StartChar: scaron
Encoding: 353 353 148
Width: 379
Flags: HMW
HStem: -12 21<126 181 124 191> 420 24<207.5 258> 494 21G<240 253.5> 624 20G<186 186 358 358>
VStem: 87 52<292 349.5> 256 61<76 144.5>
LayerCount: 2
Fore
SplineSet
166 398 m 128,-1,1
 139 376 139 376 139 342 c 128,-1,2
 139 308 139 308 167 280 c 128,-1,3
 195 252 195 252 228 233.5 c 128,-1,4
 261 215 261 215 289 185 c 128,-1,5
 317 155 317 155 317 121 c 0,6,7
 317 57 317 57 267.5 22.5 c 128,-1,8
 218 -12 218 -12 148 -12 c 128,-1,9
 78 -12 78 -12 25 21 c 1,10,11
 42 55 42 55 57 139 c 1,12,-1
 74 136 l 1,13,14
 67 95 67 95 67 71.5 c 128,-1,15
 67 48 67 48 89.5 28.5 c 128,-1,16
 112 9 112 9 154.5 9 c 128,-1,17
 197 9 197 9 226.5 35 c 128,-1,18
 256 61 256 61 256 103 c 0,19,20
 256 130 256 130 229.5 155.5 c 128,-1,21
 203 181 203 181 171.5 198 c 128,-1,22
 140 215 140 215 113.5 246 c 128,-1,23
 87 277 87 277 87 314 c 0,24,25
 87 369 87 369 130.5 406.5 c 128,-1,26
 174 444 174 444 245 444 c 0,27,28
 300 444 300 444 354 417 c 1,29,30
 349 406 349 406 337.5 367 c 128,-1,31
 326 328 326 328 320 293 c 1,32,-1
 303 296 l 1,33,34
 309 328 309 328 309 357.5 c 128,-1,35
 309 387 309 387 289.5 403.5 c 128,-1,36
 270 420 270 420 231.5 420 c 128,-1,0
 193 420 193 420 166 398 c 128,-1,1
186 644 m 1,37,-1
 256 559 l 1,38,-1
 358 644 l 1,39,-1
 371 628 l 1,40,-1
 286 516 l 1,41,42
 268 494 268 494 245.5 494 c 128,-1,43
 223 494 223 494 214 517 c 2,44,-1
 170 635 l 1,45,-1
 186 644 l 1,37,-1
EndSplineSet
EndChar

StartChar: quoteright
Encoding: 8217 8217 149
Width: 208
Flags: HMW
HStem: 443 21G<68 68> 648 20G<153 181.5>
VStem: 125 83<539.5 639>
LayerCount: 2
Fore
SplineSet
60 457 m 1,0,1
 125 507 125 507 125 562 c 0,2,3
 125 592 125 592 104 611 c 1,4,5
 109 634 109 634 127.5 651 c 128,-1,6
 146 668 146 668 167 668 c 0,7,8
 208 668 208 668 208 627 c 128,-1,9
 208 586 208 586 167.5 529.5 c 128,-1,10
 127 473 127 473 68 443 c 1,11,-1
 60 457 l 1,0,1
EndSplineSet
EndChar

StartChar: quoteleft
Encoding: 8216 8216 150
Width: 78
Flags: HMW
HStem: 443 21G<26.5 55> 648 20G<140 140>
VStem: 0 83<472 571.5>
LayerCount: 2
Fore
SplineSet
148 654 m 1,0,1
 83 604 83 604 83 549 c 0,2,3
 83 519 83 519 104 500 c 1,4,5
 99 477 99 477 80.5 460 c 128,-1,6
 62 443 62 443 41 443 c 0,7,8
 0 443 0 443 0 484 c 128,-1,9
 0 525 0 525 40.5 581.5 c 128,-1,10
 81 638 81 638 140 668 c 1,11,-1
 148 654 l 1,0,1
EndSplineSet
EndChar

StartChar: cedilla
Encoding: 184 184 151
Width: 226
Flags: HMW
HStem: -216 21G<66 119.5> -20 20G<133 149 149 149>
VStem: 149 44<-138.5 -112.5>
LayerCount: 2
Fore
SplineSet
133 0 m 1,0,-1
 149 0 l 1,1,-1
 130 -46 l 1,2,3
 161 -52 161 -52 177 -72 c 128,-1,4
 193 -92 193 -92 193 -122.5 c 0,5,6
 193 -153 193 -153 163 -184.5 c 128,-1,7
 133 -216 133 -216 83 -216 c 0,8,9
 57 -216 57 -216 38.5 -199.5 c 128,-1,10
 20 -183 20 -183 20 -157.5 c 0,11,12
 20 -132 20 -132 31 -118.5 c 128,-1,13
 42 -105 42 -105 58.5 -105 c 0,14,15
 75 -105 75 -105 82 -112 c 1,16,17
 65 -133 65 -133 65 -163.5 c 0,18,19
 65 -194 65 -194 94 -194 c 0,20,21
 113 -194 113 -194 131 -175 c 128,-1,22
 149 -156 149 -156 149 -125 c 0,23,24
 149 -84 149 -84 102 -75 c 1,25,-1
 133 0 l 1,0,-1
EndSplineSet
EndChar

StartChar: Ccedilla
Encoding: 199 199 153
Width: 549
Flags: HMW
HStem: -216 21G<177 230.5> -20 20G<244 260 260 260 436 436 436 454> -12 29<220.5 308 220.5 309.5> 0 21G<244 260 260 260 436 436 436 454> 613 29<302 434.5> 616 20G<565 589>
VStem: 50 69<143.5 281 143.5 311> 260 44<-138.5 -112.5>
LayerCount: 2
Fore
SplineSet
437 14 m 1,0,-1
 438 22 l 1,1,2
 438 35 438 35 427 35 c 0,3,4
 419 35 419 35 396.5 23.5 c 0,5,6
 327.043478261 -12 327.043478261 -12 265 -12 c 0,7,8
 166 -12 166 -12 108 48 c 128,-1,9
 50 108 50 108 50 216 c 0,10,11
 50 289 50 289 74 363 c 128,-1,12
 98 437 98 437 141.5 500 c 128,-1,13
 185 563 185 563 254 602.5 c 128,-1,14
 323 642 323 642 404 642 c 0,15,16
 466.47826087 642 466.47826087 642 520.5 606.5 c 0,17,18
 538 595 538 595 546 595 c 0,19,20
 558 595 558 595 565 616 c 2,21,-1
 571 636 l 1,22,-1
 589 636 l 1,23,-1
 552 463 l 1,24,-1
 535 463 l 1,25,26
 536 471 536 471 536 486 c 0,27,28
 536 551 536 551 497.5 582 c 128,-1,29
 459 613 459 613 394 613 c 128,-1,30
 329 613 329 613 274 571 c 128,-1,31
 219 529 219 529 186.5 465.5 c 0,32,33
 119 333.615384615 119 333.615384615 119 204 c 0,34,35
 119 115 119 115 158 66 c 128,-1,36
 197 17 197 17 266 17 c 128,-1,37
 335 17 335 17 391 53.5 c 128,-1,38
 447 90 447 90 472 167 c 1,39,-1
 489 167 l 1,40,-1
 454 0 l 1,41,-1
 436 0 l 1,42,-1
 437 14 l 1,0,-1
244 0 m 1,43,-1
 260 0 l 1,44,-1
 241 -46 l 1,45,46
 272 -52 272 -52 288 -72 c 128,-1,47
 304 -92 304 -92 304 -122.5 c 128,-1,48
 304 -153 304 -153 274 -184.5 c 128,-1,49
 244 -216 244 -216 194 -216 c 0,50,51
 168 -216 168 -216 149.5 -199.5 c 128,-1,52
 131 -183 131 -183 131 -157.5 c 128,-1,53
 131 -132 131 -132 142 -118.5 c 128,-1,54
 153 -105 153 -105 169.5 -105 c 128,-1,55
 186 -105 186 -105 193 -112 c 1,56,57
 176 -133 176 -133 176 -163.5 c 128,-1,58
 176 -194 176 -194 205 -194 c 0,59,60
 224 -194 224 -194 242 -175 c 128,-1,61
 260 -156 260 -156 260 -125 c 0,62,63
 260 -84 260 -84 213 -75 c 1,64,-1
 244 0 l 1,43,-1
EndSplineSet
Position2: "'cpsp' Capital Spacing in Latin lookup 1 subtable" dx=0 dy=0 dh=40 dv=0
EndChar

StartChar: bar
Encoding: 124 124 154
Width: 236
Flags: HMW
HStem: -107 21G<82 82 82 154> 610 20G<82 154 154 154>
VStem: 82 72<-107 630 -107 630>
LayerCount: 2
Fore
SplineSet
82 -107 m 1,0,-1
 82 630 l 1,1,-1
 154 630 l 1,2,-1
 154 -107 l 1,3,-1
 82 -107 l 1,0,-1
EndSplineSet
Position2: "'case' Case-Sensitive Forms in Latin lookup 0 per glyph data 0" dx=0 dy=35 dh=0 dv=0
EndChar

StartChar: braceleft
Encoding: 123 123 155
Width: 274
Flags: HMW
HStem: -113 21G<150 150> 615 20G<309 309>
VStem: 64 62<18.5 40 -18 95> 64 102
LayerCount: 2
Fore
SplineSet
128 263 m 1,0,-1
 128 259 l 1,1,2
 166 259 166 259 166 220 c 0,3,4
 166 204 166 204 146 124.5 c 128,-1,5
 126 45 126 45 126 -7 c 128,-1,6
 126 -59 126 -59 164 -98 c 1,7,-1
 150 -113 l 1,8,9
 64 -59 64 -59 64 53 c 0,10,11
 64 120 64 120 78.5 178 c 128,-1,12
 93 236 93 236 93 241 c 0,13,14
 93 252 93 252 83 252 c 2,15,-1
 45 252 l 1,16,-1
 49 270 l 1,17,-1
 87 270 l 2,18,19
 100 270 100 270 103 284 c 2,20,-1
 115 341 l 2,21,22
 149.690833043 508.146741025 149.690833043 508.146741025 229.5 582 c 0,23,24
 263 613 263 613 309 635 c 1,25,-1
 316 620 l 1,26,27
 250.140540541 573.34954955 250.140540541 573.34954955 227 497.5 c 0,28,29
 215.837563452 460.912013536 215.837563452 460.912013536 205.418781726 403.956006768 c 128,-1,30
 195 347 195 347 190 322 c 0,31,32
 177 263 177 263 128 263 c 1,0,-1
EndSplineSet
Position2: "'case' Case-Sensitive Forms in Latin lookup 0 per glyph data 0" dx=0 dy=35 dh=0 dv=0
EndChar

StartChar: braceright
Encoding: 125 125 156
Width: 255
Flags: HMW
HStem: -113 21G<-26 -26> 615 20G<133 133>
VStem: 117 102 157 62<482 503.5 427 540>
LayerCount: 2
Fore
SplineSet
155 259 m 1,0,-1
 155 263 l 1,1,2
 117 263 117 263 117 302 c 0,3,4
 117 318 117 318 137 397.5 c 128,-1,5
 157 477 157 477 157 529 c 128,-1,6
 157 581 157 581 119 620 c 1,7,-1
 133 635 l 1,8,9
 219 581 219 581 219 469 c 0,10,11
 219 410.285714286 219 410.285714286 204.5 348.142857143 c 128,-1,12
 190 286 190 286 190 281 c 0,13,14
 190 270 190 270 200 270 c 2,15,-1
 238 270 l 1,16,-1
 234 252 l 1,17,-1
 196 252 l 2,18,19
 184 252 184 252 180 238 c 1,20,-1
 168 181 l 2,21,22
 133.309166957 13.8532589753 133.309166957 13.8532589753 53.5 -60 c 0,23,24
 20 -91 20 -91 -26 -113 c 1,25,-1
 -33 -98 l 1,26,27
 32.8594594595 -51.3495495495 32.8594594595 -51.3495495495 56 24.5 c 0,28,29
 67.1624365482 61.0879864636 67.1624365482 61.0879864636 77.5812182741 118.043993232 c 128,-1,30
 88 175 88 175 93 200 c 0,31,32
 106 259 106 259 155 259 c 1,0,-1
EndSplineSet
Position2: "'case' Case-Sensitive Forms in Latin lookup 0 per glyph data 0" dx=0 dy=35 dh=0 dv=0
EndChar

StartChar: asterisk
Encoding: 42 42 157
Width: 398
Flags: HMW
HStem: 341 21G<139.5 167 281 311> 640 20G<279.5 300>
LayerCount: 2
Fore
SplineSet
250 499 m 1,0,-1
 246 599 l 1,1,2
 246 628 246 628 259 644 c 128,-1,3
 272 660 272 660 292 660 c 0,4,5
 319 660 319 660 319 632 c 0,6,7
 319 624 319 624 317 615.5 c 128,-1,8
 315 607 315 607 295.5 566 c 128,-1,9
 276 525 276 525 266 499 c 1,10,11
 289 512 289 512 320 531 c 0,12,13
 378.736842105 567 378.736842105 567 392.868421053 567 c 128,-1,14
 407 567 407 567 415 558.5 c 128,-1,15
 423 550 423 550 423 535.5 c 128,-1,16
 423 521 423 521 417.5 511.5 c 128,-1,17
 412 502 412 502 396.5 497.5 c 128,-1,18
 381 493 381 493 366.5 491.5 c 128,-1,19
 352 490 352 490 321 488 c 128,-1,20
 290 486 290 486 266 483 c 1,21,22
 281 465 281 465 303 443.5 c 128,-1,23
 325 422 325 422 334.5 410 c 128,-1,24
 344 398 344 398 344 383.5 c 128,-1,25
 344 369 344 369 330 355 c 128,-1,26
 316 341 316 341 299.5 341 c 128,-1,27
 283 341 283 341 276.5 353 c 128,-1,28
 270 365 270 365 264 406.5 c 128,-1,29
 258 448 258 448 252 474 c 1,30,31
 221.666666667 425 221.666666667 425 208.333333333 401 c 128,-1,32
 195 377 195 377 186 364.5 c 0,33,34
 169.08 341 169.08 341 152.54 341 c 128,-1,35
 136 341 136 341 128 350 c 128,-1,36
 120 359 120 359 120 371.5 c 128,-1,37
 120 384 120 384 130 396.5 c 128,-1,38
 140 409 140 409 153 418.5 c 128,-1,39
 166 428 166 428 193.5 447 c 128,-1,40
 221 466 221 466 242 483 c 1,41,42
 220 486 220 486 195 487.5 c 128,-1,43
 170 489 170 489 156 490 c 128,-1,44
 142 491 142 491 129 493.5 c 0,45,46
 105 498.115384615 105 498.115384615 105 518.057692308 c 128,-1,47
 105 538 105 538 118 552.5 c 128,-1,48
 131 567 131 567 145 567 c 128,-1,49
 159 567 159 567 172 558.5 c 128,-1,50
 185 550 185 550 208 531 c 128,-1,51
 231 512 231 512 250 499 c 1,0,-1
EndSplineSet
EndChar

StartChar: degree
Encoding: 176 176 158
Width: 258
Flags: HMW
HStem: 430 34<168 207.5 168 217> 605 34<180 217.5>
VStem: 90 35<509.5 547.5 509.5 556> 263 35<521.5 560.5>
LayerCount: 2
Fore
SplineSet
122.5 605 m 128,-1,1
 155 639 155 639 197.5 639 c 128,-1,2
 240 639 240 639 269 611.5 c 128,-1,3
 298 584 298 584 298 541 c 128,-1,4
 298 498 298 498 265 464 c 128,-1,5
 232 430 232 430 188 430 c 128,-1,6
 144 430 144 430 117 458 c 128,-1,7
 90 486 90 486 90 528.5 c 128,-1,0
 90 571 90 571 122.5 605 c 128,-1,1
244.5 587 m 128,-1,9
 226 605 226 605 198 605 c 128,-1,10
 170 605 170 605 147.5 581.5 c 128,-1,11
 125 558 125 558 125 529 c 128,-1,12
 125 500 125 500 142 482 c 128,-1,13
 159 464 159 464 188.5 464 c 128,-1,14
 218 464 218 464 240.5 487.5 c 128,-1,15
 263 511 263 511 263 540 c 128,-1,8
 263 569 263 569 244.5 587 c 128,-1,9
EndSplineSet
EndChar

StartChar: plus
Encoding: 43 43 159
Width: 505
Flags: HMW
HStem: 0 21G<199 249 199 199> 170 53<85 235 74 246 296 447 85 285> 372 20G<282 332 332 332>
LayerCount: 2
Fore
SplineSet
332 392 m 1,0,-1
 296 223 l 1,1,-1
 458 223 l 1,2,-1
 447 170 l 1,3,-1
 285 170 l 1,4,-1
 249 0 l 1,5,-1
 199 0 l 1,6,-1
 235 170 l 1,7,-1
 74 170 l 1,8,-1
 85 223 l 1,9,-1
 246 223 l 1,10,-1
 282 392 l 1,11,-1
 332 392 l 1,0,-1
EndSplineSet
EndChar

StartChar: minus
Encoding: 8722 8722 160
Width: 505
Flags: HMW
HStem: 170 53<85 447 74 458>
LayerCount: 2
Fore
SplineSet
447 170 m 1,0,-1
 74 170 l 1,1,-1
 85 223 l 1,2,-1
 458 223 l 1,3,-1
 447 170 l 1,0,-1
EndSplineSet
EndChar

StartChar: equal
Encoding: 61 61 161
Width: 505
Flags: HMW
HStem: 85 53<39 401 28 412> 255 53<75 437 64 448>
LayerCount: 2
Fore
SplineSet
437 255 m 1,0,-1
 64 255 l 1,1,-1
 75 308 l 1,2,-1
 448 308 l 1,3,-1
 437 255 l 1,0,-1
401 85 m 1,4,-1
 28 85 l 1,5,-1
 39 138 l 1,6,-1
 412 138 l 1,7,-1
 401 85 l 1,4,-1
EndSplineSet
EndChar

StartChar: dollar
Encoding: 36 36 162
Width: 440
Flags: HMW
HStem: -101 21G<129 159 129 129> -12 24<136.5 201.5 136.5 214.5> 551 28<246 311.5> 647 20G<292 322 322 322>
VStem: 16 61<62 87.5 58 109> 94 64<402.5 428.5> 307 75<119.5 159.5> 355 64<476 506>
LayerCount: 2
Fore
SplineSet
155 -12 m 0,0,1
 90 -12 90 -12 53 17 c 128,-1,2
 16 46 16 46 16 90 c 0,3,4
 16 120 16 120 30 144 c 128,-1,5
 44 168 44 168 68 168 c 0,6,7
 92 168 92 168 106 152 c 1,8,9
 77 115 77 115 77 82 c 0,10,11
 77 49 77 49 100.5 30.5 c 128,-1,12
 124 12 124 12 160 12 c 0,13,14
 220 12 220 12 263.5 53.5 c 128,-1,15
 307 95 307 95 307 147 c 0,16,17
 307 199 307 199 250 230 c 2,18,-1
 160 278 l 1,19,20
 94 312 94 312 94 384.5 c 0,21,22
 94 457 94 457 149 518 c 128,-1,23
 204 579 204 579 294 579 c 0,24,25
 357 579 357 579 388 552 c 128,-1,26
 419 525 419 525 419 487.5 c 0,27,28
 419 450 419 450 405.5 424.5 c 128,-1,29
 392 399 392 399 367 399 c 0,30,31
 342 399 342 399 329 414 c 1,32,33
 355 457 355 457 355 486.5 c 0,34,35
 355 516 355 516 338 533.5 c 128,-1,36
 321 551 321 551 288 551 c 0,37,38
 229 551 229 551 193.5 509.5 c 128,-1,39
 158 468 158 468 158 417 c 0,40,41
 158 366 158 366 212 338 c 2,42,-1
 304 290 l 2,43,44
 382 249 382 249 382 172 c 128,-1,45
 382 95 382 95 314 41.5 c 128,-1,46
 246 -12 246 -12 155 -12 c 0,0,1
159 -101 m 1,47,-1
 129 -101 l 1,48,-1
 292 667 l 1,49,-1
 322 667 l 1,50,-1
 159 -101 l 1,47,-1
EndSplineSet
EndChar

StartChar: sterling
Encoding: 163 163 163
Width: 440
Flags: HMW
HStem: -12 20<25.5 52 25.5 96> -12 69<227 285> 82 23<37 89 34 89.5> 247 31<42 315 35 322> 551 28<288.5 341>
VStem: 114 72<284.5 403> 378 63<479.5 509.5>
LayerCount: 2
Fore
SplineSet
117 168 m 1,0,-1
 114 312 l 1,1,2
 114 377 114 377 135.5 430 c 128,-1,3
 157 483 157 483 190 514.5 c 0,4,5
 257.571428571 579 257.571428571 579 333 579 c 0,6,7
 389 579 389 579 415 554.5 c 128,-1,8
 441 530 441 530 441 492 c 128,-1,9
 441 454 441 454 427.5 426.5 c 128,-1,10
 414 399 414 399 390 399 c 128,-1,11
 366 399 366 399 349 414 c 1,12,13
 378 454 378 454 378 493 c 0,14,15
 378 551 378 551 321 551 c 128,-1,16
 264 551 264 551 225 495.5 c 128,-1,17
 186 440 186 440 186 307 c 0,18,19
 186 187.935483871 186 187.935483871 157.5 96 c 0,20,21
 142 46 142 46 110 17 c 128,-1,22
 78 -12 78 -12 32 -12 c 0,23,24
 6 -12 6 -12 -7 2.5 c 128,-1,25
 -20 17 -20 17 -20 39.5 c 128,-1,26
 -20 62 -20 62 2 83.5 c 128,-1,27
 24 105 24 105 55.5 105 c 128,-1,28
 87 105 87 105 156 81 c 128,-1,29
 225 57 225 57 266 57 c 0,30,31
 337 57 337 57 373 148 c 1,32,-1
 396 144 l 1,33,34
 369 58 369 58 335 23 c 128,-1,35
 301 -12 301 -12 261.5 -12 c 128,-1,36
 222 -12 222 -12 190.5 2.5 c 128,-1,37
 159 17 159 17 141.5 35 c 0,38,39
 95.8055555556 82 95.8055555556 82 52 82 c 0,40,41
 31 82 31 82 17.5 68 c 128,-1,42
 4 54 4 54 4 37 c 0,43,44
 4 8 4 8 35 8 c 128,-1,45
 66 8 66 8 91.5 46.5 c 128,-1,46
 117 85 117 85 117 168 c 1,0,-1
322 278 m 1,47,-1
 315 247 l 1,48,-1
 35 247 l 1,49,-1
 42 278 l 1,50,-1
 322 278 l 1,47,-1
EndSplineSet
EndChar

StartChar: guillemotleft
Encoding: 171 171 164
Width: 375
Flags: HMW
HStem: 54 21G<149 149 291 291> 388 20G<224 224 366 366>
LayerCount: 2
Fore
SplineSet
175 225 m 1,0,-1
 178 237 l 1,1,-1
 366 408 l 1,2,-1
 378 394 l 1,3,-1
 255 231 l 1,4,-1
 309 68 l 1,5,-1
 291 54 l 1,6,-1
 175 225 l 1,0,-1
33 225 m 1,7,-1
 36 237 l 1,8,-1
 224 408 l 1,9,-1
 237 394 l 1,10,-1
 113 231 l 1,11,-1
 168 68 l 1,12,-1
 149 54 l 1,13,-1
 33 225 l 1,7,-1
EndSplineSet
Position2: "'case' Case-Sensitive Forms in Latin lookup 0 per glyph data 0" dx=0 dy=35 dh=0 dv=0
EndChar

StartChar: guillemotright
Encoding: 187 187 165
Width: 375
Flags: HMW
HStem: 54 21G<28 28 170 170> 388 20G<103 103 245 245>
LayerCount: 2
Fore
SplineSet
219 237 m 1,0,-1
 216 225 l 1,1,-1
 28 54 l 1,2,-1
 16 68 l 1,3,-1
 140 231 l 1,4,-1
 85 394 l 1,5,-1
 103 408 l 1,6,-1
 219 237 l 1,0,-1
361 237 m 1,7,-1
 358 225 l 1,8,-1
 170 54 l 1,9,-1
 158 68 l 1,10,-1
 282 231 l 1,11,-1
 227 394 l 1,12,-1
 245 408 l 1,13,-1
 361 237 l 1,7,-1
EndSplineSet
Position2: "'case' Case-Sensitive Forms in Latin lookup 0 per glyph data 0" dx=0 dy=35 dh=0 dv=0
EndChar

StartChar: guilsinglleft
Encoding: 8249 8249 166
Width: 234
Flags: HMW
HStem: 54 21G<146 146> 388 20G<221 221>
LayerCount: 2
Fore
SplineSet
30 225 m 1,0,-1
 33 237 l 1,1,-1
 221 408 l 1,2,-1
 234 394 l 1,3,-1
 110 231 l 1,4,-1
 165 68 l 1,5,-1
 146 54 l 1,6,-1
 30 225 l 1,0,-1
EndSplineSet
Position2: "'case' Case-Sensitive Forms in Latin lookup 0 per glyph data 0" dx=0 dy=35 dh=0 dv=0
EndChar

StartChar: guilsinglright
Encoding: 8250 8250 167
Width: 234
Flags: HMW
HStem: 54 21G<24 24> 388 20G<99 99>
LayerCount: 2
Fore
SplineSet
215 237 m 1,0,-1
 212 225 l 1,1,-1
 24 54 l 1,2,-1
 12 68 l 1,3,-1
 136 231 l 1,4,-1
 81 394 l 1,5,-1
 99 408 l 1,6,-1
 215 237 l 1,0,-1
EndSplineSet
Position2: "'case' Case-Sensitive Forms in Latin lookup 0 per glyph data 0" dx=0 dy=35 dh=0 dv=0
EndChar

StartChar: divide
Encoding: 247 247 168
Width: 505
Flags: HMW
HStem: 9 21G<219.5 242> 170 53<85 447 74 458> 364 20G<296 321>
LayerCount: 2
Fore
SplineSet
447 170 m 1,0,-1
 74 170 l 1,1,-1
 85 223 l 1,2,-1
 458 223 l 1,3,-1
 447 170 l 1,0,-1
288 66 m 1,4,5
 285.08041958 39.7237762238 285.08041958 39.7237762238 266.54020979 24.3618881119 c 128,-1,6
 248 9 248 9 231 9 c 128,-1,7
 214 9 214 9 204.5 19.5 c 128,-1,8
 195 30 195 30 195 49 c 128,-1,9
 195 68 195 68 212.5 86.5 c 128,-1,10
 230 105 230 105 248.5 105 c 128,-1,11
 267 105 267 105 277.5 94 c 128,-1,12
 288 83 288 83 288 66 c 1,4,5
347 345 m 1,13,14
 344.076923077 318.692307692 344.076923077 318.692307692 326.538461538 303.346153846 c 128,-1,15
 309 288 309 288 291.5 288 c 128,-1,16
 274 288 274 288 264 298.5 c 128,-1,17
 254 309 254 309 254 328.5 c 128,-1,18
 254 348 254 348 271.5 366 c 128,-1,19
 289 384 289 384 307.5 384 c 128,-1,20
 326 384 326 384 336.5 373 c 128,-1,21
 347 362 347 362 347 345 c 1,13,14
EndSplineSet
EndChar

StartChar: multiply
Encoding: 215 215 169
Width: 505
Flags: HMW
HStem: 28 21G<353 353> 344 20G<425 425>
LayerCount: 2
Fore
SplineSet
178 363 m 1,0,-1
 273 233 l 1,1,-1
 425 364 l 1,2,-1
 452 326 l 1,3,-1
 301 196 l 1,4,-1
 397 66 l 1,5,-1
 353 28 l 1,6,-1
 257 158 l 1,7,-1
 107 29 l 1,8,-1
 79 66 l 1,9,-1
 230 196 l 1,10,-1
 134 326 l 1,11,-1
 178 363 l 1,0,-1
EndSplineSet
EndChar

StartChar: percent
Encoding: 37 37 170
Width: 879
Flags: HMW
HStem: -74 21G<299 330 299 299> -8 20<604 647 604 672.5> 205 20<177 220 177 245.5> 559 20G<206.5 295.5> 628 20G<548 580 580 580>
VStem: 90 56<287 360.5 284 372.5> 307 55<425.5 498.5 413 501.5> 517 56<74 147.5 71 159.5> 734 55<212.5 285.5 200 288.5>
LayerCount: 2
Fore
SplineSet
115.5 236.5 m 128,-1,1
 90 268 90 268 90 322.5 c 128,-1,2
 90 377 90 377 108 433 c 128,-1,3
 126 489 126 489 168.5 534 c 128,-1,4
 211 579 211 579 261 579 c 128,-1,5
 311 579 311 579 336.5 548 c 128,-1,6
 362 517 362 517 362 463 c 128,-1,7
 362 409 362 409 344 352.5 c 128,-1,8
 326 296 326 296 283.5 250.5 c 128,-1,9
 241 205 241 205 191 205 c 128,-1,0
 141 205 141 205 115.5 236.5 c 128,-1,1
262 560 m 0,10,11
 220 560 220 560 183 475 c 128,-1,12
 146 390 146 390 146 307.5 c 128,-1,13
 146 225 146 225 191 225 c 0,14,15
 219 225 219 225 246.5 267 c 128,-1,16
 274 309 274 309 290.5 367 c 128,-1,17
 307 425 307 425 307 470 c 0,18,19
 307 560 307 560 262 560 c 0,10,11
542.5 23.5 m 128,-1,21
 517 55 517 55 517 109.5 c 128,-1,22
 517 164 517 164 535 220 c 128,-1,23
 553 276 553 276 595.5 321 c 128,-1,24
 638 366 638 366 688 366 c 128,-1,25
 738 366 738 366 763.5 335 c 128,-1,26
 789 304 789 304 789 250 c 128,-1,27
 789 196 789 196 771 139.5 c 128,-1,28
 753 83 753 83 710.5 37.5 c 128,-1,29
 668 -8 668 -8 618 -8 c 128,-1,20
 568 -8 568 -8 542.5 23.5 c 128,-1,21
689 347 m 0,30,31
 647 347 647 347 610 262 c 128,-1,32
 573 177 573 177 573 94.5 c 128,-1,33
 573 12 573 12 618 12 c 0,34,35
 646 12 646 12 673.5 54 c 128,-1,36
 701 96 701 96 717.5 154 c 128,-1,37
 734 212 734 212 734 257 c 0,38,39
 734 347 734 347 689 347 c 0,30,31
330 -74 m 1,40,-1
 299 -74 l 1,41,-1
 548 648 l 1,42,-1
 580 648 l 1,43,-1
 330 -74 l 1,40,-1
EndSplineSet
EndChar

StartChar: cent
Encoding: 162 162 171
Width: 412
Flags: HMW
HStem: -55 21G<151 181 151 151> 478 24<269 269> 601 20G<294 324 324 324>
VStem: 36 72<175.5 292.5 170.5 305> 332 64<409.5 438>
LayerCount: 2
Fore
SplineSet
181 -55 m 1,0,-1
 151 -55 l 1,1,-1
 176 65 l 1,2,3
 112 70 112 70 74 111.5 c 128,-1,4
 36 153 36 153 36 223 c 0,5,6
 36 340 36 340 106.5 416.5 c 128,-1,7
 177 493 177 493 269 502 c 1,8,-1
 294 621 l 1,9,-1
 324 621 l 1,10,-1
 299 502 l 1,11,12
 349 500 349 500 372.5 476 c 128,-1,13
 396 452 396 452 396 419 c 0,14,15
 396 386 396 386 384 358.5 c 128,-1,16
 372 331 372 331 345.5 331 c 0,17,18
 319 331 319 331 306 346 c 1,19,20
 332 388 332 388 332 423 c 0,21,22
 332 478 332 478 283 478 c 0,23,24
 218 478 218 478 163 402.5 c 128,-1,25
 108 327 108 327 108 209 c 0,26,27
 108 152 108 152 132 120.5 c 128,-1,28
 156 89 156 89 201.5 89 c 0,29,30
 247 89 247 89 288.5 116 c 128,-1,31
 330 143 330 143 353 192 c 1,32,-1
 371 187 l 1,33,34
 347 133 347 133 302 100.5 c 128,-1,35
 257 68 257 68 206 64 c 1,36,-1
 181 -55 l 1,0,-1
EndSplineSet
EndChar

StartChar: florin
Encoding: 402 402 172
Width: 440
Flags: HMW
HStem: -222 21G<-15 -15> 247 31<60 141 55 146 213 335> 554 25<306 351.5>
VStem: 375 66<490 517>
LayerCount: 2
Fore
SplineSet
232 390 m 2,0,-1
 213 278 l 1,1,-1
 340 278 l 1,2,-1
 335 247 l 1,3,-1
 209 247 l 1,4,-1
 154 -87 l 2,5,6
 143 -152 143 -152 107 -182.5 c 128,-1,7
 71 -213 71 -213 -15 -222 c 1,8,-1
 -15 -198 l 1,9,10
 73 -180 73 -180 85 -105 c 2,11,12
 141 247 l 1,13,-1
 55 247 l 1,14,-1
 60 278 l 1,15,-1
 146 278 l 1,16,17
 203 579 203 579 342 579 c 0,18,19
 391 579 391 579 416 556 c 128,-1,20
 441 533 441 533 441 498.5 c 128,-1,21
 441 464 441 464 426 435.5 c 128,-1,22
 411 407 411 407 386 407 c 128,-1,23
 361 407 361 407 350 422 c 1,24,25
 375 467 375 467 375 503 c 0,26,27
 375 554 375 554 338 554 c 0,28,29
 293 554 293 554 269 511.5 c 128,-1,30
 245 469 245 469 232 390 c 2,0,-1
EndSplineSet
EndChar

StartChar: at
Encoding: 64 64 173
Width: 795
Flags: HMW
HStem: -137 36<292 368> -52 36<524.5 569 524.5 574> 0 34<313.5 328.5> 373 25<509 517> 502 36<336.5 502.5>
VStem: 58 36<96.5 263.5 96.5 271> 199 75<90.5 185.5> 448 34<21 54.5> 699 36<149.5 304>
LayerCount: 2
Fore
SplineSet
457 115 m 1,0,-1
 451 115 l 1,1,2
 423 53 423 53 384 26.5 c 128,-1,3
 345 0 345 0 300 0 c 128,-1,4
 255 0 255 0 227 35 c 128,-1,5
 199 70 199 70 199 121 c 128,-1,6
 199 172 199 172 219.5 218.5 c 128,-1,7
 240 265 240 265 278 305.5 c 128,-1,8
 316 346 316 346 378.5 371.5 c 128,-1,9
 441 397 441 397 517 398 c 1,10,-1
 528 432 l 1,11,-1
 554 432 l 1,12,-1
 490 115 l 2,13,14
 482 73 482 73 482 42 c 128,-1,15
 482 11 482 11 497.5 -2.5 c 128,-1,16
 513 -16 513 -16 538 -16 c 0,17,18
 592 -16 592 -16 645.5 52 c 128,-1,19
 699 120 699 120 699 231.5 c 128,-1,20
 699 343 699 343 620 422.5 c 128,-1,21
 541 502 541 502 416.5 502 c 128,-1,22
 292 502 292 502 193 404.5 c 128,-1,23
 94 307 94 307 94 182 c 128,-1,24
 94 57 94 57 173.5 -22 c 128,-1,25
 253 -101 253 -101 371 -101 c 1,26,-1
 368 -137 l 1,27,28
 236 -137 236 -137 147 -48.5 c 128,-1,29
 58 40 58 40 58 171 c 0,30,31
 58 320 58 320 169 429 c 128,-1,32
 280 538 280 538 419 538 c 128,-1,33
 558 538 558 538 646.5 449 c 128,-1,34
 735 360 735 360 735 232.5 c 128,-1,35
 735 105 735 105 669 26.5 c 128,-1,36
 603 -52 603 -52 534 -52 c 0,37,38
 448 -52 448 -52 448 43 c 0,39,40
 448 72 448 72 457 115 c 1,0,-1
509 373 m 1,41,42
 411 367 411 367 342.5 295 c 128,-1,43
 274 223 274 223 274 120 c 0,44,45
 274 77 274 77 289 55.5 c 128,-1,46
 304 34 304 34 331 34 c 128,-1,47
 358 34 358 34 385 58.5 c 128,-1,48
 412 83 412 83 432 124 c 0,49,50
 465.942093541 193.581291759 465.942093541 193.581291759 490 292 c 2,51,-1
 509 373 l 1,41,42
EndSplineSet
EndChar

StartChar: germandbls
Encoding: 223 223 174
Width: 483
Flags: HMW
HStem: -228 23<-48 -6.5 -48 -5> -12 22<271 314.5 271 332> 637 23<320.5 385>
VStem: -125 54<-169.5 -149.5 -174 -136> 184 54<40.5 64.5 40.5 82> 264 58<294.5 314.5> 390 57<104 110> 441 57<504 577 504 579.5>
LayerCount: 2
Fore
SplineSet
423 490 m 128,-1,1
 441 523 441 523 441 557.5 c 128,-1,2
 441 592 441 592 419 614.5 c 128,-1,3
 397 637 397 637 359 637 c 0,4,5
 257 637 257 637 222 471 c 2,6,-1
 128 32 l 2,7,8
 73 -228 73 -228 -45 -228 c 0,9,10
 -83 -228 -83 -228 -104 -205 c 128,-1,11
 -125 -182 -125 -182 -125 -153.5 c 128,-1,12
 -125 -125 -125 -125 -113.5 -102.5 c 128,-1,13
 -102 -80 -102 -80 -77 -80 c 128,-1,14
 -52 -80 -52 -80 -41 -93 c 1,15,16
 -54 -103 -54 -103 -62.5 -123 c 128,-1,17
 -71 -143 -71 -143 -71 -162 c 0,18,19
 -71 -205 -71 -205 -35 -205 c 0,20,21
 5 -205 5 -205 26.5 -141 c 128,-1,22
 48 -77 48 -77 84 106 c 2,23,-1
 142 402 l 2,24,25
 165 520 165 520 220 590 c 128,-1,26
 275 660 275 660 354.5 660 c 128,-1,27
 434 660 434 660 466 628.5 c 128,-1,28
 498 597 498 597 498 559 c 128,-1,29
 498 521 498 521 470.5 482.5 c 128,-1,30
 443 444 443 444 410 416.5 c 128,-1,31
 377 389 377 389 349.5 358 c 128,-1,32
 322 327 322 327 322 305 c 128,-1,33
 322 283 322 283 356 254 c 2,34,-1
 401 216 l 2,35,36
 447 177 447 177 447 137 c 0,37,38
 447 83 447 83 400 35.5 c 128,-1,39
 353 -12 353 -12 282 -12 c 0,40,41
 239 -12 239 -12 211.5 7.5 c 128,-1,42
 184 27 184 27 184 60 c 128,-1,43
 184 93 184 93 196 115.5 c 128,-1,44
 208 138 208 138 230.5 138 c 128,-1,45
 253 138 253 138 262 124 c 1,46,47
 238 83 238 83 238 54 c 0,48,49
 238 10 238 10 287 10 c 0,50,51
 327 10 327 10 358.5 38.5 c 128,-1,52
 390 67 390 67 390 96.5 c 128,-1,53
 390 126 390 126 354 157 c 2,54,-1
 296 206 l 2,55,56
 264 233 264 233 264 262 c 128,-1,57
 264 291 264 291 282 320.5 c 128,-1,58
 300 350 300 350 326 376.5 c 128,-1,59
 352 403 352 403 378.5 430 c 128,-1,0
 405 457 405 457 423 490 c 128,-1,1
52 396 m 1,60,-1
 57 415 l 1,61,-1
 204 415 l 1,62,-1
 199 396 l 1,63,-1
 52 396 l 1,60,-1
EndSplineSet
Position2: "'cpsp' Capital Spacing in Latin lookup 1 subtable" dx=0 dy=0 dh=40 dv=0
EndChar

StartChar: onehalf
Encoding: 189 189 175
Width: 779
Flags: HMW
HStem: -74 21G<247 278 247 247> -8 21G 0 45<531 615> 563 20G 628 20G<496 528 528 528>
VStem: 684 58<285 313.5>
LayerCount: 2
Fore
SplineSet
178 522 m 2,0,1
 178 523 178 523 179 527 c 1,2,3
 179 535 179 535 168 535 c 2,4,-1
 95 531 l 1,5,-1
 99 550 l 1,6,7
 217 568 217 568 253 583 c 1,8,9
 240 556 240 556 229 505 c 0,10,11
 173 244 173 244 173 237.5 c 128,-1,12
 173 231 173 231 184 231 c 2,13,-1
 230 231 l 1,14,-1
 226 213 l 1,15,-1
 28 213 l 1,16,-1
 32 231 l 1,17,-1
 102 231 l 2,18,19
 116 231 116 231 119 245 c 2,20,-1
 178 522 l 2,0,1
684 298 m 0,21,22
 684 347 684 347 637 347 c 0,23,24
 612 347 612 347 597 325 c 128,-1,25
 582 303 582 303 582 275 c 0,26,27
 582 269 582 269 584 259 c 1,28,29
 570 249 570 249 548.5 249 c 128,-1,30
 527 249 527 249 527 273 c 0,31,32
 527 310 527 310 560 338 c 128,-1,33
 593 366 593 366 643 366 c 128,-1,34
 693 366 693 366 717.5 346.5 c 128,-1,35
 742 327 742 327 742 297 c 0,36,37
 742 267.666666667 742 267.666666667 719 237 c 0,38,39
 694.53125 204.375 694.53125 204.375 663.265625 174.1875 c 128,-1,40
 632 144 632 144 628 140 c 2,41,-1
 531 45 l 1,42,-1
 654 45 l 2,43,44
 664 45 664 45 668 56 c 2,45,-1
 687 113 l 1,46,-1
 706 113 l 1,47,-1
 699 80 l 2,48,49
 691 44 691 44 687 -8 c 1,50,51
 659 0 659 0 615 0 c 2,52,-1
 452 0 l 1,53,-1
 614 161 l 2,54,55
 650 197 650 197 667 235.5 c 128,-1,56
 684 274 684 274 684 298 c 0,21,22
278 -74 m 1,57,-1
 247 -74 l 1,58,-1
 496 648 l 1,59,-1
 528 648 l 1,60,-1
 278 -74 l 1,57,-1
EndSplineSet
EndChar

StartChar: threequarters
Encoding: 190 190 176
Width: 779
Flags: HMW
HStem: -74 21G<247 278 247 247> 0 21G<522 680 522 522> 88 24<488 593 652 669> 205 20<103.5 141.5 103.5 155.5> 559 20G<173.5 217.5> 628 20G<496 528 528 528>
VStem: 205 57<304.5 350.5> 226 55<498.5 530>
LayerCount: 2
Fore
SplineSet
98 388 m 1,0,-1
 100 405 l 1,1,-1
 127 410 l 2,2,3
 173 418 173 418 199.5 451.5 c 128,-1,4
 226 485 226 485 226 522.5 c 128,-1,5
 226 560 226 560 192 560 c 0,6,7
 171 560 171 560 157.5 542.5 c 128,-1,8
 144 525 144 525 144 507.5 c 128,-1,9
 144 490 144 490 147 479 c 1,10,11
 131 466 131 466 110.5 466 c 128,-1,12
 90 466 90 466 90 492 c 0,13,14
 90 533 90 533 123.5 556 c 128,-1,15
 157 579 157 579 193.5 579 c 128,-1,16
 230 579 230 579 255.5 561.5 c 128,-1,17
 281 544 281 544 281 514.5 c 128,-1,18
 281 485 281 485 256.5 454.5 c 128,-1,19
 232 424 232 424 192 408 c 1,20,21
 226 402 226 402 244 381.5 c 128,-1,22
 262 361 262 361 262 334 c 0,23,24
 262 284 262 284 218.5 244.5 c 128,-1,25
 175 205 175 205 111 205 c 0,26,27
 70 205 70 205 50.5 222 c 128,-1,28
 31 239 31 239 31 264 c 128,-1,29
 31 289 31 289 40.5 306 c 128,-1,30
 50 323 50 323 68 323 c 128,-1,31
 86 323 86 323 98 311 c 1,32,33
 79 286 79 286 79 260 c 0,34,35
 79 225 79 225 116 225 c 128,-1,36
 153 225 153 225 179 257.5 c 128,-1,37
 205 290 205 290 205 325 c 0,38,39
 205 392 205 392 131 392 c 0,40,41
 117 392 117 392 98 388 c 1,0,-1
647 88 m 1,42,-1
 634 28 l 1,43,44
 634 18 634 18 645 18 c 2,45,-1
 684 18 l 1,46,-1
 680 0 l 1,47,-1
 522 0 l 1,48,-1
 526 18 l 1,49,-1
 564 18 l 2,50,51
 578 18 578 18 580 30 c 2,52,-1
 593 88 l 1,53,-1
 438 88 l 1,54,-1
 658 358 l 1,55,-1
 704 358 l 1,56,-1
 652 112 l 1,57,-1
 674 112 l 2,58,59
 686 112 686 112 690 126 c 2,60,-1
 694 143 l 1,61,-1
 711 143 l 1,62,-1
 692 57 l 1,63,-1
 675 57 l 1,64,65
 679 75 679 75 679 77 c 0,66,67
 679 88 679 88 669 88 c 2,68,-1
 647 88 l 1,42,-1
488 112 m 1,69,-1
 598 112 l 1,70,-1
 637 294 l 1,71,-1
 488 112 l 1,69,-1
278 -74 m 1,72,-1
 247 -74 l 1,73,-1
 496 648 l 1,74,-1
 528 648 l 1,75,-1
 278 -74 l 1,72,-1
EndSplineSet
EndChar

StartChar: ampersand
Encoding: 38 38 177
Width: 574
Flags: HMW
HStem: -125 30<410 422.5> -12 26<152 210> 311 20<282 322 322 362 282 410 481 569> 590 30<281.5 340.5>
VStem: 20 69<75 143 75 148.5> 127 68<424 482.5 418 486.5> 334 58<-70 -34.5> 381 66<513.5 539.5 492 546>
LayerCount: 2
Fore
SplineSet
334 -45 m 0,0,1
 334 -17 334 -17 356 86 c 1,2,-1
 351 86 l 1,3,4
 284 -12 284 -12 177 -12 c 0,5,6
 100 -12 100 -12 60 21.5 c 128,-1,7
 20 55 20 55 20 107 c 0,8,9
 20 174 20 174 80.5 236 c 128,-1,10
 141 298 141 298 243 319 c 1,11,12
 127 343 127 343 127 447 c 0,13,14
 127 510 127 510 184.5 565 c 128,-1,15
 242 620 242 620 324 620 c 0,16,17
 388 620 388 620 417.5 589 c 128,-1,18
 447 558 447 558 447 518.5 c 0,19,20
 447 479 447 479 431.5 453.5 c 128,-1,21
 416 428 416 428 391 428 c 0,22,23
 366 428 366 428 350 444 c 1,24,25
 381 487 381 487 381 528 c 0,26,27
 381 590 381 590 318 590 c 0,28,29
 265 590 265 590 230 546 c 128,-1,30
 195 502 195 502 195 450 c 0,31,32
 195 398 195 398 228.5 364.5 c 128,-1,33
 262 331 262 331 322 331 c 0,34,35
 382 331 382 331 429 364 c 128,-1,36
 476 397 476 397 501 463 c 1,37,-1
 516 452 l 1,38,39
 513 440 513 440 481 331 c 1,40,-1
 574 331 l 1,41,-1
 569 311 l 1,42,-1
 476 311 l 1,43,44
 392 14 392 14 392 -60 c 0,45,46
 392 -95 392 -95 419 -95 c 0,47,48
 440 -95 440 -95 463.5 -68 c 128,-1,49
 487 -41 487 -41 503 9 c 1,50,-1
 521 5 l 1,51,52
 474 -125 474 -125 401 -125 c 0,53,54
 334 -125 334 -125 334 -45 c 0,0,1
182 14 m 0,55,56
 244 14 244 14 302 65.5 c 128,-1,57
 360 117 360 117 387 222 c 2,58,-1
 410 311 l 1,59,-1
 322 311 l 2,60,61
 214 311 214 311 151.5 243 c 128,-1,62
 89 175 89 175 89 99 c 0,63,64
 89 62 89 62 113.5 38 c 128,-1,65
 138 14 138 14 182 14 c 0,55,56
EndSplineSet
EndChar

StartChar: paragraph
Encoding: 182 182 178
Width: 428
Flags: HMW
HStem: -222 21G<105 105> 312 27<124.5 162 124.5 175.5> 610 20G<279 484 484 484>
VStem: 21 57<395.5 465 395.5 469.5> 230 66<416.5 456>
LayerCount: 2
Fore
SplineSet
420 598 m 2,0,-1
 274 -87 l 2,1,2
 260 -152 260 -152 224.5 -182.5 c 128,-1,3
 189 -213 189 -213 105 -222 c 1,4,-1
 105 -198 l 1,5,6
 190 -180 190 -180 205 -105 c 2,7,-1
 358 612 l 1,8,-1
 286 612 l 2,9,10
 189 612 189 612 133.5 553 c 128,-1,11
 78 494 78 494 78 425 c 0,12,13
 78 383 78 383 96 361 c 128,-1,14
 114 339 114 339 144.5 339 c 0,15,16
 175 339 175 339 202.5 370.5 c 128,-1,17
 230 402 230 402 230 452 c 0,18,19
 230 465 230 465 227 477 c 1,20,21
 244 492 244 492 273 492 c 0,22,23
 296 492 296 492 296 459 c 0,24,25
 296 392 296 392 247.5 352 c 128,-1,26
 199 312 199 312 143.5 312 c 0,27,28
 88 312 88 312 54.5 340.5 c 128,-1,29
 21 369 21 369 21 424 c 0,30,31
 21 499 21 499 93 564.5 c 128,-1,32
 165 630 165 630 279 630 c 2,33,-1
 484 630 l 1,34,-1
 481 612 l 1,35,-1
 436 612 l 2,36,37
 424 612 424 612 420 598 c 2,0,-1
EndSplineSet
EndChar

StartChar: plusminus
Encoding: 177 177 180
Width: 505
Flags: HMW
HStem: 0 53<49 411 38 422> 100 21G<220 270 220 220> 270 53<106 256 95 267 317 468 106 306> 472 20G<303 353 353 353>
LayerCount: 2
Fore
SplineSet
353 492 m 1,0,-1
 317 323 l 1,1,-1
 479 323 l 1,2,-1
 468 270 l 1,3,-1
 306 270 l 1,4,-1
 270 100 l 1,5,-1
 220 100 l 1,6,-1
 256 270 l 1,7,-1
 95 270 l 1,8,-1
 106 323 l 1,9,-1
 267 323 l 1,10,-1
 303 492 l 1,11,-1
 353 492 l 1,0,-1
411 0 m 1,12,-1
 38 0 l 1,13,-1
 49 53 l 1,14,-1
 422 53 l 1,15,-1
 411 0 l 1,12,-1
EndSplineSet
EndChar

StartChar: brokenbar
Encoding: 166 166 181
Width: 236
Flags: HMW
HStem: -107 21G<82 82 82 154> 610 20G<82 154 154 154>
VStem: 82 72<-107 157 -107 157 366 630>
LayerCount: 2
Fore
SplineSet
82 366 m 1,0,-1
 82 630 l 1,1,-1
 154 630 l 1,2,-1
 154 366 l 1,3,-1
 82 366 l 1,0,-1
82 -107 m 1,4,-1
 82 157 l 1,5,-1
 154 157 l 1,6,-1
 154 -107 l 1,7,-1
 82 -107 l 1,4,-1
EndSplineSet
Position2: "'case' Case-Sensitive Forms in Latin lookup 0 per glyph data 0" dx=0 dy=35 dh=0 dv=0
EndChar

StartChar: Lslash
Encoding: 321 321 182
Width: 453
Flags: HMW
HStem: -9 21G 0 23<141 301> 227 21G<38 38> 392 20G<331 331> 610 20G<143 327 327 327>
LayerCount: 2
Fore
SplineSet
38 227 m 1,0,-1
 23 255 l 1,1,-1
 331 412 l 1,2,-1
 346 384 l 1,3,-1
 38 227 l 1,0,-1
262 598 m 1,4,-1
 141 23 l 1,5,-1
 338 23 l 2,6,7
 363 23 363 23 370 45 c 2,8,-1
 411 167 l 1,9,-1
 433 167 l 1,10,-1
 423 120 l 2,11,12
 404 33 404 33 404 -9 c 1,13,14
 375 0 375 0 301 0 c 2,15,-1
 10 0 l 1,16,-1
 13 18 l 1,17,-1
 59 18 l 2,18,19
 72 18 72 18 75 33 c 0,20,21
 195 601 195 601 195 606.5 c 0,22,23
 195 612 195 612 184 612 c 2,24,-1
 140 612 l 1,25,-1
 143 630 l 1,26,-1
 327 630 l 1,27,-1
 324 612 l 1,28,-1
 279 612 l 2,29,30
 266 612 266 612 262 598 c 1,4,-1
EndSplineSet
EndChar

StartChar: lslash
Encoding: 322 322 183
Width: 266
Flags: HMW
HStem: -12 21G<101 142> 251 21G<43 43> 368 20G<242 242> 637 20G<255 255>
VStem: 60 54<39.5 88.5 39.5 99>
LayerCount: 2
Fore
SplineSet
43 251 m 1,0,-1
 28 279 l 1,1,-1
 242 388 l 1,2,-1
 257 360 l 1,3,-1
 43 251 l 1,0,-1
114 49 m 0,4,5
 114 16 114 16 139 16 c 0,6,7
 158 16 158 16 180 41.5 c 128,-1,8
 202 67 202 67 218 114 c 1,9,-1
 234 110 l 1,10,11
 191 -12 191 -12 122 -12 c 0,12,13
 60 -12 60 -12 60 66.5 c 0,14,15
 60 145 60 145 191 620 c 1,16,-1
 127 615 l 1,17,-1
 126 632 l 1,18,19
 195 641 195 641 255 657 c 1,20,-1
 269 647 l 1,21,22
 227 524 227 524 170.5 313.5 c 128,-1,23
 114 103 114 103 114 49 c 0,4,5
EndSplineSet
EndChar

StartChar: oe
Encoding: 339 339 184
Width: 698
Flags: HMW
HStem: -12 22<161 244.5 161 260> -12 24<462 515> 203 20<452 512.5> 420 24<518.5 595> 422 22<216.5 300>
VStem: 40 63<94.5 180.5 94 209.5> 341 66<96 179 93 211> 357 63<253.5 338 223.5 339> 632 56<328.5 374.5>
LayerCount: 2
Fore
SplineSet
40 145 m 0,0,1
 40 248.035087719 40 248.035087719 100.5 342.5 c 0,2,3
 129 387 129 387 176 415.5 c 128,-1,4
 223 444 223 444 283.5 444 c 128,-1,5
 344 444 344 444 382 403 c 128,-1,6
 420 362 420 362 420 291 c 128,-1,7
 420 220 420 220 394 153 c 128,-1,8
 368 86 368 86 312 37 c 128,-1,9
 256 -12 256 -12 186 -12 c 128,-1,10
 116 -12 116 -12 78 29 c 128,-1,11
 40 70 40 70 40 145 c 0,0,1
275 422 m 0,12,13
 221 422 221 422 179.5 368 c 128,-1,14
 138 314 138 314 120.5 250 c 128,-1,15
 103 186 103 186 103 130.5 c 128,-1,16
 103 75 103 75 125.5 42.5 c 128,-1,17
 148 10 148 10 187.5 10 c 128,-1,18
 227 10 227 10 261.5 42 c 128,-1,19
 296 74 296 74 316 121 c 0,20,21
 357 217.35 357 217.35 357 287.675 c 128,-1,22
 357 358 357 358 335 390 c 128,-1,23
 313 422 313 422 275 422 c 0,12,13
661.5 418.5 m 128,-1,25
 688 393 688 393 688 345.5 c 128,-1,26
 688 298 688 298 651 263 c 0,27,28
 587.571428571 203 587.571428571 203 464 203 c 0,29,30
 427 203 427 203 400 209 c 1,31,-1
 400 228 l 1,32,33
 435 223 435 223 458 223 c 0,34,35
 541 223 541 223 586.5 265 c 128,-1,36
 632 307 632 307 632 357 c 0,37,38
 632 384 632 384 617.5 402 c 128,-1,39
 603 420 603 420 569.5 420 c 128,-1,40
 536 420 536 420 501.5 389 c 128,-1,41
 467 358 467 358 447.5 311.5 c 0,42,43
 407 214.923076923 407 214.923076923 407 144.461538462 c 0,44,45
 407 12 407 12 487 12 c 0,46,47
 586 12 586 12 632 120 c 1,48,-1
 648 116 l 1,49,50
 624 55 624 55 578.5 21.5 c 128,-1,51
 533 -12 533 -12 476 -12 c 128,-1,52
 419 -12 419 -12 380 30 c 128,-1,53
 341 72 341 72 341 143 c 128,-1,54
 341 214 341 214 368 280.5 c 128,-1,55
 395 347 395 347 452 395.5 c 128,-1,56
 509 444 509 444 582 444 c 0,57,24
 635 444 635 444 661.5 418.5 c 128,-1,25
EndSplineSet
EndChar

StartChar: Euro
Encoding: 8364 8364 185
Width: 440
Flags: HMW
HStem: -12 28<164.5 236.5 164.5 252.5> 246 30<-3 48 -17 54 122 322> 312 30<29 63 15 74 140 350> 551 28<287.5 348>
VStem: 41 65<121.5 163.5 111.5 183> 385 63<479.5 509.5>
LayerCount: 2
Fore
SplineSet
336 276 m 1,0,-1
 322 246 l 1,1,-1
 116 246 l 1,2,3
 106 191 106 191 106 148 c 0,4,5
 106 16 106 16 201 16 c 0,6,7
 252 16 252 16 285 52.5 c 128,-1,8
 318 89 318 89 318 134 c 0,9,10
 318 147 318 147 317 153 c 1,11,12
 341 168 341 168 366 168 c 0,13,14
 388 168 388 168 388 140 c 0,15,16
 388 81 388 81 333 34.5 c 128,-1,17
 278 -12 278 -12 196.5 -12 c 128,-1,18
 115 -12 115 -12 78 38.5 c 128,-1,19
 41 89 41 89 41 171 c 0,20,21
 41 210 41 210 48 246 c 1,22,-1
 -17 246 l 1,23,-1
 -3 276 l 1,24,-1
 54 276 l 1,25,-1
 63 312 l 1,26,-1
 15 312 l 1,27,-1
 29 342 l 1,28,-1
 74 342 l 1,29,30
 111 443 111 443 180 511 c 128,-1,31
 249 579 249 579 333 579 c 0,32,33
 391 579 391 579 419.5 553 c 128,-1,34
 448 527 448 527 448 489 c 128,-1,35
 448 451 448 451 434.5 425 c 128,-1,36
 421 399 421 399 396.5 399 c 128,-1,37
 372 399 372 399 357 414 c 1,38,39
 385 454 385 454 385 493 c 0,40,41
 385 551 385 551 328 551 c 128,-1,42
 271 551 271 551 220.5 491.5 c 128,-1,43
 170 432 170 432 140 342 c 1,44,-1
 365 342 l 1,45,-1
 350 312 l 1,46,-1
 131 312 l 1,47,48
 130 308 130 308 128 300.5 c 0,49,50
 123.6 284 123.6 284 122 276 c 1,51,-1
 336 276 l 1,0,-1
EndSplineSet
EndChar

StartChar: bullet
Encoding: 8226 8226 186
Width: 226
Flags: HMW
HStem: 210 21G<93 133> 336 20G<93 133>
LayerCount: 2
Fore
SplineSet
40 283 m 128,-1,1
 40 313 40 313 61.5 334.5 c 128,-1,2
 83 356 83 356 113 356 c 128,-1,3
 143 356 143 356 164.5 334.5 c 128,-1,4
 186 313 186 313 186 283 c 128,-1,5
 186 253 186 253 164.5 231.5 c 128,-1,6
 143 210 143 210 113 210 c 128,-1,7
 83 210 83 210 61.5 231.5 c 128,-1,0
 40 253 40 253 40 283 c 128,-1,1
EndSplineSet
Position2: "'case' Case-Sensitive Forms in Latin lookup 0 per glyph data 0" dx=0 dy=35 dh=0 dv=0
EndChar

StartChar: yen
Encoding: 165 165 188
Width: 440
Flags: HMW
HStem: 0 21G<54 302 54 54> 247 31<59 171 59 179 52 171 301 408> 312 31<73 155 73 163 66 155 342 422> 546 20G<78 216 216 216 408 504 504 504>
LayerCount: 2
Fore
SplineSet
415 278 m 1,0,-1
 408 247 l 1,1,-1
 282 247 l 1,2,-1
 255 204 l 1,3,4
 218 30 218 30 218 28 c 0,5,6
 218 18 218 18 229 18 c 2,7,-1
 305 18 l 1,8,-1
 302 0 l 1,9,-1
 54 0 l 1,10,-1
 57 18 l 1,11,-1
 135 18 l 2,12,13
 148 18 148 18 151 33 c 2,14,-1
 188 211 l 1,15,-1
 179 247 l 1,16,-1
 52 247 l 1,17,-1
 59 278 l 1,18,-1
 171 278 l 1,19,-1
 163 312 l 1,20,-1
 66 312 l 1,21,-1
 73 343 l 1,22,-1
 155 343 l 1,23,-1
 108 534 l 2,24,25
 104 548 104 548 93 548 c 2,26,-1
 75 548 l 1,27,-1
 78 566 l 1,28,-1
 216 566 l 1,29,-1
 213 548 l 1,30,-1
 176 548 l 1,31,-1
 253 249 l 1,32,-1
 437 548 l 1,33,-1
 405 548 l 1,34,-1
 408 566 l 1,35,-1
 504 566 l 1,36,-1
 501 548 l 1,37,-1
 484 548 l 2,38,39
 472 548 472 548 463 534 c 2,40,-1
 342 343 l 1,41,-1
 429 343 l 1,42,-1
 422 312 l 1,43,-1
 323 312 l 1,44,-1
 301 278 l 1,45,-1
 415 278 l 1,0,-1
EndSplineSet
EndChar

StartChar: hungarumlaut
Encoding: 733 733 189
Width: 376
Flags: HMW
HStem: 489 21G<43 43 187 187> 619 20G<168 180.5 312 324.5>
LayerCount: 2
Fore
SplineSet
174 566 m 2,0,-1
 43 489 l 1,1,-1
 30 505 l 1,2,-1
 141 625 l 2,3,4
 154 639 154 639 169.5 639 c 0,5,6
 185 639 185 639 193 629.5 c 128,-1,7
 201 620 201 620 201 606 c 0,8,9
 201 581 201 581 174 566 c 2,0,-1
318 566 m 2,10,-1
 187 489 l 1,11,-1
 174 505 l 1,12,-1
 285 625 l 2,13,14
 298 639 298 639 313.5 639 c 0,15,16
 329 639 329 639 337 629.5 c 128,-1,17
 345 620 345 620 345 606 c 0,18,19
 345 581 345 581 318 566 c 2,10,-1
EndSplineSet
EndChar

StartChar: quotesinglbase
Encoding: 8218 8218 190
Width: 182
Flags: HMW
HStem: -125 21G<13 13> 80 20G<98 126.5>
VStem: 70 83<-28.5 71>
LayerCount: 2
Fore
SplineSet
5 -111 m 1,0,1
 70 -61 70 -61 70 -6 c 0,2,3
 70 24 70 24 49 43 c 1,4,5
 54 66 54 66 72.5 83 c 128,-1,6
 91 100 91 100 112 100 c 0,7,8
 153 100 153 100 153 59 c 128,-1,9
 153 18 153 18 112.5 -38.5 c 128,-1,10
 72 -95 72 -95 13 -125 c 1,11,-1
 5 -111 l 1,0,1
EndSplineSet
EndChar

StartChar: quotedblbase
Encoding: 8222 8222 191
Width: 327
Flags: HMW
HStem: -125 21G<13 13 158 158> 80 20G<98 126.5 243 271.5>
VStem: 70 83<-28.5 71> 215 83<-28.5 71>
LayerCount: 2
Fore
SplineSet
5 -111 m 1,0,1
 70 -61 70 -61 70 -6 c 0,2,3
 70 24 70 24 49 43 c 1,4,5
 54 66 54 66 72.5 83 c 128,-1,6
 91 100 91 100 112 100 c 0,7,8
 153 100 153 100 153 59 c 128,-1,9
 153 18 153 18 112.5 -38.5 c 128,-1,10
 72 -95 72 -95 13 -125 c 1,11,-1
 5 -111 l 1,0,1
150 -111 m 1,12,13
 215 -61 215 -61 215 -6 c 0,14,15
 215 24 215 24 194 43 c 1,16,17
 199 66 199 66 217.5 83 c 128,-1,18
 236 100 236 100 257 100 c 0,19,20
 298 100 298 100 298 59 c 128,-1,21
 298 18 298 18 257.5 -38.5 c 128,-1,22
 217 -95 217 -95 158 -125 c 1,23,-1
 150 -111 l 1,12,13
EndSplineSet
EndChar

StartChar: periodcentered
Encoding: 183 183 192
Width: 192
Flags: HMW
HStem: 227 21G<81.5 110.5> 313 20G<81.5 110.5>
VStem: 43 106<265.5 294.5>
LayerCount: 2
Fore
SplineSet
43 280 m 128,-1,1
 43 302 43 302 58.5 317.5 c 128,-1,2
 74 333 74 333 96 333 c 128,-1,3
 118 333 118 333 133.5 317.5 c 128,-1,4
 149 302 149 302 149 280 c 128,-1,5
 149 258 149 258 133.5 242.5 c 128,-1,6
 118 227 118 227 96 227 c 128,-1,7
 74 227 74 227 58.5 242.5 c 128,-1,0
 43 258 43 258 43 280 c 128,-1,1
EndSplineSet
EndChar

StartChar: logicalnot
Encoding: 172 172 193
Width: 505
Flags: HMW
HStem: 44 21G<370 420 370 370> 170 53<85 397 74 458>
LayerCount: 2
Fore
SplineSet
420 44 m 1,0,-1
 370 44 l 1,1,-1
 397 170 l 1,2,-1
 74 170 l 1,3,-1
 85 223 l 1,4,-1
 458 223 l 1,5,-1
 420 44 l 1,0,-1
EndSplineSet
EndChar

StartChar: Scaron
Encoding: 352 352 196
Width: 457
Flags: HMW
HStem: -12 29<136 223 136 238.5> 0 21G<-15 4 -15 -15> 613 29<259 337.5> 616 20G<454 472 472 472> 692 21G<312 325.5> 822 20G<258 258 430 430>
LayerCount: 2
Fore
SplineSet
177 -12 m 0,0,1
 105.52173913 -12 105.52173913 -12 51.5 23.5 c 0,2,3
 34 35 34 35 27 35 c 0,4,5
 9 35 9 35 4 0 c 1,6,-1
 -15 0 l 1,7,-1
 20 167 l 1,8,-1
 38 167 l 1,9,10
 37 159 37 159 37 143 c 0,11,12
 37 78 37 78 74.5 47.5 c 128,-1,13
 112 17 112 17 177.5 17 c 128,-1,14
 243 17 243 17 287.5 63.5 c 128,-1,15
 332 110 332 110 332 170.5 c 128,-1,16
 332 231 332 231 270 261 c 1,17,-1
 190 302 l 1,18,19
 96 348 96 348 96 445 c 0,20,21
 96 521 96 521 155 581.5 c 128,-1,22
 214 642 214 642 303 642 c 0,23,24
 362 642 362 642 410 609 c 0,25,26
 426 598 426 598 432 598 c 0,27,28
 442 598 442 598 449 619 c 2,29,-1
 454 636 l 1,30,-1
 472 636 l 1,31,-1
 435 463 l 1,32,-1
 418 463 l 1,33,34
 420 483 420 483 420 492 c 0,35,36
 420 554 420 554 388.5 583.5 c 128,-1,37
 357 613 357 613 298 613 c 128,-1,38
 239 613 239 613 197.5 569 c 128,-1,39
 156 525 156 525 156 470 c 0,40,41
 156 402 156 402 217 370 c 2,42,-1
 320 317 l 2,43,44
 403 274 403 274 403 195.5 c 128,-1,45
 403 117 403 117 335 52.5 c 128,-1,46
 267 -12 267 -12 177 -12 c 0,0,1
258 842 m 1,47,-1
 328 757 l 1,48,-1
 430 842 l 1,49,-1
 443 826 l 1,50,-1
 358 714 l 1,51,52
 340 692 340 692 317.5 692 c 128,-1,53
 295 692 295 692 286 715 c 2,54,-1
 242 833 l 1,55,-1
 258 842 l 1,47,-1
EndSplineSet
Position2: "'cpsp' Capital Spacing in Latin lookup 1 subtable" dx=0 dy=0 dh=40 dv=0
EndChar

StartChar: registered
Encoding: 174 174 197
Width: 549
Flags: HMW
HStem: 176 25<208 320.5 208 326.5> 635 25<287 405>
VStem: 380 49<490 523>
LayerCount: 2
Fore
SplineSet
70 366 m 0,0,1
 70 475 70 475 157.5 567.5 c 128,-1,2
 245 660 245 660 358 660 c 0,3,4
 439 660 439 660 490.5 606.5 c 128,-1,5
 542 553 542 553 542 472 c 0,6,7
 542 356 542 356 453 266 c 128,-1,8
 364 176 364 176 255 176 c 0,9,10
 174 176 174 176 122 230 c 128,-1,11
 70 284 70 284 70 366 c 0,0,1
283 276 m 1,12,-1
 280 262 l 1,13,-1
 164 262 l 1,14,-1
 167 276 l 1,15,-1
 183 276 l 2,16,17
 197 276 197 276 200 288 c 0,18,19
 256 548 256 548 256 556.5 c 0,20,21
 256 565 256 565 245 565 c 2,22,-1
 229 565 l 1,23,-1
 232 579 l 1,24,-1
 347 579 l 2,25,26
 383 579 383 579 406 560 c 128,-1,27
 429 541 429 541 429 506 c 0,28,29
 429 471 429 471 407 444.5 c 128,-1,30
 385 418 385 418 350 406 c 1,31,-1
 384 285 l 1,32,33
 388 276 388 276 394 276 c 2,34,-1
 405 276 l 1,35,-1
 402 262 l 1,36,-1
 375 262 l 2,37,38
 354 262 354 262 338 258 c 1,39,-1
 300 399 l 1,40,-1
 272 399 l 1,41,42
 249 289 249 289 249 286 c 0,43,44
 249 276 249 276 259 276 c 2,45,-1
 283 276 l 1,12,-1
340 558 m 2,46,-1
 306 558 l 1,47,-1
 277 421 l 1,48,-1
 311 421 l 2,49,50
 341 421 341 421 360.5 449 c 128,-1,51
 380 477 380 477 380 510 c 0,52,53
 380 558 380 558 340 558 c 2,46,-1
95 366 m 0,54,55
 95 295 95 295 140 248 c 128,-1,56
 185 201 185 201 255 201 c 0,57,58
 354 201 354 201 435.5 283.5 c 128,-1,59
 517 366 517 366 517 472 c 0,60,61
 517 542 517 542 472.5 588.5 c 128,-1,62
 428 635 428 635 358 635 c 0,63,64
 254 635 254 635 174.5 550.5 c 128,-1,65
 95 466 95 466 95 366 c 0,54,55
EndSplineSet
EndChar

StartChar: copyright
Encoding: 169 169 198
Width: 549
Flags: HMW
HStem: 176 25<208 320.5 208 326.5> 254 22<256 293.5> 560 23<308.5 355.5> 635 25<287 405>
VStem: 162 50<335.5 424 335.5 437>
LayerCount: 2
Fore
SplineSet
351 281 m 0,0,1
 349 281 349 281 338 274.5 c 0,2,3
 303.307692308 254 303.307692308 254 262.153846154 254 c 128,-1,4
 221 254 221 254 191.5 284.5 c 128,-1,5
 162 315 162 315 162 370 c 0,6,7
 162 465 162 465 216.5 524 c 128,-1,8
 271 583 271 583 341 583 c 0,9,10
 364 583 364 583 386 571.5 c 128,-1,11
 408 560 408 560 411 560 c 0,12,13
 418 560 418 560 423 570 c 1,14,-1
 427 581 l 1,15,-1
 438 581 l 1,16,-1
 418 487 l 1,17,-1
 407 487 l 1,18,-1
 407 495 l 2,19,20
 407 529 407 529 387.5 544.5 c 128,-1,21
 368 560 368 560 337 560 c 0,22,23
 291 560 291 560 251.5 504.5 c 128,-1,24
 212 449 212 449 212 364 c 0,25,26
 212 322 212 322 229 299 c 128,-1,27
 246 276 246 276 277 276 c 128,-1,28
 308 276 308 276 336.5 294 c 128,-1,29
 365 312 365 312 378 349 c 1,30,-1
 389 349 l 1,31,-1
 370 260 l 1,32,-1
 359 260 l 1,33,-1
 359 271 l 2,34,35
 359 281 359 281 351 281 c 0,0,1
70 366 m 0,36,37
 70 475 70 475 157.5 567.5 c 128,-1,38
 245 660 245 660 358 660 c 0,39,40
 439 660 439 660 490.5 606.5 c 128,-1,41
 542 553 542 553 542 472 c 0,42,43
 542 356 542 356 453 266 c 128,-1,44
 364 176 364 176 255 176 c 0,45,46
 174 176 174 176 122 230 c 128,-1,47
 70 284 70 284 70 366 c 0,36,37
95 366 m 0,48,49
 95 295 95 295 140 248 c 128,-1,50
 185 201 185 201 255 201 c 0,51,52
 354 201 354 201 435.5 283.5 c 128,-1,53
 517 366 517 366 517 472 c 0,54,55
 517 542 517 542 472.5 588.5 c 128,-1,56
 428 635 428 635 358 635 c 0,57,58
 254 635 254 635 174.5 550.5 c 128,-1,59
 95 466 95 466 95 366 c 0,48,49
EndSplineSet
EndChar

StartChar: less
Encoding: 60 60 199
Width: 505
Flags: HMW
HStem: 88 21G<429 429> 485 20G<518 518>
LayerCount: 2
Fore
SplineSet
506 450 m 1,0,-1
 155 296 l 1,1,-1
 441 143 l 1,2,-1
 429 88 l 1,3,-1
 95 270 l 1,4,-1
 106 323 l 1,5,-1
 518 505 l 1,6,-1
 506 450 l 1,0,-1
EndSplineSet
EndChar

StartChar: greater
Encoding: 62 62 200
Width: 505
Flags: HMW
HStem: 88 21G<56 56> 485 20G<145 145>
LayerCount: 2
Fore
SplineSet
68 143 m 1,0,-1
 418 296 l 1,1,-1
 133 450 l 1,2,-1
 145 505 l 1,3,-1
 479 323 l 1,4,-1
 468 270 l 1,5,-1
 56 88 l 1,6,-1
 68 143 l 1,0,-1
EndSplineSet
EndChar

StartChar: dagger
Encoding: 8224 8224 201
Width: 367
Flags: HMW
HStem: -107 21G<100 111 100 100> 423 70<90 98 350 360> 640 20G<253.5 278>
VStem: 218 82<573.5 640>
LayerCount: 2
Fore
SplineSet
220 499 m 1,0,-1
 218 585 l 1,1,2
 218 660 218 660 269 660 c 0,3,4
 300 660 300 660 300 630 c 0,5,6
 300 613.5 300 613.5 273 555.75 c 128,-1,7
 246 498 246 498 234 465 c 1,8,9
 270 470 270 470 310.5 481.5 c 128,-1,10
 351 493 351 493 362 493 c 0,11,12
 391 493 391 493 391 467 c 0,13,14
 391 449 391 449 378.5 436 c 128,-1,15
 366 423 366 423 352.5 423 c 128,-1,16
 339 423 339 423 253 447 c 1,17,-1
 111 -107 l 1,18,-1
 100 -107 l 1,19,-1
 194 447 l 1,20,21
 181 444 181 444 154.5 437 c 0,22,23
 101.5 423 101.5 423 88 423 c 0,24,25
 60 423 60 423 60 449 c 0,26,27
 60 467 60 467 72 480 c 128,-1,28
 84 493 84 493 99 493 c 128,-1,29
 114 493 114 493 149.5 481.5 c 128,-1,30
 185 470 185 470 219 465 c 1,31,-1
 220 499 l 1,0,-1
EndSplineSet
EndChar

StartChar: daggerdbl
Encoding: 8225 8225 202
Width: 367
Flags: HMW
HStem: -119 21G<93 117.5> 48 70<11 21 273 281> 423 70<90 98 350 360> 640 20G<253.5 278>
VStem: 71 82<-99 -33> 218 93
LayerCount: 2
Fore
SplineSet
151 42 m 2,0,-1
 153 -44 l 1,1,2
 153 -119 153 -119 102 -119 c 0,3,4
 71 -119 71 -119 71 -89 c 0,5,6
 71 -72.5 71 -72.5 98 -14.75 c 128,-1,7
 125 43 125 43 137 76 c 1,8,9
 101 71 101 71 60.5 59.5 c 128,-1,10
 20 48 20 48 9 48 c 0,11,12
 -20 48 -20 48 -20 74 c 0,13,14
 -20 92 -20 92 -7.5 105 c 128,-1,15
 5 118 5 118 18.5 118 c 128,-1,16
 32 118 32 118 118 94 c 1,17,-1
 179 270 l 1,18,-1
 194 447 l 1,19,20
 181 444 181 444 154.5 437 c 0,21,22
 101.5 423 101.5 423 88 423 c 0,23,24
 60 423 60 423 60 449 c 0,25,26
 60 467 60 467 72 480 c 128,-1,27
 84 493 84 493 99 493 c 128,-1,28
 114 493 114 493 149.5 481.5 c 128,-1,29
 185 470 185 470 219 465 c 1,30,-1
 220 499 l 1,31,-1
 218 585 l 1,32,33
 218 660 218 660 269 660 c 0,34,35
 300 660 300 660 300 630 c 0,36,37
 300 613.5 300 613.5 273 555.75 c 128,-1,38
 246 498 246 498 234 465 c 1,39,40
 270 470 270 470 310.5 481.5 c 128,-1,41
 351 493 351 493 362 493 c 0,42,43
 391 493 391 493 391 467 c 0,44,45
 391 449 391 449 378.5 436 c 128,-1,46
 366 423 366 423 352.5 423 c 128,-1,47
 339 423 339 423 253 447 c 1,48,-1
 191 270 l 1,49,-1
 177 94 l 1,50,51
 190 97 190 97 216.5 104 c 0,52,53
 269.5 118 269.5 118 283 118 c 0,54,55
 311 118 311 118 311 92 c 0,56,57
 311 74 311 74 299 61 c 128,-1,58
 287 48 287 48 272 48 c 128,-1,59
 257 48 257 48 221.5 59.5 c 128,-1,60
 186 71 186 71 152 76 c 1,61,62
 151 64 151 64 151 42 c 2,0,-1
EndSplineSet
EndChar

StartChar: perthousand
Encoding: 8240 8240 203
Width: 1120
Flags: HMW
HStem: -74 21G<299 330 299 299> -8 20<604 647 604 672.5 915 958> 205 20<177 220 177 245.5> 559 20G<206.5 295.5> 628 20G<548 580 580 580>
VStem: 90 56<287 360.5 284 372.5> 307 55<425.5 498.5 413 501.5> 517 56<74 147.5 71 159.5> 734 55<212.5 285.5 200 288.5> 828 56<74 147.5 71 159.5> 1045 55<212.5 285.5 200 288.5>
LayerCount: 2
Fore
SplineSet
115.5 236.5 m 128,-1,1
 90 268 90 268 90 322.5 c 128,-1,2
 90 377 90 377 108 433 c 128,-1,3
 126 489 126 489 168.5 534 c 128,-1,4
 211 579 211 579 261 579 c 128,-1,5
 311 579 311 579 336.5 548 c 128,-1,6
 362 517 362 517 362 463 c 128,-1,7
 362 409 362 409 344 352.5 c 128,-1,8
 326 296 326 296 283.5 250.5 c 128,-1,9
 241 205 241 205 191 205 c 128,-1,0
 141 205 141 205 115.5 236.5 c 128,-1,1
262 560 m 0,10,11
 220 560 220 560 183 475 c 128,-1,12
 146 390 146 390 146 307.5 c 128,-1,13
 146 225 146 225 191 225 c 0,14,15
 219 225 219 225 246.5 267 c 128,-1,16
 274 309 274 309 290.5 367 c 128,-1,17
 307 425 307 425 307 470 c 0,18,19
 307 560 307 560 262 560 c 0,10,11
542.5 23.5 m 128,-1,21
 517 55 517 55 517 109.5 c 128,-1,22
 517 164 517 164 535 220 c 128,-1,23
 553 276 553 276 595.5 321 c 128,-1,24
 638 366 638 366 688 366 c 128,-1,25
 738 366 738 366 763.5 335 c 128,-1,26
 789 304 789 304 789 250 c 128,-1,27
 789 196 789 196 771 139.5 c 128,-1,28
 753 83 753 83 710.5 37.5 c 128,-1,29
 668 -8 668 -8 618 -8 c 128,-1,20
 568 -8 568 -8 542.5 23.5 c 128,-1,21
689 347 m 0,30,31
 647 347 647 347 610 262 c 128,-1,32
 573 177 573 177 573 94.5 c 128,-1,33
 573 12 573 12 618 12 c 0,34,35
 646 12 646 12 673.5 54 c 128,-1,36
 701 96 701 96 717.5 154 c 128,-1,37
 734 212 734 212 734 257 c 0,38,39
 734 347 734 347 689 347 c 0,30,31
853.5 23.5 m 128,-1,41
 828 55 828 55 828 109.5 c 128,-1,42
 828 164 828 164 846 220 c 128,-1,43
 864 276 864 276 906.5 321 c 128,-1,44
 949 366 949 366 999 366 c 128,-1,45
 1049 366 1049 366 1074.5 335 c 128,-1,46
 1100 304 1100 304 1100 250 c 128,-1,47
 1100 196 1100 196 1082 139.5 c 128,-1,48
 1064 83 1064 83 1021.5 37.5 c 128,-1,49
 979 -8 979 -8 929 -8 c 128,-1,40
 879 -8 879 -8 853.5 23.5 c 128,-1,41
1000 347 m 0,50,51
 958 347 958 347 921 262 c 128,-1,52
 884 177 884 177 884 94.5 c 128,-1,53
 884 12 884 12 929 12 c 0,54,55
 957 12 957 12 984.5 54 c 128,-1,56
 1012 96 1012 96 1028.5 154 c 128,-1,57
 1045 212 1045 212 1045 257 c 0,58,59
 1045 347 1045 347 1000 347 c 0,50,51
330 -74 m 1,60,-1
 299 -74 l 1,61,-1
 548 648 l 1,62,-1
 580 648 l 1,63,-1
 330 -74 l 1,60,-1
EndSplineSet
EndChar

StartChar: numbersign
Encoding: 35 35 204
Width: 463
Flags: HMW
HStem: -101 21G<-19 14 -19 -19 186 186 186 219> 202 31<-38 427 -48 437> 369 31<11 476 1 486> 647 20G<206 239 239 239 411 444 444 444>
LayerCount: 2
Fore
SplineSet
14 -101 m 1,0,-1
 -19 -101 l 1,1,-1
 206 667 l 1,2,-1
 239 667 l 1,3,-1
 14 -101 l 1,0,-1
437 233 m 1,4,-1
 427 202 l 1,5,-1
 -48 202 l 1,6,-1
 -38 233 l 1,7,-1
 437 233 l 1,4,-1
219 -101 m 1,8,-1
 186 -101 l 1,9,-1
 411 667 l 1,10,-1
 444 667 l 1,11,-1
 219 -101 l 1,8,-1
486 400 m 1,12,-1
 476 369 l 1,13,-1
 1 369 l 1,14,-1
 11 400 l 1,15,-1
 486 400 l 1,12,-1
EndSplineSet
EndChar

StartChar: ogonek
Encoding: 731 731 205
Width: 242
Flags: HMW
HStem: -186 29<119 138.5> -8 20G<155 155>
VStem: 30 49<-115.5 -86>
LayerCount: 2
Fore
SplineSet
199 -127 m 1,0,-1
 212 -138 l 1,1,2
 176 -186 176 -186 122 -186 c 0,3,4
 81 -186 81 -186 55.5 -163.5 c 128,-1,5
 30 -141 30 -141 30 -106.5 c 0,6,7
 30 -72 30 -72 61.5 -39 c 128,-1,8
 93 -6 93 -6 155 12 c 1,9,-1
 161 0 l 1,10,11
 120 -14 120 -14 99.5 -40 c 128,-1,12
 79 -66 79 -66 79 -95.5 c 0,13,14
 79 -125 79 -125 94.5 -141 c 128,-1,15
 110 -157 110 -157 138.5 -157 c 0,16,17
 167 -157 167 -157 199 -127 c 1,0,-1
EndSplineSet
EndChar

StartChar: twosuperior
Encoding: 178 178 206
Width: 292
Flags: HMW
HStem: 205 21G 213 45<83 167> 559 20G<160.5 231>
VStem: 236 58<498 526.5>
LayerCount: 2
Fore
SplineSet
236 511 m 0,0,1
 236 560 236 560 189 560 c 0,2,3
 164 560 164 560 149 538 c 128,-1,4
 134 516 134 516 134 488 c 0,5,6
 134 482 134 482 136 472 c 1,7,8
 122 462 122 462 100.5 462 c 128,-1,9
 79 462 79 462 79 486 c 0,10,11
 79 523 79 523 112 551 c 128,-1,12
 145 579 145 579 195 579 c 128,-1,13
 245 579 245 579 269.5 559.5 c 128,-1,14
 294 540 294 540 294 510 c 0,15,16
 294 480.666666667 294 480.666666667 271 450 c 0,17,18
 246.53125 417.375 246.53125 417.375 215.265625 387.1875 c 128,-1,19
 184 357 184 357 180 353 c 2,20,-1
 83 258 l 1,21,-1
 206 258 l 2,22,23
 216 258 216 258 220 269 c 2,24,-1
 239 326 l 1,25,-1
 258 326 l 1,26,-1
 251 293 l 2,27,28
 243 257 243 257 239 205 c 1,29,30
 211 213 211 213 167 213 c 2,31,-1
 4 213 l 1,32,-1
 166 374 l 2,33,34
 202 410 202 410 219 448.5 c 128,-1,35
 236 487 236 487 236 511 c 0,0,1
EndSplineSet
EndChar

StartChar: threesuperior
Encoding: 179 179 207
Width: 292
Flags: HMW
HStem: 205 20<82.5 120.5 82.5 134.5> 559 20G<152.5 196.5>
VStem: 184 57<304.5 350.5> 205 55<498.5 530>
LayerCount: 2
Fore
SplineSet
77 388 m 1,0,-1
 79 405 l 1,1,-1
 106 410 l 2,2,3
 152 418 152 418 178.5 451.5 c 128,-1,4
 205 485 205 485 205 522.5 c 128,-1,5
 205 560 205 560 171 560 c 0,6,7
 150 560 150 560 136.5 542.5 c 128,-1,8
 123 525 123 525 123 507.5 c 128,-1,9
 123 490 123 490 126 479 c 1,10,11
 110 466 110 466 89.5 466 c 128,-1,12
 69 466 69 466 69 492 c 0,13,14
 69 533 69 533 102.5 556 c 128,-1,15
 136 579 136 579 172.5 579 c 128,-1,16
 209 579 209 579 234.5 561.5 c 128,-1,17
 260 544 260 544 260 514.5 c 128,-1,18
 260 485 260 485 235.5 454.5 c 128,-1,19
 211 424 211 424 171 408 c 1,20,21
 205 402 205 402 223 381.5 c 128,-1,22
 241 361 241 361 241 334 c 0,23,24
 241 284 241 284 197.5 244.5 c 128,-1,25
 154 205 154 205 90 205 c 0,26,27
 49 205 49 205 29.5 222 c 128,-1,28
 10 239 10 239 10 264 c 128,-1,29
 10 289 10 289 19.5 306 c 128,-1,30
 29 323 29 323 47 323 c 128,-1,31
 65 323 65 323 77 311 c 1,32,33
 58 286 58 286 58 260 c 0,34,35
 58 225 58 225 95 225 c 128,-1,36
 132 225 132 225 158 257.5 c 128,-1,37
 184 290 184 290 184 325 c 0,38,39
 184 392 184 392 110 392 c 0,40,41
 96 392 96 392 77 388 c 1,0,-1
EndSplineSet
EndChar

StartChar: onesuperior
Encoding: 185 185 208
Width: 292
Flags: HMW
HStem: 213 21G<7 205 7 7> 563 20G
LayerCount: 2
Fore
SplineSet
157 522 m 2,0,1
 157 523 157 523 158 527 c 1,2,3
 158 535 158 535 147 535 c 2,4,-1
 74 531 l 1,5,-1
 78 550 l 1,6,7
 196 568 196 568 232 583 c 1,8,9
 219 556 219 556 208 505 c 0,10,11
 152 244 152 244 152 237.5 c 128,-1,12
 152 231 152 231 163 231 c 2,13,-1
 209 231 l 1,14,-1
 205 213 l 1,15,-1
 7 213 l 1,16,-1
 11 231 l 1,17,-1
 81 231 l 2,18,19
 94 231 94 231 98 245 c 2,20,-1
 157 522 l 2,0,1
EndSplineSet
EndChar

StartChar: currency
Encoding: 164 164 209
Width: 463
Flags: HMW
HStem: 89 21G<64 64 400 400> 134 30<196 268 196 276> 424 30<196 268> 480 20G<64 64 400 400>
VStem: 72 30<258 330 258 338> 362 30<258 330>
LayerCount: 2
Fore
SplineSet
112 212 m 1,0,-1
 149 174 l 1,1,-1
 64 89 l 1,2,-1
 26 126 l 1,3,-1
 112 212 l 1,0,-1
349 374 m 1,4,-1
 311 411 l 1,5,-1
 400 500 l 1,6,-1
 437 462 l 1,7,-1
 349 374 l 1,4,-1
102 294 m 128,-1,9
 102 240 102 240 140 202 c 128,-1,10
 178 164 178 164 232 164 c 128,-1,11
 286 164 286 164 324 202 c 128,-1,12
 362 240 362 240 362 294 c 128,-1,13
 362 348 362 348 324 386 c 128,-1,14
 286 424 286 424 232 424 c 128,-1,15
 178 424 178 424 140 386 c 128,-1,8
 102 348 102 348 102 294 c 128,-1,9
72 294 m 128,-1,17
 72 360 72 360 119 407 c 128,-1,18
 166 454 166 454 232 454 c 128,-1,19
 298 454 298 454 345 407 c 128,-1,20
 392 360 392 360 392 294 c 128,-1,21
 392 228 392 228 345 181 c 128,-1,22
 298 134 298 134 232 134 c 128,-1,23
 166 134 166 134 119 181 c 128,-1,16
 72 228 72 228 72 294 c 128,-1,17
314 175 m 1,24,-1
 352 212 l 1,25,-1
 437 127 l 1,26,-1
 400 89 l 1,27,-1
 314 175 l 1,24,-1
152 412 m 1,28,-1
 115 374 l 1,29,-1
 26 463 l 1,30,-1
 64 500 l 1,31,-1
 152 412 l 1,28,-1
EndSplineSet
EndChar

StartChar: eth
Encoding: 240 240 210
Width: 470
Flags: HMW
HStem: -12 22<169.5 251 169.5 272> 409 28<226.5 298.5 226.5 304> 640 20G<235 235>
VStem: 45 63<96.5 186 96 235> 362 68<238 326> 385 45<374 374>
LayerCount: 2
Fore
SplineSet
382 373 m 1,0,-1
 385 374 l 1,1,2
 374 566 374 566 224 637 c 1,3,-1
 235 660 l 1,4,5
 330 626 330 626 380 531 c 128,-1,6
 430 436 430 436 430 311 c 128,-1,7
 430 186 430 186 367 87 c 128,-1,8
 304 -12 304 -12 197 -12 c 0,9,10
 127 -12 127 -12 86 30 c 128,-1,11
 45 72 45 72 45 148 c 0,12,13
 45 271 45 271 119.5 354 c 128,-1,14
 194 437 194 437 271.5 437 c 128,-1,15
 349 437 349 437 382 373 c 1,0,-1
339.5 376.5 m 128,-1,17
 317 409 317 409 278 409 c 128,-1,18
 239 409 239 409 204.5 380.5 c 128,-1,19
 170 352 170 352 150 309 c 0,20,21
 108 218.7 108 218.7 108 147.35 c 128,-1,22
 108 76 108 76 132 43 c 128,-1,23
 156 10 156 10 201.5 10 c 128,-1,24
 247 10 247 10 287 60 c 128,-1,25
 327 110 327 110 344.5 171.5 c 128,-1,26
 362 233 362 233 362 288.5 c 128,-1,16
 362 344 362 344 339.5 376.5 c 128,-1,17
238 488 m 1,27,-1
 223 521 l 1,28,-1
 455 633 l 1,29,-1
 470 600 l 1,30,-1
 238 488 l 1,27,-1
EndSplineSet
EndChar

StartChar: Thorn
Encoding: 222 222 211
Width: 485
Flags: HMW
HStem: 0 21G<10 194 10 10> 125 23<166 259 162 260> 481 23<242 328 237 339> 610 20G<143 327 327 327>
VStem: 429 66<318 396>
LayerCount: 2
Fore
SplineSet
162 125 m 1,0,-1
 142 28 l 1,1,2
 142 18 142 18 153 18 c 2,3,-1
 197 18 l 1,4,-1
 194 0 l 1,5,-1
 10 0 l 1,6,-1
 13 18 l 1,7,-1
 59 18 l 2,8,9
 72 18 72 18 75 33 c 0,10,11
 195 601 195 601 195 606.5 c 128,-1,12
 195 612 195 612 184 612 c 2,13,-1
 140 612 l 1,14,-1
 143 630 l 1,15,-1
 327 630 l 1,16,-1
 324 612 l 1,17,-1
 279 612 l 2,18,19
 266 612 266 612 262 598 c 2,20,-1
 242 504 l 1,21,-1
 339 504 l 2,22,23
 407 504 407 504 451 466 c 128,-1,24
 495 428 495 428 495 361 c 0,25,26
 495 255 495 255 422 190 c 128,-1,27
 349 125 349 125 259 125 c 2,28,-1
 162 125 l 1,0,-1
328 481 m 2,29,-1
 237 481 l 1,30,-1
 166 148 l 1,31,-1
 260 148 l 2,32,33
 332 148 332 148 380.5 218 c 128,-1,34
 429 288 429 288 429 365 c 0,35,36
 429 415 429 415 403.5 448 c 128,-1,37
 378 481 378 481 328 481 c 2,29,-1
EndSplineSet
EndChar

StartChar: section
Encoding: 167 167 212
Width: 441
Flags: HMW
HStem: -117 37<142 210 142 230> 605 37<246 314>
VStem: 15 74<-20 12.5 -24.5 35.5> 98 69<448.5 509 444.5 518> 289 69<16 76.5 7 80.5> 367 74<512.5 545 489.5 549.5>
LayerCount: 2
Fore
SplineSet
148 245 m 1,0,-1
 158 265 l 1,1,-1
 267 201 l 2,2,3
 309 176 309 176 333.5 133.5 c 128,-1,4
 358 91 358 91 358 49 c 0,5,6
 358 -18 358 -18 307 -67.5 c 128,-1,7
 256 -117 256 -117 173.5 -117 c 0,8,9
 91 -117 91 -117 53 -79.5 c 128,-1,10
 15 -42 15 -42 15 3.5 c 0,11,12
 15 49 15 49 33.5 76.5 c 128,-1,13
 52 104 52 104 83 104 c 0,14,15
 114 104 114 104 132 83 c 1,16,17
 89 57 89 57 89 -5 c 0,18,19
 89 -37 89 -37 109.5 -58.5 c 128,-1,20
 130 -80 130 -80 178.5 -80 c 0,21,22
 227 -80 227 -80 258 -42 c 128,-1,23
 289 -4 289 -4 289 46.5 c 0,24,25
 289 97 289 97 265 142.5 c 128,-1,26
 241 188 241 188 202 212 c 2,27,-1
 148 245 l 1,0,-1
308 280 m 1,28,-1
 298 260 l 1,29,-1
 189 324 l 2,30,31
 147 349 147 349 122.5 391.5 c 128,-1,32
 98 434 98 434 98 476 c 0,33,34
 98 543 98 543 149 592.5 c 128,-1,35
 200 642 200 642 282.5 642 c 0,36,37
 365 642 365 642 403 604.5 c 128,-1,38
 441 567 441 567 441 521.5 c 0,39,40
 441 476 441 476 422.5 448.5 c 128,-1,41
 404 421 404 421 373 421 c 0,42,43
 342 421 342 421 324 442 c 1,44,45
 367 468 367 468 367 530 c 0,46,47
 367 562 367 562 346.5 583.5 c 128,-1,48
 326 605 326 605 277.5 605 c 0,49,50
 229 605 229 605 198 567 c 128,-1,51
 167 529 167 529 167 478.5 c 0,52,53
 167 428 167 428 191 382.5 c 128,-1,54
 215 337 215 337 254 313 c 2,55,-1
 308 280 l 1,28,-1
EndSplineSet
EndChar

StartChar: AE
Encoding: 198 198 213
Width: 711
Flags: HMW
HStem: -9 21G 0 23<310 494> 286 28<133 297 113 303 371 566> 607 23<345 345 345 365 433 613 613 640 433 433> 619 20G
LayerCount: 2
Fore
SplineSet
366 286 m 1,0,-1
 310 23 l 1,1,-1
 531 23 l 2,2,3
 555 23 555 23 562 45 c 2,4,-1
 604 167 l 1,5,-1
 626 167 l 1,6,-1
 616 120 l 2,7,8
 597 31 597 31 597 -9 c 1,9,10
 568 0 568 0 494 0 c 2,11,-1
 179 0 l 1,12,-1
 182 18 l 1,13,-1
 228 18 l 2,14,15
 241 18 241 18 244 33 c 2,16,-1
 297 286 l 1,17,-1
 113 286 l 1,18,-1
 -78 18 l 1,19,-1
 -16 18 l 1,20,-1
 -19 0 l 1,21,-1
 -165 0 l 1,22,-1
 -161 18 l 1,23,-1
 -127 18 l 2,24,25
 -116 18 -116 18 -106 32 c 2,26,-1
 299 592 l 2,27,28
 306 601 306 601 306 606.5 c 0,29,30
 306 612 306 612 299 612 c 2,31,-1
 266 612 l 1,32,-1
 269 630 l 1,33,-1
 613 630 l 2,34,35
 689 630 689 630 721 639 c 1,36,37
 706 604 706 604 685 510 c 2,38,-1
 675 463 l 1,39,-1
 653 463 l 1,40,-1
 666 590 l 1,41,42
 666 607 666 607 644 607 c 2,43,-1
 433 607 l 1,44,-1
 371 314 l 1,45,-1
 573 314 l 1,46,47
 583 315 583 315 587 328 c 2,48,-1
 607 390 l 1,49,-1
 624 390 l 1,50,-1
 585 210 l 1,51,-1
 568 210 l 1,52,-1
 577 272 l 1,53,54
 577 286 577 286 566 286 c 2,55,-1
 366 286 l 1,0,-1
345 607 m 1,56,-1
 133 314 l 1,57,-1
 303 314 l 1,58,-1
 365 607 l 1,59,-1
 345 607 l 1,56,-1
EndSplineSet
Position2: "'cpsp' Capital Spacing in Latin lookup 1 subtable" dx=0 dy=0 dh=40 dv=0
EndChar

StartChar: mu
Encoding: 181 181 214
Width: 517
Flags: HMW
HStem: -216 21G<40 59.5> -12 30<168 183> 415 20G<201 201 448 448>
VStem: 20 52<-180.5 -44> 20 111 311 54<37 68.5 34 111>
LayerCount: 2
Fore
SplineSet
400 8 m 1,0,-1
 393 -12 l 1,1,2
 311 -12 311 -12 311 63 c 0,3,4
 311 78 311 78 316 111 c 1,5,-1
 311 111 l 1,6,7
 247 -12 247 -12 163 -12 c 0,8,9
 103 -12 103 -12 84 36 c 1,10,11
 72 -26 72 -26 72 -60 c 0,12,13
 72 -137 72 -137 122 -179 c 1,14,15
 109 -195 109 -195 87 -205.5 c 128,-1,16
 65 -216 65 -216 51 -216 c 0,17,18
 20 -216 20 -216 20 -163.5 c 0,19,20
 20 -111 20 -111 60.5 73 c 128,-1,21
 101 257 101 257 137 398 c 1,22,-1
 73 393 l 1,23,-1
 72 410 l 1,24,25
 141 419 141 419 201 435 c 1,26,-1
 215 425 l 1,27,28
 131 164 131 164 131 91 c 0,29,30
 131 18 131 18 186 18 c 0,31,32
 233 18 233 18 276 83.5 c 128,-1,33
 319 149 319 149 350 267 c 2,34,-1
 384 398 l 1,35,-1
 320 393 l 1,36,-1
 319 410 l 1,37,38
 388 419 388 419 448 435 c 1,39,-1
 462 425 l 1,40,41
 427 321 427 321 396 202 c 128,-1,42
 365 83 365 83 365 45.5 c 0,43,44
 365 8 365 8 400 8 c 1,0,-1
EndSplineSet
EndChar

StartChar: breve
Encoding: 728 728 215
Width: 265
Flags: HMW
HStem: 532 58<103 143> 620 20G<33 61 61 61 207 235 235 235>
LayerCount: 2
Fore
SplineSet
76.5 601 m 128,-1,1
 93 590 93 590 125.5 590 c 128,-1,2
 158 590 158 590 180 604 c 128,-1,3
 202 618 202 618 207 640 c 1,4,-1
 235 640 l 1,5,6
 225 593 225 593 191.5 562.5 c 128,-1,7
 158 532 158 532 115.5 532 c 128,-1,8
 73 532 73 532 51.5 554 c 128,-1,9
 30 576 30 576 30 612 c 0,10,11
 30 625 30 625 33 640 c 1,12,-1
 61 640 l 1,13,14
 60 637 60 637 60 631 c 0,15,0
 60 612 60 612 76.5 601 c 128,-1,1
EndSplineSet
EndChar

StartChar: macron
Encoding: 175 175 216
Width: 301
Flags: HMW
HStem: 557 54<30 271 41 260>
LayerCount: 2
Fore
SplineSet
30 557 m 1,0,-1
 41 611 l 1,1,-1
 271 611 l 1,2,-1
 260 557 l 1,3,-1
 30 557 l 1,0,-1
EndSplineSet
EndChar

StartChar: asciicircum
Encoding: 94 94 217
Width: 505
Flags: HMW
HStem: 270 21G<96 149 96 96 412 464 412 412> 624 20G<334 384 384 384>
LayerCount: 2
Fore
SplineSet
384 644 m 1,0,-1
 464 270 l 1,1,-1
 412 270 l 1,2,-1
 347 584 l 1,3,-1
 149 270 l 1,4,-1
 96 270 l 1,5,-1
 334 644 l 1,6,-1
 384 644 l 1,0,-1
EndSplineSet
EndChar

StartChar: fl
Encoding: 64258 64258 218
Width: 536
Flags: HMW
HStem: -228 23<-48 -6.5 -48 -5> -12 21G<371 412> 637 23<320.5 385>
VStem: -125 54<-169.5 -149.5 -174 -136> 330 54<39.5 88.5 39.5 101>
LayerCount: 2
Fore
SplineSet
384 49 m 0,0,1
 384 16 384 16 409 16 c 0,2,3
 428 16 428 16 450 41.5 c 128,-1,4
 472 67 472 67 488 114 c 1,5,-1
 504 110 l 1,6,7
 461 -12 461 -12 392 -12 c 0,8,9
 330 -12 330 -12 330 63 c 0,10,11
 330 106 330 106 385 325.5 c 128,-1,12
 440 545 440 545 440 557 c 0,13,14
 440 593 440 593 418.5 615 c 128,-1,15
 397 637 397 637 359 637 c 0,16,17
 257 637 257 637 222 471 c 2,18,-1
 210 415 l 1,19,-1
 309 415 l 1,20,-1
 304 396 l 1,21,-1
 206 396 l 1,22,-1
 128 32 l 2,23,24
 73 -228 73 -228 -45 -228 c 0,25,26
 -83 -228 -83 -228 -104 -205 c 128,-1,27
 -125 -182 -125 -182 -125 -153.5 c 0,28,29
 -125 -125 -125 -125 -113.5 -102.5 c 128,-1,30
 -102 -80 -102 -80 -77 -80 c 0,31,32
 -52 -80 -52 -80 -41 -93 c 1,33,34
 -54 -103 -54 -103 -62.5 -123 c 128,-1,35
 -71 -143 -71 -143 -71 -162 c 0,36,37
 -71 -205 -71 -205 -35 -205 c 0,38,39
 5 -205 5 -205 26.5 -141 c 128,-1,40
 48 -77 48 -77 84 106 c 2,41,-1
 141 396 l 1,42,-1
 52 396 l 1,43,-1
 57 415 l 1,44,-1
 144 415 l 1,45,46
 168 528 168 528 222.5 594 c 128,-1,47
 277 660 277 660 360.5 660 c 0,48,49
 444 660 444 660 480 608 c 1,50,-1
 525 657 l 1,51,-1
 539 647 l 1,52,53
 497 524 497 524 440.5 313.5 c 128,-1,54
 384 103 384 103 384 49 c 0,0,1
EndSplineSet
Ligature2: "'liga' Standard Ligatures in Latin lookup 1 subtable" f l
EndChar

StartChar: fi
Encoding: 64257 64257 219
Width: 510
Flags: HMW
HStem: -228 23<-48 -6.5 -48 -5> -12 21G<361 402> 637 23<310.5 374.5>
VStem: -125 54<-169.5 -149.5 -174 -136> 320 54<39.5 71.5 39.5 89> 426 64<560 578 540.5 588.5>
LayerCount: 2
Fore
SplineSet
215.5 585.5 m 128,-1,1
 268 660 268 660 346.5 660 c 128,-1,2
 425 660 425 660 457.5 628.5 c 128,-1,3
 490 597 490 597 490 555 c 0,4,5
 490 533 490 533 479 517.5 c 128,-1,6
 468 502 468 502 445 502 c 128,-1,7
 422 502 422 502 410 516 c 1,8,9
 426 544 426 544 426 572 c 128,-1,10
 426 600 426 600 406 618.5 c 128,-1,11
 386 637 386 637 349 637 c 0,12,13
 296 637 296 637 267.5 594 c 128,-1,14
 239 551 239 551 222 471 c 2,15,-1
 128 32 l 2,16,17
 73 -228 73 -228 -45 -228 c 0,18,19
 -83 -228 -83 -228 -104 -205 c 128,-1,20
 -125 -182 -125 -182 -125 -153.5 c 128,-1,21
 -125 -125 -125 -125 -113.5 -102.5 c 128,-1,22
 -102 -80 -102 -80 -77 -80 c 128,-1,23
 -52 -80 -52 -80 -41 -93 c 1,24,25
 -54 -103 -54 -103 -62.5 -123 c 128,-1,26
 -71 -143 -71 -143 -71 -162 c 0,27,28
 -71 -205 -71 -205 -35 -205 c 0,29,30
 5 -205 5 -205 26.5 -141 c 128,-1,31
 48 -77 48 -77 84 106 c 2,32,-1
 142 402 l 2,33,0
 163 511 163 511 215.5 585.5 c 128,-1,1
393 396 m 1,34,-1
 52 396 l 1,35,-1
 57 415 l 1,36,-1
 309 415 l 2,37,38
 394 415 394 415 457 435 c 1,39,-1
 471 425 l 1,40,41
 436 321 436 321 405 202 c 128,-1,42
 374 83 374 83 374 49.5 c 128,-1,43
 374 16 374 16 399 16 c 0,44,45
 418 16 418 16 440 41.5 c 128,-1,46
 462 67 462 67 478 114 c 1,47,-1
 494 110 l 1,48,49
 451 -12 451 -12 382 -12 c 0,50,51
 320 -12 320 -12 320 63 c 0,52,53
 320 114 320 114 393 396 c 1,34,-1
EndSplineSet
Ligature2: "'liga' Standard Ligatures in Latin lookup 1 subtable" f i
EndChar

StartChar: ff
Encoding: 64256 64256 220
Width: 530
Flags: HMW
HStem: -228 23<-48 -6.5 -48 -5 192 234> 637 23<310.5 377.5 560 590>
VStem: -125 54<-169.5 -149.5 -174 -136> 115 54<-169.5 -149.5 -174 -136> 618 62<580 600.5 564 604>
LayerCount: 2
Fore
SplineSet
38 396 m 1,0,-1
 43 415 l 1,1,-1
 144 415 l 1,2,3
 167 519 167 519 219 589.5 c 128,-1,4
 271 660 271 660 348 660 c 0,5,6
 439 660 439 660 479 611 c 1,7,8
 525 660 525 660 577 660 c 0,9,10
 629 660 629 660 654.5 637 c 128,-1,11
 680 614 680 614 680 583 c 0,12,13
 680 552 680 552 667.5 527 c 128,-1,14
 655 502 655 502 628 502 c 0,15,16
 601 502 601 502 589 516 c 1,17,18
 618 553 618 553 618 591 c 0,19,20
 618 637 618 637 574.5 637 c 0,21,22
 531 637 531 637 505 593.5 c 128,-1,23
 479 550 479 550 462 471 c 2,24,-1
 450 415 l 1,25,-1
 549 415 l 1,26,-1
 544 396 l 1,27,-1
 446 396 l 1,28,-1
 368 32 l 2,29,30
 339 -100 339 -100 297 -164 c 128,-1,31
 255 -228 255 -228 195 -228 c 0,32,33
 157 -228 157 -228 136 -205 c 128,-1,34
 115 -182 115 -182 115 -153.5 c 0,35,36
 115 -125 115 -125 126.5 -102.5 c 128,-1,37
 138 -80 138 -80 163 -80 c 0,38,39
 188 -80 188 -80 199 -93 c 1,40,41
 186 -103 186 -103 177.5 -123 c 128,-1,42
 169 -143 169 -143 169 -162 c 0,43,44
 169 -205 169 -205 205 -205 c 0,45,46
 245 -205 245 -205 266 -143 c 128,-1,47
 287 -81 287 -81 324 106 c 2,48,-1
 381 396 l 1,49,-1
 206 396 l 1,50,-1
 128 32 l 2,51,52
 73 -228 73 -228 -45 -228 c 0,53,54
 -83 -228 -83 -228 -104 -205 c 128,-1,55
 -125 -182 -125 -182 -125 -153.5 c 0,56,57
 -125 -125 -125 -125 -113.5 -102.5 c 128,-1,58
 -102 -80 -102 -80 -77 -80 c 0,59,60
 -52 -80 -52 -80 -41 -93 c 1,61,62
 -54 -103 -54 -103 -62.5 -123 c 128,-1,63
 -71 -143 -71 -143 -71 -162 c 0,64,65
 -71 -205 -71 -205 -35 -205 c 0,66,67
 5 -205 5 -205 26.5 -141 c 128,-1,68
 48 -77 48 -77 84 106 c 2,69,-1
 141 396 l 1,70,-1
 38 396 l 1,0,-1
222 471 m 2,71,-1
 210 415 l 1,72,-1
 384 415 l 1,73,74
 402 491 402 491 439 560 c 1,75,76
 438 593 438 593 414 615 c 128,-1,77
 390 637 390 637 343 637 c 0,78,79
 296 637 296 637 267.5 594 c 128,-1,80
 239 551 239 551 222 471 c 2,71,-1
EndSplineSet
Ligature2: "'dlig' Discretionary Ligatures in Latin lookup 0 subtable" f f
EndChar

StartChar: ffi
Encoding: 64259 64259 221
Width: 750
Flags: HMW
HStem: -228 23<-48 -6.5 -48 -5 192 234> -12 21G<601 642> 637 23<310.5 377.5 567.5 614.5>
VStem: -125 54<-169.5 -149.5 -174 -136> 115 54<-169.5 -149.5 -174 -136> 560 54<39.5 71.5 39.5 89> 666 64<560 578 540.5 588.5>
LayerCount: 2
Fore
SplineSet
222 471 m 2,0,-1
 210 415 l 1,1,-1
 384 415 l 1,2,3
 402 491 402 491 439 560 c 1,4,5
 438 593 438 593 414 615 c 128,-1,6
 390 637 390 637 343 637 c 0,7,8
 296 637 296 637 267.5 594 c 128,-1,9
 239 551 239 551 222 471 c 2,0,-1
450 415 m 1,10,-1
 549 415 l 2,11,12
 634 415 634 415 697 435 c 1,13,-1
 711 425 l 1,14,15
 676 321 676 321 645 202 c 128,-1,16
 614 83 614 83 614 49.5 c 0,17,18
 614 16 614 16 639 16 c 0,19,20
 658 16 658 16 680 41.5 c 128,-1,21
 702 67 702 67 718 114 c 1,22,-1
 734 110 l 1,23,24
 691 -12 691 -12 622 -12 c 0,25,26
 560 -12 560 -12 560 63 c 0,27,28
 560 114 560 114 633 396 c 1,29,-1
 446 396 l 1,30,-1
 368 32 l 2,31,32
 339 -100 339 -100 297 -164 c 128,-1,33
 255 -228 255 -228 195 -228 c 0,34,35
 157 -228 157 -228 136 -205 c 128,-1,36
 115 -182 115 -182 115 -153.5 c 0,37,38
 115 -125 115 -125 126.5 -102.5 c 128,-1,39
 138 -80 138 -80 163 -80 c 0,40,41
 188 -80 188 -80 199 -93 c 1,42,43
 186 -103 186 -103 177.5 -123 c 128,-1,44
 169 -143 169 -143 169 -162 c 0,45,46
 169 -205 169 -205 205 -205 c 0,47,48
 245 -205 245 -205 266 -143 c 128,-1,49
 287 -81 287 -81 324 106 c 2,50,-1
 381 396 l 1,51,-1
 206 396 l 1,52,-1
 128 32 l 2,53,54
 73 -228 73 -228 -45 -228 c 0,55,56
 -83 -228 -83 -228 -104 -205 c 128,-1,57
 -125 -182 -125 -182 -125 -153.5 c 0,58,59
 -125 -125 -125 -125 -113.5 -102.5 c 128,-1,60
 -102 -80 -102 -80 -77 -80 c 0,61,62
 -52 -80 -52 -80 -41 -93 c 1,63,64
 -54 -103 -54 -103 -62.5 -123 c 128,-1,65
 -71 -143 -71 -143 -71 -162 c 0,66,67
 -71 -205 -71 -205 -35 -205 c 0,68,69
 5 -205 5 -205 26.5 -141 c 128,-1,70
 48 -77 48 -77 84 106 c 2,71,-1
 141 396 l 1,72,-1
 52 396 l 1,73,-1
 57 415 l 1,74,-1
 144 415 l 1,75,76
 167 519 167 519 219 589.5 c 128,-1,77
 271 660 271 660 348 660 c 0,78,79
 439 660 439 660 479 611 c 1,80,81
 525 660 525 660 595 660 c 0,82,83
 665 660 665 660 697.5 628.5 c 128,-1,84
 730 597 730 597 730 555 c 0,85,86
 730 533 730 533 719 517.5 c 128,-1,87
 708 502 708 502 685 502 c 0,88,89
 662 502 662 502 650 516 c 1,90,91
 666 544 666 544 666 572 c 0,92,93
 666 600 666 600 646 618.5 c 128,-1,94
 626 637 626 637 589 637 c 0,95,96
 536 637 536 637 507.5 594 c 128,-1,97
 479 551 479 551 462 471 c 2,98,-1
 450 415 l 1,10,-1
EndSplineSet
Ligature2: "'dlig' Discretionary Ligatures in Latin lookup 0 subtable" f f i
EndChar

StartChar: R
Encoding: 82 82 222
Width: 567
Flags: HMW
HStem: -12 34<423 428.5> 0 22 291 24<201 259 196 301> 607 23<264 360 264 264>
VStem: 347 62<41.5 66 41.5 81.5> 366 43 366 62<176 211.5 163 231.5> 464 66<458.5 528.5>
LayerCount: 2
Fore
SplineSet
259 291 m 2,0,-1
 196 291 l 1,1,2
 142 34 142 34 142 26 c 0,3,4
 142 18 142 18 153 18 c 2,5,-1
 217 18 l 1,6,-1
 214 0 l 1,7,-1
 10 0 l 1,8,-1
 13 18 l 1,9,-1
 59 18 l 2,10,11
 72 18 72 18 75 33 c 0,12,13
 195 601 195 601 195 606.5 c 0,14,15
 195 612 195 612 184 612 c 2,16,-1
 140 612 l 1,17,-1
 143 630 l 1,18,-1
 370 630 l 2,19,20
 439 630 439 630 484.5 594.5 c 128,-1,21
 530 559 530 559 530 490.5 c 0,22,23
 530 422 530 422 480.5 369 c 128,-1,24
 431 316 431 316 358 298 c 1,25,26
 428 271 428 271 428 189 c 0,27,28
 428 160 428 160 418.5 112 c 128,-1,29
 409 64 409 64 409 50 c 0,30,31
 409 22 409 22 431 22 c 128,-1,32
 453 22 453 22 477 53.5 c 128,-1,33
 501 85 501 85 520 143 c 1,34,-1
 537 139 l 1,35,36
 510 59 510 59 477 23.5 c 128,-1,37
 444 -12 444 -12 399 -12 c 0,38,39
 377 -12 377 -12 362 4.5 c 128,-1,40
 347 21 347 21 347 51 c 0,41,42
 347 81 347 81 356.5 128 c 128,-1,43
 366 175 366 175 366 211.5 c 0,44,45
 366 291 366 291 259 291 c 2,0,-1
360 607 m 2,47,-1
 264 607 l 1,48,-1
 201 315 l 1,49,-1
 301 315 l 2,50,51
 371 315 371 315 417.5 374 c 128,-1,52
 464 433 464 433 464 499 c 0,53,54
 464 546 464 546 437.5 576.5 c 128,-1,55
 411 607 411 607 360 607 c 2,47,-1
EndSplineSet
Position2: "'cpsp' Capital Spacing in Latin lookup 1 subtable" dx=0 dy=0 dh=40 dv=0
EndChar

StartChar: thorn
Encoding: 254 254 224
Width: 476
Flags: HMW
HStem: -222 21G<-7 -7> -8 21<190.5 277 190.5 295.5> 406 38<328 348.5> 637 20G<263 263>
VStem: 386 70<248 333.5>
LayerCount: 2
Fore
SplineSet
-7 -222 m 1,0,-1
 199 620 l 1,1,-1
 135 615 l 1,2,-1
 134 632 l 1,3,4
 203 641 203 641 263 657 c 1,5,-1
 277 647 l 1,6,7
 206 440 206 440 138 172 c 1,8,-1
 146 172 l 1,9,-1
 162 216 l 2,10,11
 245 444 245 444 352 444 c 0,12,13
 395 444 395 444 425.5 402 c 128,-1,14
 456 360 456 360 456 300 c 128,-1,15
 456 240 456 240 440.5 188.5 c 128,-1,16
 425 137 425 137 396 92.5 c 128,-1,17
 367 48 367 48 320 20 c 128,-1,18
 273 -8 273 -8 216 -8 c 0,19,20
 129 -8 129 -8 80 69 c 1,21,-1
 87 86 l 1,22,23
 135 13 135 13 213 13 c 0,24,25
 258 13 258 13 293.5 43 c 128,-1,26
 329 73 329 73 348 118.5 c 0,27,28
 386 209.5 386 209.5 386 298 c 0,29,30
 386 349 386 349 371.5 377.5 c 128,-1,31
 357 406 357 406 334 406 c 0,32,33
 287 406 287 406 228.5 315 c 128,-1,34
 170 224 170 224 123 31 c 2,35,-1
 63 -216 l 1,36,-1
 -7 -222 l 1,0,-1
EndSplineSet
EndChar

StartChar: ellipsis
Encoding: 8230 8230 225
Width: 576
Flags: HMW
HStem: -12 21G<81.5 110.5 273.5 302.5 465.5 494.5> 74 20G<81.5 110.5 273.5 302.5 465.5 494.5>
VStem: 43 106<26.5 55.5> 235 106<26.5 55.5> 427 106<26.5 55.5>
CounterMasks: 1 38
LayerCount: 2
Fore
SplineSet
43 41 m 128,-1,1
 43 63 43 63 58.5 78.5 c 128,-1,2
 74 94 74 94 96 94 c 128,-1,3
 118 94 118 94 133.5 78.5 c 128,-1,4
 149 63 149 63 149 41 c 128,-1,5
 149 19 149 19 133.5 3.5 c 128,-1,6
 118 -12 118 -12 96 -12 c 128,-1,7
 74 -12 74 -12 58.5 3.5 c 128,-1,0
 43 19 43 19 43 41 c 128,-1,1
235 41 m 128,-1,9
 235 63 235 63 250.5 78.5 c 128,-1,10
 266 94 266 94 288 94 c 128,-1,11
 310 94 310 94 325.5 78.5 c 128,-1,12
 341 63 341 63 341 41 c 128,-1,13
 341 19 341 19 325.5 3.5 c 128,-1,14
 310 -12 310 -12 288 -12 c 128,-1,15
 266 -12 266 -12 250.5 3.5 c 128,-1,8
 235 19 235 19 235 41 c 128,-1,9
427 41 m 128,-1,17
 427 63 427 63 442.5 78.5 c 128,-1,18
 458 94 458 94 480 94 c 128,-1,19
 502 94 502 94 517.5 78.5 c 128,-1,20
 533 63 533 63 533 41 c 128,-1,21
 533 19 533 19 517.5 3.5 c 128,-1,22
 502 -12 502 -12 480 -12 c 128,-1,23
 458 -12 458 -12 442.5 3.5 c 128,-1,16
 427 19 427 19 427 41 c 128,-1,17
EndSplineSet
EndChar

StartChar: ae
Encoding: 230 230 226
Width: 669
Flags: HMW
HStem: -12 24<433 486> 203 20<426 483.5> 420 24<219.5 297 525.5 566>
VStem: 40 66<93.5 178.5 91.5 207> 312 66<96 141.5 93 147> 603 56<328.5 374.5>
LayerCount: 2
Fore
SplineSet
632.5 418.5 m 128,-1,1
 659 393 659 393 659 345.5 c 128,-1,2
 659 298 659 298 622 263 c 0,3,4
 558.571428571 203 558.571428571 203 435 203 c 0,5,6
 407 203 407 203 386 206 c 1,7,8
 378 169 378 169 378 121.5 c 128,-1,9
 378 74 378 74 399 43 c 128,-1,10
 420 12 420 12 458 12 c 0,11,12
 557 12 557 12 603 120 c 1,13,-1
 619 116 l 1,14,15
 595 55 595 55 549.5 21.5 c 128,-1,16
 504 -12 504 -12 447 -12 c 128,-1,17
 390 -12 390 -12 351 30 c 128,-1,18
 312 72 312 72 312 147 c 1,19,20
 248 -12 248 -12 150 -12 c 0,21,22
 103 -12 103 -12 71.5 29.5 c 128,-1,23
 40 71 40 71 40 131.5 c 128,-1,24
 40 192 40 192 56 244 c 128,-1,25
 72 296 72 296 101 341.5 c 128,-1,26
 130 387 130 387 178 415.5 c 128,-1,27
 226 444 226 444 283.5 444 c 128,-1,28
 341 444 341 444 384 401 c 1,29,-1
 415 435 l 1,30,-1
 429 425 l 1,31,-1
 414 388 l 1,32,33
 475 444 475 444 553 444 c 0,34,0
 606 444 606 444 632.5 418.5 c 128,-1,1
124.5 46 m 128,-1,36
 143 18 143 18 175 18 c 128,-1,37
 207 18 207 18 239.5 57.5 c 128,-1,38
 272 97 272 97 296.5 156.5 c 0,39,40
 343.75 271.25 343.75 271.25 364 386 c 1,41,42
 329 420 329 420 283.5 420 c 128,-1,43
 238 420 238 420 202.5 389 c 128,-1,44
 167 358 167 358 147 311 c 0,45,46
 106 214.65 106 214.65 106 130 c 0,47,35
 106 74 106 74 124.5 46 c 128,-1,36
548 420 m 0,48,49
 489 420 489 420 448.5 362.5 c 128,-1,50
 408 305 408 305 390 225 c 1,51,52
 416 223 416 223 429 223 c 0,53,54
 512 223 512 223 557.5 265 c 128,-1,55
 603 307 603 307 603 357 c 0,56,57
 603 384 603 384 588.5 402 c 128,-1,58
 574 420 574 420 548 420 c 0,48,49
EndSplineSet
EndChar

StartChar: ffl
Encoding: 64260 64260 227
Width: 776
Flags: HMW
HStem: -228 23<-48 -6.5 -48 -5 192 233.5> -12 21G<611 652> 637 23<310.5 377.5 574.5 625>
VStem: -125 54<-169.5 -149.5 -174 -136> 115 54<-169.5 -149.5 -174 -136> 570 54<39.5 88.5 39.5 101>
LayerCount: 2
Fore
SplineSet
222 471 m 2,0,-1
 210 415 l 1,1,-1
 384 415 l 1,2,3
 388 426 388 426 395 450.5 c 128,-1,4
 402 475 402 475 406.5 489 c 0,5,6
 419.073529412 528.117647059 419.073529412 528.117647059 439 560 c 1,7,8
 438 593 438 593 414 615 c 128,-1,9
 390 637 390 637 343 637 c 128,-1,10
 296 637 296 637 267.5 594 c 128,-1,11
 239 551 239 551 222 471 c 2,0,-1
680 557 m 0,12,13
 680 593 680 593 658.5 615 c 128,-1,14
 637 637 637 637 599 637 c 0,15,16
 497 637 497 637 462 471 c 2,17,-1
 450 415 l 1,18,-1
 549 415 l 1,19,-1
 544 396 l 1,20,-1
 446 396 l 1,21,-1
 368 32 l 2,22,23
 313 -228 313 -228 195 -228 c 0,24,25
 157 -228 157 -228 136 -205 c 128,-1,26
 115 -182 115 -182 115 -153.5 c 128,-1,27
 115 -125 115 -125 126.5 -102.5 c 128,-1,28
 138 -80 138 -80 163 -80 c 128,-1,29
 188 -80 188 -80 199 -93 c 1,30,31
 186 -103 186 -103 177.5 -123 c 128,-1,32
 169 -143 169 -143 169 -162 c 0,33,34
 169 -205 169 -205 205 -205 c 0,35,36
 245 -205 245 -205 266.5 -141 c 128,-1,37
 288 -77 288 -77 324 106 c 2,38,-1
 381 396 l 1,39,-1
 206 396 l 1,40,-1
 128 32 l 2,41,42
 73 -228 73 -228 -45 -228 c 0,43,44
 -83 -228 -83 -228 -104 -205 c 128,-1,45
 -125 -182 -125 -182 -125 -153.5 c 128,-1,46
 -125 -125 -125 -125 -113.5 -102.5 c 128,-1,47
 -102 -80 -102 -80 -77 -80 c 128,-1,48
 -52 -80 -52 -80 -41 -93 c 1,49,50
 -54 -103 -54 -103 -62.5 -123 c 128,-1,51
 -71 -143 -71 -143 -71 -162 c 0,52,53
 -71 -205 -71 -205 -35 -205 c 0,54,55
 5 -205 5 -205 26.5 -141 c 128,-1,56
 48 -77 48 -77 84 106 c 2,57,-1
 141 396 l 1,58,-1
 52 396 l 1,59,-1
 57 415 l 1,60,-1
 144 415 l 1,61,62
 167 519 167 519 219 589.5 c 128,-1,63
 271 660 271 660 348 660 c 0,64,65
 439 660 439 660 479 611 c 1,66,67
 530 660 530 660 598 660 c 0,68,69
 684 660 684 660 720 608 c 1,70,-1
 765 657 l 1,71,-1
 779 647 l 1,72,73
 737 524 737 524 680.5 313.5 c 128,-1,74
 624 103 624 103 624 49 c 0,75,76
 624 16 624 16 649 16 c 0,77,78
 668 16 668 16 690 41.5 c 128,-1,79
 712 67 712 67 728 114 c 1,80,-1
 744 110 l 1,81,82
 701 -12 701 -12 632 -12 c 0,83,84
 570 -12 570 -12 570 63 c 0,85,86
 570 106 570 106 625 325.5 c 128,-1,87
 680 545 680 545 680 557 c 0,12,13
EndSplineSet
Ligature2: "'dlig' Discretionary Ligatures in Latin lookup 0 subtable" f f l
EndChar

